<svg id="查看数据" xmlns="http://www.w3.org/2000/svg" width="176.366" height="159.265" viewBox="0 0 176.366 159.265">
  <rect id="矩形_3326" data-name="矩形 3326" width="169.654" height="108.633" rx="7" transform="translate(6.333 20.489)" fill="#fff"/>
  <path id="路径_10066" data-name="路径 10066" d="M256.285,180.882H97.247a5.7,5.7,0,0,1-5.687-5.687V77.185a5.7,5.7,0,0,1,5.687-5.695H256.285a5.7,5.7,0,0,1,5.687,5.695v98.01A5.7,5.7,0,0,1,256.285,180.882ZM97.247,72.248a4.936,4.936,0,0,0-4.929,4.937v98.01a4.937,4.937,0,0,0,4.929,4.929H256.285a4.936,4.936,0,0,0,4.929-4.929V77.185a4.936,4.936,0,0,0-4.929-4.937Z" transform="translate(-85.606 -51.38)" fill="#231f20"/>
  <path id="路径_10067" data-name="路径 10067" d="M261.593,192.858H91.939a.387.387,0,0,1-.379-.379.379.379,0,0,1,.379-.379H261.593a.379.379,0,1,1,0,.758Z" transform="translate(-85.606 -80.532)" fill="#231f20"/>
  <path id="路径_10068" data-name="路径 10068" d="M218.7,236.255H175.33l8-21H210.7Z" transform="translate(-105.854 -86.128)" fill="#fff"/>
  <path id="路径_10069" data-name="路径 10069" d="M218.576,236.513H175.209a.372.372,0,0,1-.311-.167.379.379,0,0,1-.046-.349l8-21a.379.379,0,0,1,.356-.25H210.6a.372.372,0,0,1,.349.25l7.992,21a.387.387,0,0,1-.356.516Zm-42.813-.758H218.03l-7.712-20.246H183.467Z" transform="translate(-105.733 -86.007)" fill="#231f20"/>
  <rect id="矩形_3327" data-name="矩形 3327" width="58.624" height="5.664" rx="2.832" transform="translate(61.848 148.891)" fill="#fff"/>
  <path id="路径_10070" data-name="路径 10070" d="M221.233,247.243H167.689a2.919,2.919,0,0,1-2.919-2.919v-.576a2.927,2.927,0,0,1,2.919-2.927h53.543a2.927,2.927,0,0,1,2.919,2.927v.576A2.919,2.919,0,0,1,221.233,247.243Zm-53.543-5.664a2.169,2.169,0,0,0-2.161,2.169v.576a2.169,2.169,0,0,0,2.161,2.161h53.543a2.169,2.169,0,0,0,2.161-2.161v-.576a2.169,2.169,0,0,0-2.161-2.169Z" transform="translate(-103.301 -92.308)" fill="#231f20"/>
  <rect id="矩形_3328" data-name="矩形 3328" width="157.536" height="79.682" transform="translate(12.392 25.608)" fill="#ff595e"/>
  <rect id="矩形_3329" data-name="矩形 3329" width="157.536" height="79.682" transform="translate(12.392 25.608)" fill="#d1d3d4"/>
  <path id="路径_10071" data-name="路径 10071" d="M180.66,224.842l32.288-6.271-1.266-3.321H184.307Z" transform="translate(-107.142 -86.128)" fill="#231f20"/>
  <path id="路径_10072" data-name="路径 10072" d="M180.538,225.1a.379.379,0,0,1-.356-.516L183.829,215a.387.387,0,0,1,.356-.25H211.56a.379.379,0,0,1,.356.25l1.266,3.314a.387.387,0,0,1,0,.318.4.4,0,0,1-.265.19l-32.288,6.271Zm3.913-9.592-3.321,8.713,31.181-6.066L211.3,215.5Z" transform="translate(-107.02 -86.007)" fill="#231f20"/>
  <path id="路径_10073" data-name="路径 10073" d="M243.064,51.984v98.4H128.25V45.47h108.3A6.514,6.514,0,0,1,243.064,51.984Z" transform="translate(-94.474 -45.091)" fill="#fff"/>
  <path id="路径_10074" data-name="路径 10074" d="M242.943,150.646H128.129a.387.387,0,0,1-.379-.379V45.349a.379.379,0,0,1,.379-.379h108.3a6.87,6.87,0,0,1,6.893,6.893v98.4A.379.379,0,0,1,242.943,150.646Zm-114.434-.758H242.564V51.863a6.119,6.119,0,0,0-6.135-6.112H128.508Z" transform="translate(-94.353 -44.97)" fill="#231f20"/>
  <path id="路径_10075" data-name="路径 10075" d="M186.007,84.843H137.089a.379.379,0,0,1-.379-.379V67.319a.379.379,0,0,1,.758,0V84.085H186a.379.379,0,0,1,.008.758Z" transform="translate(-96.519 -50.28)" fill="#d1d3d4"/>
  <path id="路径_10076" data-name="路径 10076" d="M176.623,133.372H137.669a.379.379,0,0,1-.379-.379V97.269a.379.379,0,0,1,.379-.379h38.954a.379.379,0,0,1,.379.379v35.754A.379.379,0,0,1,176.623,133.372Zm-38.575-.758h38.2V97.648h-38.2Z" transform="translate(-96.659 -57.519)" fill="#d1d3d4"/>
  <path id="路径_10077" data-name="路径 10077" d="M238.295,170.97H140.679a.379.379,0,0,1-.379-.379V153.279a.379.379,0,0,1,.379-.379h97.615a.387.387,0,0,1,.379.379v17.312A.379.379,0,0,1,238.295,170.97Zm-97.236-.758h96.834V153.658H141.058Z" transform="translate(-97.387 -71.057)" fill="#d1d3d4"/>
  <path id="路径_10078" data-name="路径 10078" d="M238.295,161.758H140.679a.379.379,0,1,1,0-.758h97.615a.387.387,0,0,1,.379.379.379.379,0,0,1-.379.379Z" transform="translate(-97.387 -73.015)" fill="#d1d3d4"/>
  <path id="路径_10079" data-name="路径 10079" d="M85.12,245.53V251.1s12.853,1.517,12.565.918-7.348-5.634-7.348-5.634Z" transform="translate(-84.05 -93.446)" fill="#231f20"/>
  <path id="路径_10080" data-name="路径 10080" d="M96.563,252.392c-1.464,0-4.626-.22-11.6-1.031a.379.379,0,0,1-.341-.379v-5.573a.372.372,0,0,1,.136-.288.379.379,0,0,1,.311-.091l5.149.864a.326.326,0,0,1,.159.068c2.154,1.517,7.2,5.172,7.507,5.771a.47.47,0,0,1,0,.425C97.8,252.255,97.708,252.392,96.563,252.392Zm-11.185-1.744c4.633.531,9.653,1.009,11.374,1.009-1.107-.925-4.042-3.094-6.756-5.027l-4.648-.758Z" transform="translate(-83.929 -93.324)" fill="#231f20"/>
  <path id="路径_10081" data-name="路径 10081" d="M85.13,239.05v4.914l5.172.857.857-5.771Z" transform="translate(-84.052 -91.88)" fill="#fff"/>
  <path id="路径_10082" data-name="路径 10082" d="M90.207,245.082h-.061l-5.247-.887a.379.379,0,0,1-.318-.372v-4.914a.379.379,0,0,1,.379-.379h6.066a.38.38,0,0,1,.379.432l-.864,5.778a.379.379,0,0,1-.152.25A.387.387,0,0,1,90.207,245.082Zm-4.8-1.57,4.482.758.758-4.959H85.369Z" transform="translate(-83.919 -91.754)" fill="#231f20"/>
  <path id="路径_10083" data-name="路径 10083" d="M108.66,240.98v5.263l5.869.425.341-5.687Z" transform="translate(-89.739 -92.347)" fill="#fff"/>
  <path id="路径_10084" data-name="路径 10084" d="M114.418,246.946h0l-5.862-.432a.372.372,0,0,1-.356-.372v-5.263a.379.379,0,0,1,.379-.379h6.21a.394.394,0,0,1,.281.121.379.379,0,0,1,.1.281l-.341,5.687a.387.387,0,0,1-.129.265A.394.394,0,0,1,114.418,246.946Zm-5.49-1.16,5.134.379.3-4.906h-5.429Z" transform="translate(-89.628 -92.231)" fill="#231f20"/>
  <path id="路径_10085" data-name="路径 10085" d="M111.418,170.73l-1.881,54.362h-7.644l-4-40.478L91.543,224.4,84.21,224l4.027-52.83Z" transform="translate(-83.83 -75.367)" fill="#231f20"/>
  <path id="路径_10086" data-name="路径 10086" d="M109.416,225.35h-7.644a.379.379,0,0,1-.379-.341l-3.708-37.558-5.892,36.891a.372.372,0,0,1-.394.318l-7.333-.4a.379.379,0,0,1-.356-.409l4.011-52.83a.372.372,0,0,1,.372-.349l23.181-.44a.4.4,0,0,1,.281.114.394.394,0,0,1,.106.273l-1.881,54.37A.379.379,0,0,1,109.416,225.35Zm-7.3-.758h6.938L110.9,171l-22.423.425-3.966,52.1,6.6.364,6.294-39.431a.379.379,0,1,1,.758,0Z" transform="translate(-83.708 -75.246)" fill="#231f20"/>
  <path id="路径_10087" data-name="路径 10087" d="M140.5,148.6a14.507,14.507,0,0,1,4.61-1.024c2.609-.136,3.655-1.759,3.556-2.912s-2.54-2.1-4.2-1.82-5.52,2.889-5.52,2.889Z" transform="translate(-97.06 -68.615)" fill="#fff"/>
  <path id="路径_10088" data-name="路径 10088" d="M140.381,148.911a.372.372,0,0,1-.334-.2l-1.562-2.866a.379.379,0,0,1,.121-.493c.159-.114,3.943-2.654,5.664-2.95a5.513,5.513,0,0,1,3.867.94,1.812,1.812,0,0,1,.758,1.221,2.669,2.669,0,0,1-.7,1.949,4.353,4.353,0,0,1-3.215,1.373,14.134,14.134,0,0,0-4.474.993A.387.387,0,0,1,140.381,148.911Zm-1.062-3.117,1.228,2.275a15.105,15.105,0,0,1,4.421-.925,3.6,3.6,0,0,0,2.677-1.107,1.888,1.888,0,0,0,.516-1.388,1.077,1.077,0,0,0-.485-.69,4.777,4.777,0,0,0-3.276-.758c-1.312.136-4.171,1.956-5.081,2.555Z" transform="translate(-96.937 -68.509)" fill="#231f20"/>
  <path id="路径_10089" data-name="路径 10089" d="M115.37,127.06s5.96,14.825,7.136,15.12,10.116-2.214,10.116-2.214l.2,5.505s-9.562,5.884-13.247,3.837-14.309-12.717-14.309-12.717Z" transform="translate(-88.92 -64.812)" fill="#ff595e"/>
  <path id="路径_10090" data-name="路径 10090" d="M148.51,141.96l4.792,3.117,6.279-9.82-4.792-3.117Z" transform="translate(-99.371 -66.039)" fill="#231f20"/>
  <path id="路径_10091" data-name="路径 10091" d="M153.182,145.324a.326.326,0,0,1-.2-.061l-4.792-3.117a.372.372,0,0,1-.114-.516l6.279-9.858a.372.372,0,0,1,.243-.167.334.334,0,0,1,.281.053l4.792,3.117a.372.372,0,0,1,.114.516L153.5,145.15a.341.341,0,0,1-.243.167Zm-4.269-3.564,4.155,2.7,5.869-9.191-4.155-2.7Z" transform="translate(-99.251 -65.908)" fill="#231f20"/>
  <path id="路径_10092" data-name="路径 10092" d="M155.11,124.49l22.65-35.45,3.67,2.389" transform="translate(-100.966 -55.622)" fill="#231f20"/>
  <path id="路径_10093" data-name="路径 10093" d="M154.989,124.748a.425.425,0,0,1-.2-.061.379.379,0,0,1-.114-.523l22.65-35.45a.379.379,0,0,1,.235-.167.387.387,0,0,1,.288.053l3.67,2.389a.379.379,0,0,1-.409.637l-3.352-2.184-22.446,35.132a.364.364,0,0,1-.318.174Z" transform="translate(-100.846 -55.501)" fill="#231f20"/>
  <ellipse id="椭圆_168" data-name="椭圆 168" cx="21.035" cy="16.978" rx="21.035" ry="16.978" transform="matrix(0.525, -0.851, 0.851, 0.525, 43.645, 62.512)" fill="#231f20"/>
  <path id="路径_10094" data-name="路径 10094" d="M165.539,129.442a14.756,14.756,0,0,1-8.1-2.336c-8.023-5.217-9.373-17.555-3.033-27.511h0a23.387,23.387,0,0,1,14.355-10.518,15.371,15.371,0,0,1,11.723,1.941c8.023,5.217,9.38,17.555,3.033,27.5a23.366,23.366,0,0,1-14.362,10.525,17.553,17.553,0,0,1-3.617.394ZM155.059,100c-6.135,9.6-4.876,21.475,2.8,26.464A14.408,14.408,0,0,0,169,128.3a22.587,22.587,0,0,0,13.877-10.191c6.135-9.6,4.883-21.467-2.791-26.457a14.408,14.408,0,0,0-11.155-1.835A22.594,22.594,0,0,0,155.059,100Z" transform="translate(-99.831 -55.531)" fill="#231f20"/>
  <ellipse id="椭圆_169" data-name="椭圆 169" cx="21.071" cy="17.007" rx="21.071" ry="17.007" transform="matrix(0.529, -0.849, 0.849, 0.529, 40.423, 60.562)" fill="#fff"/>
  <path id="路径_10095" data-name="路径 10095" d="M160.7,126.291a14.756,14.756,0,0,1-8.1-2.336c-8.023-5.217-9.38-17.562-3.033-27.511a23.381,23.381,0,0,1,14.362-10.518,15.333,15.333,0,0,1,11.723,1.941c8.023,5.217,9.373,17.555,3.033,27.5A23.359,23.359,0,0,1,164.33,125.9,17.555,17.555,0,0,1,160.7,126.291Zm6.923-40.008a16.789,16.789,0,0,0-3.526.356,22.574,22.574,0,0,0-13.877,10.184c-6.135,9.6-4.883,21.475,2.791,26.464a14.408,14.408,0,0,0,11.155,1.835,22.587,22.587,0,0,0,13.877-10.191c6.135-9.6,4.876-21.467-2.8-26.457A13.74,13.74,0,0,0,167.621,86.283Z" transform="translate(-98.66 -54.769)" fill="#231f20"/>
  <ellipse id="椭圆_170" data-name="椭圆 170" cx="16.645" cy="13.437" rx="16.645" ry="13.437" transform="matrix(0.525, -0.851, 0.851, 0.525, 45.289, 58.249)" fill="#fff"/>
  <path id="路径_10096" data-name="路径 10096" d="M162.621,123.447a11.754,11.754,0,0,1-6.453-1.858c-6.377-4.155-7.462-13.968-2.411-21.877a18.548,18.548,0,0,1,11.374-8.341,12.209,12.209,0,0,1,9.335,1.517c6.385,4.148,7.469,13.96,2.419,21.869A18.563,18.563,0,0,1,165.51,123.1a13.528,13.528,0,0,1-2.889.349ZM168.1,91.766a13.082,13.082,0,0,0-2.775.311,17.774,17.774,0,0,0-10.935,8.03c-4.823,7.583-3.845,16.9,2.191,20.83a11.321,11.321,0,0,0,8.766,1.441,17.8,17.8,0,0,0,10.927-8.023c4.83-7.583,3.852-16.91-2.184-20.838A10.889,10.889,0,0,0,168.1,91.766Z" transform="translate(-99.871 -56.103)" fill="#231f20"/>
  <path id="路径_10097" data-name="路径 10097" d="M154.192,100.043c-4.944,7.75-3.92,17.312,2.275,21.354a10.838,10.838,0,0,0,1.259.705c-5.179-4.428-5.778-13.255-1.153-20.474s12.838-10.336,18.957-7.4a11.707,11.707,0,0,0-1.153-.864C168.2,89.3,159.144,92.3,154.192,100.043Z" transform="translate(-99.988 -56.228)" fill="#231f20"/>
  <path id="路径_10098" data-name="路径 10098" d="M157.631,122.347a.409.409,0,0,1-.167-.038,11.157,11.157,0,0,1-1.3-.758c-6.377-4.148-7.462-13.96-2.411-21.877a18.548,18.548,0,0,1,11.374-8.341,12.247,12.247,0,0,1,9.335,1.517,11.086,11.086,0,0,1,1.191.895.379.379,0,0,1-.409.629c-6.066-2.889-13.991.235-18.487,7.264s-4.027,15.636,1.077,20a.379.379,0,0,1-.243.667ZM168.1,91.757a13.134,13.134,0,0,0-2.775.311A17.744,17.744,0,0,0,154.4,100.1c-4.489,7.022-3.966,15.591.971,19.913-3.427-4.921-3.238-12.451.758-18.753s10.76-9.6,16.629-8.47A10.9,10.9,0,0,0,168.1,91.757Z" transform="translate(-99.871 -56.094)" fill="#231f20"/>
  <path id="路径_10099" data-name="路径 10099" d="M124.62,175.187l2.5,1.63a2.631,2.631,0,0,0,3.655-.8l17.107-26.775a2.684,2.684,0,0,0-.758-3.693l-2.495-1.63a2.639,2.639,0,0,0-3.663.8l-17.107,26.775a2.684,2.684,0,0,0,.758,3.693Z" transform="translate(-93.309 -68.783)" fill="#fff"/>
  <path id="路径_10100" data-name="路径 10100" d="M128.387,177.5a3.033,3.033,0,0,1-1.63-.485l-2.5-1.63h0a3.033,3.033,0,0,1-.9-4.216L140.459,144.4a3.033,3.033,0,0,1,4.186-.918l2.495,1.63a3.033,3.033,0,0,1,.9,4.216L130.935,176.1A3.033,3.033,0,0,1,128.387,177.5Zm-3.723-2.753,2.5,1.63a2.256,2.256,0,0,0,3.132-.69l17.107-26.775a2.275,2.275,0,0,0-.675-3.17l-2.5-1.63a2.229,2.229,0,0,0-1.7-.311,2.275,2.275,0,0,0-1.433,1L124,171.58a2.275,2.275,0,0,0,.667,3.17Z" transform="translate(-93.171 -68.664)" fill="#231f20"/>
  <path id="路径_10101" data-name="路径 10101" d="M160.291,110.281a.387.387,0,0,1-.159-.758l11.2-5.194a.372.372,0,0,1,.5.182.379.379,0,0,1-.182.508l-11.215,5.225A.409.409,0,0,1,160.291,110.281Z" transform="translate(-102.106 -59.308)" fill="#d1d3d4"/>
  <path id="路径_10102" data-name="路径 10102" d="M172.32,111.967a.388.388,0,0,1-.167-.758l9.668-4.6a.387.387,0,0,1,.334.69l-9.668,4.626A.311.311,0,0,1,172.32,111.967Z" transform="translate(-105.012 -59.865)" fill="#d1d3d4"/>
  <path id="路径_10103" data-name="路径 10103" d="M159.189,123.735a.394.394,0,0,1-.341-.212.379.379,0,0,1,.174-.508l17.865-8.834a.379.379,0,1,1,.334.675L159.356,123.7a.409.409,0,0,1-.167.038Z" transform="translate(-101.86 -61.684)" fill="#d1d3d4"/>
  <path id="路径_10104" data-name="路径 10104" d="M109.7,115.191c-.614-.068-1.228-.212-1.949-.318s-1.517-.409-1.517-1.084.758-1.016.622-1.585a1.259,1.259,0,0,0-.22-.425,6.438,6.438,0,0,1-.925-4.55,6.317,6.317,0,0,1,2.472-3.943c-.19.045-.379-.152-.387-.356a.819.819,0,0,1,.243-.531,3.9,3.9,0,0,1,1.934-1.024,11.761,11.761,0,0,1,6.961.447c1.706.622,3.716,2.146,3.367,4.254a1.668,1.668,0,0,1-1.517,1.448,10.34,10.34,0,0,1-3.359,5.263,8.857,8.857,0,0,1-3.791,2.275,4.967,4.967,0,0,1-1.934.129Z" transform="translate(-89.004 -58.524)" fill="#fff"/>
  <path id="路径_10105" data-name="路径 10105" d="M110.169,115.48q-.33.016-.66,0h0c-.372-.046-.758-.114-1.13-.182l-.834-.144c-1.16-.174-1.843-.758-1.812-1.471a1.79,1.79,0,0,1,.387-.933c.167-.258.273-.417.243-.561a.841.841,0,0,0-.144-.265,6.779,6.779,0,0,1-1-4.891,6.688,6.688,0,0,1,2.2-3.837.819.819,0,0,1-.114-.372,1.122,1.122,0,0,1,.341-.8,4.239,4.239,0,0,1,2.116-1.137,12.133,12.133,0,0,1,7.189.455c2.063.758,3.973,2.487,3.609,4.671a2.116,2.116,0,0,1-1.592,1.744,11.185,11.185,0,0,1-3.39,5.179,9.342,9.342,0,0,1-3.958,2.366,5.028,5.028,0,0,1-1.448.174Zm-.576-.758a4.55,4.55,0,0,0,1.812-.144,8.591,8.591,0,0,0,3.632-2.176c1.714-1.683,2.791-3.033,3.261-5.081a.4.4,0,0,1,.372-.3,1.312,1.312,0,0,0,1.145-1.137c.334-2-1.812-3.352-3.124-3.837a11.45,11.45,0,0,0-6.741-.432,3.344,3.344,0,0,0-1.737.918.485.485,0,0,0-.152.25.356.356,0,0,1,.349.212.379.379,0,0,1-.114.47,5.869,5.869,0,0,0-2.328,3.7,6.013,6.013,0,0,0,.864,4.315,1.41,1.41,0,0,1,.265.546,1.471,1.471,0,0,1-.349,1.137,1.281,1.281,0,0,0-.258.538c0,.387.622.614,1.168.7.3.045.584.1.864.152s.713.129,1.069.167Z" transform="translate(-88.882 -58.404)" fill="#231f20"/>
  <path id="路径_10106" data-name="路径 10106" d="M123.383,114s1.456,2.76,1.054,3.268-1.517,0-1.517,0" transform="translate(-93.186 -61.655)" fill="#fff"/>
  <path id="路径_10107" data-name="路径 10107" d="M123.7,117.7a3.109,3.109,0,0,1-1.084-.235.379.379,0,0,1,.3-.7c.364.152.963.258,1.1.083A8.955,8.955,0,0,0,122.924,114a.379.379,0,1,1,.667-.356c.758,1.365,1.517,3.109,1.016,3.685a1.115,1.115,0,0,1-.9.372Z" transform="translate(-93.061 -61.513)" fill="#231f20"/>
  <path id="路径_10108" data-name="路径 10108" d="M120.493,108.979c1,1,.508,2.851.379,4.072-.174,1.721-.394,3.443-.645,5.149-.167,1.084-2.973.827-3.435.447v4.36l-5.672-2.882.576-3.541a3.572,3.572,0,0,0,3.215-1.9c1.3-2.116,1.608-6.961,1.608-6.961S119.522,108,120.493,108.979Z" transform="translate(-90.334 -60.137)" fill="#fff"/>
  <path id="路径_10109" data-name="路径 10109" d="M116.71,123.265a.349.349,0,0,1-.174-.045l-5.672-2.882a.387.387,0,0,1-.2-.394l.584-3.541a.372.372,0,0,1,.409-.318,3.17,3.17,0,0,0,2.851-1.729c1.244-2.009,1.517-6.734,1.517-6.779a.387.387,0,0,1,.417-.356c.318,0,3.132.326,4.178,1.365h0c.955.971.758,2.5.569,3.731a5.26,5.26,0,0,1-.083.652c-.174,1.714-.394,3.458-.652,5.164a1.137,1.137,0,0,1-.811.895,4.982,4.982,0,0,1-2.609.061v3.791a.394.394,0,0,1-.379.387Zm-5.255-3.473,4.868,2.472v-3.738a.379.379,0,0,1,.212-.341.387.387,0,0,1,.409.045,4.064,4.064,0,0,0,2.495.083c.2-.076.3-.174.318-.288.258-1.706.47-3.427.645-5.134a2.821,2.821,0,0,1,.091-.682c.152-1.062.334-2.389-.356-3.086h0a7.287,7.287,0,0,0-3.329-1.107c-.106,1.228-.5,4.906-1.638,6.741a4.042,4.042,0,0,1-3.215,2.085Z" transform="translate(-90.222 -60.016)" fill="#231f20"/>
  <path id="路径_10110" data-name="路径 10110" d="M122.6,119.6a1.388,1.388,0,0,1-1.972-.758" transform="translate(-92.632 -62.825)" fill="#fff"/>
  <path id="路径_10111" data-name="路径 10111" d="M121.744,120.014a1.577,1.577,0,0,1-.607-.106,1.744,1.744,0,0,1-.986-1.054.387.387,0,0,1,.212-.493.372.372,0,0,1,.493.212,1.031,1.031,0,0,0,.554.629,1.35,1.35,0,0,0,.91-.068.379.379,0,0,1,.5.182.372.372,0,0,1-.174.5,2.2,2.2,0,0,1-.9.2Z" transform="translate(-92.511 -62.702)" fill="#231f20"/>
  <path id="路径_10112" data-name="路径 10112" d="M118.148,114.219a2.343,2.343,0,0,0-.364-1.228,3.321,3.321,0,0,0-.546-.849,1.13,1.13,0,0,0-.895-.372,1.046,1.046,0,0,0-.758.463,2,2,0,0,0-.3.834,3.791,3.791,0,0,0,1.38,3.45l-.083-.114" transform="translate(-91.334 -61.115)" fill="#fff"/>
  <path id="路径_10113" data-name="路径 10113" d="M116.6,116.739a.364.364,0,0,1-.227-.083,4.08,4.08,0,0,1-1.517-3.791,2.275,2.275,0,0,1,.356-.986,1.372,1.372,0,0,1,.993-.629,1.517,1.517,0,0,1,1.206.485,3.792,3.792,0,0,1,.607.94,2.662,2.662,0,0,1,.409,1.433.387.387,0,0,1-.409.349.379.379,0,0,1-.349-.409,1.934,1.934,0,0,0-.326-1.024,3.033,3.033,0,0,0-.478-.758.758.758,0,0,0-.584-.265.713.713,0,0,0-.447.3,1.759,1.759,0,0,0-.227.675,3.39,3.39,0,0,0,1.031,2.919.4.4,0,0,1,.19.136l.083.114a.372.372,0,0,1,0,.493.356.356,0,0,1-.311.1Z" transform="translate(-91.227 -60.989)" fill="#231f20"/>
  <ellipse id="椭圆_171" data-name="椭圆 171" cx="0.622" cy="0.243" rx="0.622" ry="0.243" transform="translate(29.563 51.53) rotate(-87.71)" fill="#231f20"/>
  <path id="路径_10114" data-name="路径 10114" d="M109.45,124.73l.682-1.85,7.492,1.206.554,2.9A14.825,14.825,0,0,1,109.45,124.73Z" transform="translate(-89.93 -63.801)" fill="#231f20"/>
  <path id="路径_10115" data-name="路径 10115" d="M117.216,127.285a15.606,15.606,0,0,1-8.083-2.358.379.379,0,0,1-.159-.447l.682-1.85a.394.394,0,0,1,.417-.25l7.492,1.213a.379.379,0,0,1,.318.3l.546,2.9a.372.372,0,0,1-.068.3.356.356,0,0,1-.258.152,7.876,7.876,0,0,1-.887.038Zm-7.416-2.844a14.8,14.8,0,0,0,7.8,2.078l-.417-2.222-6.923-1.115Z" transform="translate(-89.81 -63.679)" fill="#231f20"/>
  <path id="路径_10116" data-name="路径 10116" d="M140.389,157a35.4,35.4,0,0,0,3.39,1.456c.523.076,1.517-1.221,2.1-.849a12.252,12.252,0,0,1,2.616,3.079c0,.372-.925,3.215-1.729,3.033a13.3,13.3,0,0,1-2.472-1.039l-5.225-.758" transform="translate(-97.089 -72.048)" fill="#fff"/>
  <path id="路径_10117" data-name="路径 10117" d="M146.708,164h-.129a12.632,12.632,0,0,1-2.525-1.084l-5.156-.758a.372.372,0,0,1-.318-.425.387.387,0,0,1,.432-.326l5.217.758h.129a11.935,11.935,0,0,0,2.358,1.009c.4-.068,1.251-2.176,1.282-2.7a14.778,14.778,0,0,0-2.434-2.753c-.121-.076-.591.258-.819.417a1.7,1.7,0,0,1-1.137.485,29.569,29.569,0,0,1-3.5-1.517.372.372,0,0,1-.174-.5.379.379,0,0,1,.5-.182,28.736,28.736,0,0,0,3.291,1.418,2.275,2.275,0,0,0,.584-.356c.5-.349,1.115-.758,1.661-.432s2.791,2.768,2.791,3.4a6.905,6.905,0,0,1-1.471,3.215A.9.9,0,0,1,146.708,164Z" transform="translate(-96.97 -71.902)" fill="#231f20"/>
  <path id="路径_10118" data-name="路径 10118" d="M121.537,129.82s2.047,15.5,3.162,15.5,11.738,5.111,11.738,5.111l-1.812,6.825s-13.6-1.972-16.554-3.4c-1.562-.758-4.262-17.441-4.262-17.441Z" transform="translate(-90.984 -65.479)" fill="#ff595e"/>
  <path id="路径_10119" data-name="路径 10119" d="M114.756,127.684c-4.087-2.207-9.706-5.96-16.819-.455S87.48,163.7,87.48,163.7l26.639-2.047S118.578,129.739,114.756,127.684Z" transform="translate(-84.62 -64.162)" fill="#ff595e"/>
  <path id="路径_10120" data-name="路径 10120" d="M116.4,155.106a.372.372,0,0,1-.372-.3c0-.1-1.865-9.744-2.957-16.592a.379.379,0,0,1,.311-.432.394.394,0,0,1,.44.318c1.084,6.825,2.927,16.463,2.95,16.561a.379.379,0,0,1-.3.44Z" transform="translate(-90.804 -67.401)" fill="#231f20"/>
  <path id="路径_10121" data-name="路径 10121" d="M135.648,149.561a.387.387,0,0,1-.129,0l-10.07-3.481a.394.394,0,0,1-.258-.334c0-.129-.887-12.6-1.858-15.477a.387.387,0,0,1,.235-.485.394.394,0,0,1,.485.243c.933,2.775,1.744,13.573,1.881,15.416l9.858,3.4a.384.384,0,1,1-.121.758Z" transform="translate(-93.281 -65.466)" fill="#231f20"/>
  <path id="路径_10122" data-name="路径 10122" d="M144,143.318s2.609-2.184,3.458-2.138,4.049.425,3.139,1.115-3.223.364-3.223.364.265.281-.819,1.046" transform="translate(-98.281 -68.224)" fill="#fff"/>
  <path id="路径_10123" data-name="路径 10123" d="M146.383,143.953a.379.379,0,0,1-.22-.69,2.138,2.138,0,0,0,.675-.629.4.4,0,0,1,0-.281.379.379,0,0,1,.387-.2,5.846,5.846,0,0,0,2.828-.228,10.571,10.571,0,0,0-2.821-.5c-.455-.046-1.994,1.046-3.192,2.055a.394.394,0,0,1-.538-.053.372.372,0,0,1,.046-.531c.645-.538,2.821-2.275,3.723-2.229.136,0,3.359.182,3.64,1.092a.614.614,0,0,1-.281.7,5.183,5.183,0,0,1-3.124.485,2.882,2.882,0,0,1-.933.94A.394.394,0,0,1,146.383,143.953ZM146.929,142.785ZM146.929,142.785ZM146.929,142.785ZM146.929,142.785Z" transform="translate(-98.139 -68.101)" fill="#231f20"/>
  <path id="路径_10124" data-name="路径 10124" d="M108.66,247.92v4.823s12.246.607,12.072-.341-6.2-4.057-6.2-4.057Z" transform="translate(-89.739 -94.024)" fill="#231f20"/>
  <path id="路径_10125" data-name="路径 10125" d="M115.455,253.158c-2.495,0-5.255-.114-6.931-.2a.379.379,0,0,1-.364-.379v-4.823a.387.387,0,0,1,.121-.281.364.364,0,0,1,.288-.1l5.862.432a.311.311,0,0,1,.144,0c1.865.955,6.226,3.3,6.415,4.322a.5.5,0,0,1-.121.417C120.482,253.059,118.124,253.158,115.455,253.158Zm-6.537-.933c4.861.227,10.063.25,11.215-.076a33.347,33.347,0,0,0-5.831-3.587l-5.384-.4Z" transform="translate(-89.618 -93.893)" fill="#231f20"/>
  <path id="路径_10126" data-name="路径 10126" d="M233.606,45.47a6.514,6.514,0,0,0-6.514,6.514V58.49H116.07V51.984a6.514,6.514,0,0,1,6.514-6.514Z" transform="translate(-91.53 -45.091)" fill="#ff595e"/>
  <path id="路径_10127" data-name="路径 10127" d="M226.971,58.755H115.949a.387.387,0,0,1-.379-.379V51.87A6.9,6.9,0,0,1,122.463,45H233.485a.379.379,0,1,1,0,.758,6.142,6.142,0,0,0-6.119,6.112v6.506a.379.379,0,0,1-.394.379ZM116.328,58H226.607V51.87a6.908,6.908,0,0,1,3.738-6.112H122.463a6.142,6.142,0,0,0-6.135,6.135Z" transform="translate(-91.409 -44.977)" fill="#231f20"/>
  <rect id="矩形_3330" data-name="矩形 3330" width="8.417" height="34.707" transform="translate(90.906 40.796)" fill="#ff595e"/>
  <path id="路径_10128" data-name="路径 10128" d="M211.886,133.705h-8.417a.379.379,0,0,1-.379-.379V98.649a.387.387,0,0,1,.379-.379h8.417a.379.379,0,0,1,.379.379v34.707A.379.379,0,0,1,211.886,133.705Zm-8.038-.758h7.659V99.028h-7.659Z" transform="translate(-112.563 -57.853)" fill="#231f20"/>
  <rect id="矩形_3331" data-name="矩形 3331" width="8.417" height="12.732" transform="translate(90.906 40.796)" fill="#fff"/>
  <path id="路径_10129" data-name="路径 10129" d="M211.886,111.76h-8.417a.379.379,0,0,1-.379-.379V98.649a.387.387,0,0,1,.379-.379h8.417a.379.379,0,0,1,.379.379v12.732A.379.379,0,0,1,211.886,111.76ZM203.848,111h7.659V99.028h-7.659Z" transform="translate(-112.563 -57.853)" fill="#231f20"/>
  <rect id="矩形_3332" data-name="矩形 3332" width="8.417" height="34.707" transform="translate(103.509 40.796)" fill="#ff595e"/>
  <path id="路径_10130" data-name="路径 10130" d="M228.5,133.705h-8.409a.379.379,0,0,1-.379-.379V98.649a.379.379,0,0,1,.379-.379H228.5a.379.379,0,0,1,.379.379v34.707A.379.379,0,0,1,228.5,133.705Zm-8.03-.758h7.651V99.028h-7.651Z" transform="translate(-116.581 -57.853)" fill="#231f20"/>
  <rect id="矩形_3333" data-name="矩形 3333" width="8.417" height="17.35" transform="translate(103.509 40.796)" fill="#fff"/>
  <path id="路径_10131" data-name="路径 10131" d="M228.5,116.386h-8.409a.379.379,0,0,1-.379-.379V98.649a.379.379,0,0,1,.379-.379H228.5a.379.379,0,0,1,.379.379v17.357a.379.379,0,0,1-.379.379Zm-8.03-.758h7.651v-16.6h-7.651Z" transform="translate(-116.581 -57.853)" fill="#231f20"/>
  <rect id="矩形_3334" data-name="矩形 3334" width="8.417" height="34.707" transform="translate(116.104 40.796)" fill="#ff595e"/>
  <path id="路径_10132" data-name="路径 10132" d="M245.116,133.705H236.7a.379.379,0,0,1-.379-.379V98.649a.379.379,0,0,1,.379-.379h8.417a.387.387,0,0,1,.379.379v34.707A.379.379,0,0,1,245.116,133.705Zm-8.038-.758h7.659V99.028h-7.659Z" transform="translate(-120.595 -57.853)" fill="#231f20"/>
  <rect id="矩形_3335" data-name="矩形 3335" width="8.417" height="6.37" transform="translate(116.104 40.796)" fill="#fff"/>
  <path id="路径_10133" data-name="路径 10133" d="M245.116,105.4H236.7a.379.379,0,0,1-.379-.379v-6.37a.379.379,0,0,1,.379-.379h8.417a.387.387,0,0,1,.379.379v6.37a.387.387,0,0,1-.379.379Zm-8.038-.758h7.659V99.028h-7.659Z" transform="translate(-120.595 -57.853)" fill="#231f20"/>
  <rect id="矩形_3336" data-name="矩形 3336" width="8.417" height="34.707" transform="translate(128.699 40.796)" fill="#ff595e"/>
  <path id="路径_10134" data-name="路径 10134" d="M261.726,133.705h-8.417a.379.379,0,0,1-.379-.379V98.649a.379.379,0,0,1,.379-.379h8.417a.387.387,0,0,1,.379.379v34.707A.379.379,0,0,1,261.726,133.705Zm-8.038-.758h7.636V99.028h-7.659Z" transform="translate(-124.61 -57.853)" fill="#231f20"/>
  <rect id="矩形_3337" data-name="矩形 3337" width="8.417" height="13.255" transform="translate(128.699 40.796)" fill="#fff"/>
  <path id="路径_10135" data-name="路径 10135" d="M261.726,112.283h-8.417a.379.379,0,0,1-.379-.379V98.649a.379.379,0,0,1,.379-.379h8.417a.387.387,0,0,1,.379.379V111.9A.379.379,0,0,1,261.726,112.283Zm-8.038-.758h7.636v-12.5h-7.659Z" transform="translate(-124.61 -57.853)" fill="#231f20"/>
  <path id="路径_10136" data-name="路径 10136" d="M177.719,170.97a.379.379,0,0,1-.379-.379V153.279a.379.379,0,0,1,.379-.379.387.387,0,0,1,.379.379v17.312A.379.379,0,0,1,177.719,170.97Z" transform="translate(-106.339 -71.057)" fill="#d1d3d4"/>
  <path id="路径_10137" data-name="路径 10137" d="M237.879,170.97a.379.379,0,0,1-.379-.379V153.279a.387.387,0,0,1,.379-.379.379.379,0,0,1,.379.379v17.312A.379.379,0,0,1,237.879,170.97Z" transform="translate(-120.88 -71.057)" fill="#d1d3d4"/>
  <path id="路径_10138" data-name="路径 10138" d="M253.043,144.758H193.759a.379.379,0,0,1,0-.758h59.284a.379.379,0,0,1,0,.758Z" transform="translate(-110.216 -68.906)" fill="#231f20"/>
  <path id="路径_10139" data-name="路径 10139" d="M141.294,83.084a.409.409,0,0,1-.19-.045.394.394,0,0,1-.121-.523,22.263,22.263,0,0,1,6.066-6.825c1.926-1.41,3.6-1.941,5.118-1.615a7.666,7.666,0,0,1,3.223,2.032c.281.243.561.493.842.758A11.315,11.315,0,0,0,159,78.5a3.033,3.033,0,0,0,1.312.288,2.722,2.722,0,0,0,1.418-.69,19.565,19.565,0,0,0,1.812-1.736,11.139,11.139,0,0,1,3.359-2.722,5.991,5.991,0,0,1,5.937.667,11.731,11.731,0,0,1,1.153,1.054,12.684,12.684,0,0,0,.94.88c1.964,1.585,5.058,1.835,7.9.652,2.677-1.115,4.883-3.268,6.749-5.194a.379.379,0,0,1,.538,0,.387.387,0,0,1,0,.538,22.162,22.162,0,0,1-7.007,5.361c-3.086,1.3-6.491.993-8.667-.758-.356-.3-.682-.622-1-.94a10.728,10.728,0,0,0-1.077-.978,5.2,5.2,0,0,0-5.164-.584,10.532,10.532,0,0,0-3.124,2.548,19.421,19.421,0,0,1-1.865,1.767,3.488,3.488,0,0,1-1.82.857,3.64,3.64,0,0,1-1.668-.349,11.792,11.792,0,0,1-2.95-1.736c-.3-.235-.584-.485-.872-.758a7.052,7.052,0,0,0-2.927-1.827c-1.3-.281-2.768.212-4.55,1.517a21.3,21.3,0,0,0-5.862,6.559.379.379,0,0,1-.273.174Z" transform="translate(-97.539 -51.402)" fill="#d1d3d4"/>
  <path id="路径_10140" data-name="路径 10140" d="M252.713,75.408H221.539a.387.387,0,0,1-.379-.379.379.379,0,0,1,.379-.379h31.174a.379.379,0,1,1,0,.758Z" transform="translate(-116.931 -52.144)" fill="#d1d3d4"/>
  <path id="路径_10141" data-name="路径 10141" d="M258.6,80.958H245.879a.379.379,0,0,1,0-.758h12.7a.379.379,0,0,1,.015.758Z" transform="translate(-122.814 -53.485)" fill="#d1d3d4"/>
  <path id="路径_10142" data-name="路径 10142" d="M234.688,80.958H221.539a.379.379,0,0,1-.379-.379.387.387,0,0,1,.379-.379h13.149a.387.387,0,0,1,.379.379A.379.379,0,0,1,234.688,80.958Z" transform="translate(-116.931 -53.485)" fill="#d1d3d4"/>
  <path id="路径_10143" data-name="路径 10143" d="M253.972,86.518H226.749a.379.379,0,1,1,0-.758h27.223a.379.379,0,1,1,0,.758Z" transform="translate(-118.19 -54.829)" fill="#d1d3d4"/>
</svg>
