<svg id="工作台" xmlns="http://www.w3.org/2000/svg" width="166.884" height="143.999" viewBox="0 0 166.884 143.999">
  <path id="路径_9012" data-name="路径 9012" d="M236.7,86.787s7.343.343,18.078,9.362,14.659,15.237,14.659,15.237V75.716S255.807,59.92,237.8,53.91Z" transform="translate(-128.558 -46.596)" fill="#e6e7e8"/>
  <path id="路径_9013" data-name="路径 9013" d="M269.273,111.571a.323.323,0,0,1-.283-.155c-.04-.061-4.038-6.293-14.591-15.163s-17.808-9.281-17.882-9.281a.343.343,0,0,1-.316-.35l1.07-32.851a.33.33,0,0,1,.148-.262.316.316,0,0,1,.3-.047c17.916,5.97,31.673,21.752,31.814,21.914a.316.316,0,0,1,.081.215v35.67a.337.337,0,0,1-.242.323ZM236.88,86.325c1.568.175,8.393,1.346,17.95,9.422a87.929,87.929,0,0,1,14.134,14.43V75.718c-1.151-1.3-14.194-15.7-31.006-21.476Z" transform="translate(-128.394 -46.444)" fill="#231f20"/>
  <path id="路径_9014" data-name="路径 9014" d="M121.9,103.212V71.459a97.488,97.488,0,0,1,38.43-5.182V96.738S136.808,97.384,121.9,103.212Z" transform="translate(-91.021 -50.57)" fill="#e6e7e8"/>
  <path id="路径_9015" data-name="路径 9015" d="M121.747,103.389a.4.4,0,0,1-.2-.054.357.357,0,0,1-.141-.283V71.3a.33.33,0,0,1,.209-.31,98.747,98.747,0,0,1,38.6-5.209.337.337,0,0,1,.31.337V96.572a.323.323,0,0,1-.323.337c-.236,0-23.657.72-38.363,6.461A.383.383,0,0,1,121.747,103.389Zm.337-31.854v31.033c13.844-5.263,34.9-6.212,37.77-6.32V66.434a98.363,98.363,0,0,0-37.77,5.1Z" transform="translate(-90.861 -50.411)" fill="#231f20"/>
  <path id="路径_9016" data-name="路径 9016" d="M128.536,102.2a.316.316,0,0,1-.2-.067.323.323,0,0,1-.135-.269V79.3a.337.337,0,0,1,.337-.337.343.343,0,0,1,.337.337v22.109c3.049-.956,20.272-6.192,26.7-4.859a.343.343,0,1,1-.135.673c-6.73-1.393-26.6,4.913-26.8,4.98Z" transform="translate(-93.081 -54.787)" fill="#231f20"/>
  <path id="路径_9017" data-name="路径 9017" d="M92.339,132.168A30.607,30.607,0,0,0,76.57,150.959V122.88s-.249-13.609,15.769-22.25Z" transform="translate(-76.2 -61.873)" fill="#e6e7e8"/>
  <path id="路径_9018" data-name="路径 9018" d="M76.357,151.131h-.047a.33.33,0,0,1-.289-.33V122.716c0-.135,0-13.912,15.944-22.546a.35.35,0,0,1,.337,0,.337.337,0,0,1,.162.289V132a.337.337,0,0,1-.209.31A30.515,30.515,0,0,0,76.68,150.9.336.336,0,0,1,76.357,151.131Zm15.433-50.093c-15.11,8.426-15.11,21.537-15.11,21.671v26.06a31.262,31.262,0,0,1,15.1-16.98ZM92.126,132Z" transform="translate(-76.02 -61.708)" fill="#231f20"/>
  <path id="路径_9019" data-name="路径 9019" d="M76.52,133.69s2.807,12.209,13.609,16.254V182.8s-12.31-8.521-13.609-21.032Z" transform="translate(-76.183 -72.682)" fill="#fff"/>
  <path id="路径_9020" data-name="路径 9020" d="M89.967,182.955a.316.316,0,0,1-.188-.061c-.128-.087-12.458-8.749-13.75-21.274V133.508a.339.339,0,0,1,.673-.074c0,.114,2.9,12.081,13.4,16.018a.337.337,0,0,1,.215.31v32.857a.336.336,0,0,1-.182.3A.31.31,0,0,1,89.967,182.955ZM76.682,135.688v25.9c1.11,10.715,10.58,18.569,12.936,20.366V150C81.689,146.908,78.028,139.383,76.682,135.688Z" transform="translate(-76.022 -72.5)" fill="#231f20"/>
  <path id="路径_9021" data-name="路径 9021" d="M254.553,170.719c-1.265.249-56.09,25.575-56.09,25.575s-21.456-7.827-21.954-7.578,54.044-22.486,54.044-22.486Z" transform="translate(-108.876 -83.322)" fill="#fff"/>
  <path id="路径_9022" data-name="路径 9022" d="M198.3,196.483a.315.315,0,0,1-.114,0c-8.285-3.022-20.931-7.531-21.8-7.565v-.034c-.256.054-.283,0-.35-.155a.336.336,0,0,1,.161-.437h.04c.74-.269,53.486-22.257,54.017-22.479a.322.322,0,0,1,.2,0l24,4.489a.35.35,0,0,1,.276.33.33.33,0,0,1-.269.33c-1.218.31-37.171,16.826-56.016,25.575A.35.35,0,0,1,198.3,196.483Zm-20.864-7.989c1.938.545,7.047,2.248,20.864,7.289,5.694-2.632,47.408-21.887,54.906-25.091l-22.769-4.26-26.921,11.219-18.576,7.733-6.125,2.544Z" transform="translate(-108.713 -83.181)" fill="#231f20"/>
  <path id="路径_9023" data-name="路径 9023" d="M201.881,195.365h-.1L187.2,190.9a.33.33,0,0,1-.236-.3.343.343,0,0,1,.2-.33L228.4,172.987a.337.337,0,0,1,.424.141l4.294,7.578a.343.343,0,0,1,0,.269.3.3,0,0,1-.182.2l-30.959,14.194A.35.35,0,0,1,201.881,195.365Zm-13.6-4.846,13.582,4.153,30.495-13.986-3.964-7.026Z" transform="translate(-112.294 -85.522)" fill="#d1d3d4"/>
  <path id="路径_9024" data-name="路径 9024" d="M166.827,43.616a11.94,11.94,0,0,0-4.711,2.248c-1.346.969-2.692,2.477-2.241,4.038.182.6.606,1.285.229,1.784-.256.33-.734.357-1.144.417a4.368,4.368,0,0,0-2.5,7.356,5.283,5.283,0,0,0-4.947,5.916,8.343,8.343,0,0,0,.761,2.181,6.514,6.514,0,0,1,1.036,3.655,2.357,2.357,0,0,0-2.524,2.517,4.227,4.227,0,0,0,2.282,3.224,2.725,2.725,0,0,0-1.938,3.143,5.256,5.256,0,0,0,2.342,3.237,10.331,10.331,0,0,0,9.422,1.2,3.756,3.756,0,0,0,2.443,2.766,10.243,10.243,0,0,0,3.816.491c2.409,0,5.034-.215,6.818-1.837.4-.363.767-.949.5-1.42-.33-.579-1.393-.586-1.454-1.245A9.241,9.241,0,0,0,180,81.447a4.509,4.509,0,0,0,1.972-3.076,3,3,0,0,0-1.232-2.591c1-.882,2.113-2.16,1.582-3.365-.431-.983-1.777-1.656-1.494-2.632a4.805,4.805,0,0,0,1.447-7.881,4.8,4.8,0,0,0-.128-9.052,3.5,3.5,0,0,0-3.015-5.324,1.972,1.972,0,0,0-.612-2.658,4.092,4.092,0,0,0-2.934-.471c-1.669.242-2.8.713-4.307,0A6.706,6.706,0,0,0,166.827,43.616Z" transform="translate(-100.466 -43.194)" fill="#fff"/>
  <path id="路径_9025" data-name="路径 9025" d="M168.669,87.979a9.746,9.746,0,0,1-3.621-.518,4.2,4.2,0,0,1-2.571-2.632,10.62,10.62,0,0,1-9.362-1.346,5.633,5.633,0,0,1-2.477-3.453,3.244,3.244,0,0,1,1.514-3.3,4.26,4.26,0,0,1-1.864-3.1,2.914,2.914,0,0,1,1.03-2.342,2.134,2.134,0,0,1,1.528-.592,6.353,6.353,0,0,0-.882-2.813l-.155-.323a8.647,8.647,0,0,1-.787-2.268,5.344,5.344,0,0,1,1.272-4.294,5.479,5.479,0,0,1,3.365-1.945,4.711,4.711,0,0,1,3.123-7.4h.135c.33-.047.673-.087.787-.276s.061-.552-.128-1.043c-.054-.148-.108-.289-.155-.437-.579-1.938,1.232-3.607,2.369-4.429a12.033,12.033,0,0,1,4.839-2.3h0a7.117,7.117,0,0,1,4.651.828,4.691,4.691,0,0,0,3.123.121c.316-.061.639-.121.989-.175a4.334,4.334,0,0,1,3.177.532,2.544,2.544,0,0,1,1.036,1.669,2.019,2.019,0,0,1-.1.922A3.836,3.836,0,0,1,182.46,52.5a5.128,5.128,0,0,1,.222,9.362,5.149,5.149,0,0,1-1.716,8c0,.35.256.673.673,1.151a4.113,4.113,0,0,1,.8,1.09c.458,1.043,0,2.221-1.346,3.506a3.325,3.325,0,0,1,1.057,2.625,4.846,4.846,0,0,1-2.107,3.325,9.664,9.664,0,0,1-4.543,1.858l.236.114a1.864,1.864,0,0,1,.875.673,1.548,1.548,0,0,1-.565,1.837c-1.831,1.662-4.469,1.9-7.047,1.925Zm-5.943-3.91a.337.337,0,0,1,.337.289,3.365,3.365,0,0,0,2.228,2.5,9.934,9.934,0,0,0,3.688.471c2.443,0,4.933-.242,6.6-1.75.316-.289.592-.727.431-1.01a1.4,1.4,0,0,0-.586-.4c-.384-.182-.861-.417-.915-.969a.357.357,0,0,1,.081-.249.336.336,0,0,1,.236-.121,8.891,8.891,0,0,0,4.8-1.777,4.194,4.194,0,0,0,1.837-2.833,2.638,2.638,0,0,0-1.09-2.288.33.33,0,0,1-.141-.256.323.323,0,0,1,.114-.269c1.346-1.178,1.851-2.187,1.494-3a3.8,3.8,0,0,0-.673-.909c-.485-.525-1.036-1.124-.821-1.925a.337.337,0,0,1,.2-.222,4.469,4.469,0,0,0,1.346-7.329.331.331,0,0,1,.114-.559,4.462,4.462,0,0,0-.114-8.42.33.33,0,0,1-.209-.2.316.316,0,0,1,0-.289,3.17,3.17,0,0,0-2.692-4.812h0a.343.343,0,0,1-.3-.188.357.357,0,0,1,.034-.357,1.231,1.231,0,0,0,.215-.956,1.891,1.891,0,0,0-.754-1.218,3.682,3.682,0,0,0-2.692-.411c-.343.047-.673.108-.962.162a5.223,5.223,0,0,1-3.533-.175,6.53,6.53,0,0,0-4.247-.774A11.549,11.549,0,0,0,162.175,46c-.794.579-2.591,2.093-2.113,3.695.04.128.087.256.141.39a1.683,1.683,0,0,1-.013,1.676,1.71,1.71,0,0,1-1.225.532h-.135a4.038,4.038,0,0,0-2.3,6.791.33.33,0,0,1,.067.363.343.343,0,0,1-.31.2,4.953,4.953,0,0,0-4.624,5.505,8.076,8.076,0,0,0,.754,2.086l.155.316a6.045,6.045,0,0,1,.915,3.533.316.316,0,0,1-.141.222.33.33,0,0,1-.262.054,1.582,1.582,0,0,0-1.346.4,2.268,2.268,0,0,0-.794,1.77,3.85,3.85,0,0,0,2.113,2.948.337.337,0,0,1-.114.626,2.4,2.4,0,0,0-1.656,2.759,4.953,4.953,0,0,0,2.2,3.015,9.92,9.92,0,0,0,9.12,1.185.384.384,0,0,1,.121,0Zm3.937-40.584Z" transform="translate(-100.303 -43.043)" fill="#231f20"/>
  <path id="路径_9026" data-name="路径 9026" d="M201.475,106.53s19.363,24.9,20.514,25.043c0,0,20.44-2.874,21.712-4.886s2.692-1.454,2.692-1.454,1.252-2.423,2.827-2.692,6.5,2.692,3.634,4.61-28.308,17.943-31.76,18.306c-10.937,1.131-21.4-25.1-20.191-28.577Z" transform="translate(-116.822 -63.802)" fill="#fff"/>
  <path id="路径_9027" data-name="路径 9027" d="M220.31,145.637c-3.258,0-6.771-2.275-10.217-6.629-5.963-7.531-10.452-19.713-9.631-22.378l.545-10.284a.33.33,0,0,1,.236-.3.336.336,0,0,1,.363.114c7.477,9.618,18.952,24.047,20.3,24.9,7.848-1.1,20.514-3.365,21.382-4.711,1.07-1.7,2.282-1.75,2.827-1.656.377-.673,1.514-2.4,2.941-2.692,1.292-.249,4.119,1.279,4.765,2.874a1.817,1.817,0,0,1-.882,2.342c-2.194,1.447-28.267,17.983-31.915,18.36A6.345,6.345,0,0,1,220.31,145.637Zm-18.677-38.363-.5,9.422a.209.209,0,0,1,0,.087c-.74,2.127,3.365,14.053,9.5,21.793,2.477,3.123,6.279,6.73,10.331,6.34,3.291-.343,27.931-15.816,31.632-18.253.673-.437.868-.942.626-1.535a5.191,5.191,0,0,0-4.038-2.463c-1.164.222-2.268,1.911-2.6,2.544a.33.33,0,0,1-.424.155c-.04,0-1.2-.417-2.3,1.346-1.346,2.086-19.848,4.711-21.954,5.034a.194.194,0,0,1-.087,0c-1.144-.162-14.086-16.6-20.2-24.465ZM200.8,116.7Z" transform="translate(-116.678 -63.638)" fill="#231f20"/>
  <path id="路径_9028" data-name="路径 9028" d="M167.244,96.224s-8.749-3.54-19.437,5.633c-4.812,4.092-5.788,8.568-7.807,13.158,1.622,15.345,7.235,41.889,7.235,41.889h36.613s2.955-22.257,4.038-35.67c.673-8.346-3.143-14.591-5.122-17.9C179.372,97.59,167.244,96.224,167.244,96.224Z" transform="translate(-96.94 -60.212)" fill="#ff595e"/>
  <path id="路径_9029" data-name="路径 9029" d="M172,99.49c.673,1.285,11.825,30.508,11.825,30.508V102.667Z" transform="translate(-107.403 -61.5)" fill="#231f20"/>
  <path id="路径_9030" data-name="路径 9030" d="M183.67,130.172a.336.336,0,0,1-.316-.215c-.108-.289-11.159-29.223-11.812-30.475a.337.337,0,0,1,.39-.478l11.825,3.17a.337.337,0,0,1,.249.33v27.332a.33.33,0,0,1-.276.33ZM172.43,99.838c1.588,3.85,8.682,22.371,10.9,28.173V102.759Z" transform="translate(-107.241 -61.337)" fill="#231f20"/>
  <path id="路径_9031" data-name="路径 9031" d="M188.085,62.8l.552,1.858c.242.828.956,1.117,1.259,1.8a11.179,11.179,0,0,1,.236,3.015,20.865,20.865,0,0,1-.431,6.1,6.872,6.872,0,0,1-5.458,5.189l-.256,8.3s-.094,4.247-5.277,3.426a8.931,8.931,0,0,1-6.824-5.384l-.074-10.768c0-1.151-.458-3.311,0-4.4s2.443-1.763,3.318-2.793a8,8,0,0,0,1.925-4.859,5.028,5.028,0,0,0,4.637-2.611,4.55,4.55,0,0,0,6.3.713Z" transform="translate(-107.274 -49.137)" fill="#fff"/>
  <path id="路径_9032" data-name="路径 9032" d="M179.764,92.768a8.377,8.377,0,0,1-1.346-.114,9.18,9.18,0,0,1-7.087-5.579.342.342,0,0,1,0-.114l-.074-10.809c0-.337-.047-.781-.087-1.252a8.062,8.062,0,0,1,.081-3.271,4.547,4.547,0,0,1,1.9-1.757,6.643,6.643,0,0,0,1.474-1.137,7.6,7.6,0,0,0,1.844-4.651.336.336,0,0,1,.108-.236.289.289,0,0,1,.249-.087,4.671,4.671,0,0,0,4.314-2.436.33.33,0,0,1,.276-.175.343.343,0,0,1,.3.135,4.22,4.22,0,0,0,5.815.673.337.337,0,0,1,.316-.067.343.343,0,0,1,.222.229l.128.424h0l.552,1.858a2.274,2.274,0,0,0,.606.9,3.029,3.029,0,0,1,.673.861,6.131,6.131,0,0,1,.256,2.383V69.3a20.984,20.984,0,0,1-.437,6.205,7.289,7.289,0,0,1-5.452,5.384l-.256,8.029a4.193,4.193,0,0,1-1.413,2.914,4.442,4.442,0,0,1-2.961.936Zm-7.733-5.876a8.655,8.655,0,0,0,6.542,5.095,4.626,4.626,0,0,0,3.708-.673,3.581,3.581,0,0,0,1.178-2.423l.262-8.325a.35.35,0,0,1,.3-.33,6.488,6.488,0,0,0,5.169-4.906,20.265,20.265,0,0,0,.417-6.01v-.787a5.848,5.848,0,0,0-.2-2.1,2.55,2.55,0,0,0-.511-.673,2.868,2.868,0,0,1-.767-1.171l-.545-1.831a4.94,4.94,0,0,1-6.057-.673,5.431,5.431,0,0,1-4.375,2.329,8.345,8.345,0,0,1-2.019,4.711,7.094,7.094,0,0,1-1.588,1.346c-.673.451-1.434.915-1.642,1.44a7.922,7.922,0,0,0-.04,2.955c.047.485.094.949.094,1.346Z" transform="translate(-107.091 -48.963)" fill="#231f20"/>
  <path id="路径_9033" data-name="路径 9033" d="M173.051,75.438s-2.382-5.842-5.384-2.3,1.084,7.659,3.655,7.4" transform="translate(-105.64 -52.511)" fill="#fff"/>
  <path id="路径_9034" data-name="路径 9034" d="M170.912,80.724a5.366,5.366,0,0,1-4.26-2.941,4.287,4.287,0,0,1,.592-5.021,2.868,2.868,0,0,1,2.564-1.232c2.019.323,3.331,3.486,3.365,3.621a.337.337,0,1,1-.619.256s-1.225-2.948-2.874-3.21a2.193,2.193,0,0,0-1.945,1,3.641,3.641,0,0,0-.5,4.274c.814,1.548,2.544,2.692,3.87,2.571a.338.338,0,1,1,.067.673A1.9,1.9,0,0,1,170.912,80.724Z" transform="translate(-105.473 -52.352)" fill="#231f20"/>
  <path id="路径_9035" data-name="路径 9035" d="M191.324,79.782a7.06,7.06,0,0,1-1.757-.262.35.35,0,1,1,.2-.673,4.234,4.234,0,0,0,2.409.087c.155-.337-.882-2.349-2.248-4.274A.343.343,0,0,1,190,74.19a.336.336,0,0,1,.471.081c.612.875,2.6,3.8,2.329,4.846a.673.673,0,0,1-.337.424,2.692,2.692,0,0,1-1.144.242Z" transform="translate(-113.064 -53.207)" fill="#231f20"/>
  <path id="路径_9036" data-name="路径 9036" d="M186.859,84.729a5.486,5.486,0,0,1-1.434-.188,6.152,6.152,0,0,1-3.439-2.517.337.337,0,0,1,.182-.444.343.343,0,0,1,.438.182,5.539,5.539,0,0,0,3.116,2.154,5.9,5.9,0,0,0,5.034-1.346.337.337,0,0,1,.411.532,7.08,7.08,0,0,1-4.307,1.629Z" transform="translate(-110.659 -55.636)" fill="#231f20"/>
  <path id="路径_9037" data-name="路径 9037" d="M186.993,89.9s-4.449.417-6.973-.316c0,0,2.571,6.629,6.784,6.73Z" transform="translate(-110.025 -58.26)" fill="#231f20"/>
  <path id="路径_9038" data-name="路径 9038" d="M186.643,96.485h0c-4.388-.108-6.986-6.663-7.094-6.946a.323.323,0,0,1,.067-.343.35.35,0,0,1,.343-.1c2.43.707,6.8.31,6.851.3a.33.33,0,0,1,.256.094.3.3,0,0,1,.108.256l-.188,6.407A.337.337,0,0,1,186.643,96.485ZM180.437,89.9c.72,1.548,2.854,5.539,5.882,5.882l.168-5.687a25.279,25.279,0,0,1-6.051-.2Z" transform="translate(-109.864 -58.097)" fill="#231f20"/>
  <ellipse id="椭圆_102" data-name="椭圆 102" cx="0.653" cy="1.144" rx="0.653" ry="1.144" transform="translate(73.502 19.517) rotate(-1.146)" fill="#231f20"/>
  <ellipse id="椭圆_103" data-name="椭圆 103" cx="0.653" cy="1.144" rx="0.653" ry="1.144" transform="translate(79.503 19.397) rotate(-1.146)" fill="#231f20"/>
  <path id="路径_9039" data-name="路径 9039" d="M182.8,74.76c-1.959,0-2.059-.135-2.147-.242s-.256-.337-.316-3.937a.337.337,0,0,1,.323-.337A67.973,67.973,0,0,1,187.5,70a.343.343,0,0,1,.236.343l-.269,3.991a.337.337,0,0,1-.323.31C185.092,74.706,183.712,74.76,182.8,74.76Zm-1.642-.727c.633.081,3.2.04,5.62-.054l.229-3.365c-.976,0-3.937.141-6.024.242A30.753,30.753,0,0,0,181.161,74.033Z" transform="translate(-110.13 -51.852)" fill="#231f20"/>
  <path id="路径_9040" data-name="路径 9040" d="M199.146,74.631H192.94a.33.33,0,0,1-.337-.33l-.034-4a.337.337,0,0,1,.33-.337c6.36-.061,6.549,0,6.616,0a.343.343,0,0,1,.236.343l-.269,3.991a.33.33,0,0,1-.337.33Zm-5.869-.673h5.559l.222-3.365h-5.815Z" transform="translate(-114.129 -51.838)" fill="#231f20"/>
  <path id="路径_9041" data-name="路径 9041" d="M192.158,73.2h-1.541a.337.337,0,0,1,0-.673h1.541a.337.337,0,0,1,0,.673Z" transform="translate(-113.38 -52.685)" fill="#231f20"/>
  <path id="路径_9042" data-name="路径 9042" d="M154.54,130.675s-1.851,18.293-.949,22.688l30.7,4.321s7.868-.31,11.657,1.043c2.322.828,6.535,4.455,5.775,5.593s-2.84,2.558-4.711,2.019-7.134-2.214-7.134-2.214,4.1,3.708,1.635,3.459a14.427,14.427,0,0,1-5.189-1.979s-17.055,3.237-27.971,2.692c-13.461-.673-19.188-3.863-20.709-11.825s.087-28.738,1.42-32" transform="translate(-95.966 -69.668)" fill="#fff"/>
  <path id="路径_9043" data-name="路径 9043" d="M160.859,168.528c-.936,0-1.844,0-2.692-.067-13.777-.713-19.471-3.991-21.019-12.114s.128-28.981,1.44-32.2a.335.335,0,1,1,.619.256c-1.285,3.17-2.907,23.886-1.4,31.814,1.474,7.726,7,10.856,20.393,11.549,10.768.552,27.729-2.632,27.9-2.692a.343.343,0,0,1,.242.047,14.415,14.415,0,0,0,5.041,1.925.775.775,0,0,0,.431,0c.074-.3-1.023-1.669-2.322-2.84a.337.337,0,0,1,.33-.572c.047,0,5.25,1.689,7.114,2.2,1.689.464,3.655-.828,4.368-1.9a.491.491,0,0,0,0-.377c-.437-1.346-3.628-4.038-5.6-4.711-3.688-1.346-11.441-1.023-11.529-1.023l-30.757-4.321a.337.337,0,0,1-.283-.269c-.9-4.395.868-22.042.942-22.789a.338.338,0,1,1,.673.067c0,.175-1.77,17.68-1,22.358l30.461,4.287c.262,0,7.915-.3,11.724,1.057,2.019.72,5.465,3.5,6.01,5.135a1.057,1.057,0,0,1-.067.956c-.848,1.272-3.089,2.739-5.108,2.181-1.272-.357-4.085-1.238-5.775-1.777.848.9,1.71,2.019,1.434,2.625-.148.33-.518.464-1.1.4a14.308,14.308,0,0,1-5.216-1.952C184.63,166.078,171.069,168.528,160.859,168.528Z" transform="translate(-95.804 -69.494)" fill="#231f20"/>
  <path id="路径_9044" data-name="路径 9044" d="M162.9,127.377h-.034a.343.343,0,0,1-.276-.39l2.4-13.353a.342.342,0,0,1,.673.121l-2.4,13.353A.343.343,0,0,1,162.9,127.377Z" transform="translate(-104.324 -66.032)" fill="#231f20"/>
  <path id="路径_9045" data-name="路径 9045" d="M235.5,171.968V123.462s41.889-1.609,59.227-18.952v50.134S277.389,168.777,235.5,171.968Z" transform="translate(-128.165 -63.141)" fill="#ff595e"/>
  <path id="路径_9046" data-name="路径 9046" d="M235.337,172.146a.357.357,0,0,1-.229-.087.35.35,0,0,1-.108-.249V123.3a.336.336,0,0,1,.323-.336c.417,0,41.957-1.8,58.984-18.845a.357.357,0,0,1,.37-.074.337.337,0,0,1,.209.316v50.12a.323.323,0,0,1-.128.262c-.168.141-17.882,14.241-59.395,17.425Zm.337-48.525v47.825c39.238-3.082,56.9-15.9,58.553-17.149V105.166C277.488,121.076,239.577,123.425,235.673,123.621Z" transform="translate(-128.002 -62.983)" fill="#231f20"/>
  <path id="路径_9047" data-name="路径 9047" d="M106.79,215.261V182s18.609,12.3,46.439,9.557V224.01S135,229.523,106.79,215.261Z" transform="translate(-86.081 -88.478)" fill="#fff"/>
  <path id="路径_9048" data-name="路径 9048" d="M143.36,225.182c-8.157,0-20.985-1.75-36.889-9.786a.35.35,0,0,1-.182-.3V181.833a.343.343,0,0,1,.175-.3.33.33,0,0,1,.343,0c.188.121,18.845,12.2,46.217,9.5a.343.343,0,0,1,.256.081.35.35,0,0,1,.108.249v32.453a.337.337,0,0,1-.236.323A37.924,37.924,0,0,1,143.36,225.182Zm-36.4-10.291c25.932,13.043,43.525,9.241,45.766,8.675V191.74c-24.862,2.335-42.549-7.4-45.766-9.321Z" transform="translate(-85.917 -88.311)" fill="#231f20"/>
  <path id="路径_9049" data-name="路径 9049" d="M249.837,173.743a.343.343,0,0,1-.229-.088.35.35,0,0,1-.108-.249V138.854a.337.337,0,0,1,.3-.337c2.16-.209,10.513-1.211,10.6-1.218a.343.343,0,0,1,.263.081.323.323,0,0,1,.114.249v33.894a.337.337,0,0,1-.209.31c-3.109,1.346-10.405,1.891-10.715,1.911Zm.337-34.587v33.887c1.494-.128,7.215-.673,9.934-1.743V138.012c-1.609.188-7.733.915-9.954,1.144Z" transform="translate(-132.743 -73.862)" fill="#231f20"/>
  <path id="路径_9050" data-name="路径 9050" d="M275.326,171.365a.33.33,0,0,1-.215-.081.357.357,0,0,1-.121-.256v-26.82a.336.336,0,0,1,.283-.33,54.867,54.867,0,0,0,10.533-3.008.33.33,0,0,1,.316,0,.344.344,0,0,1,.148.283V167.4a.336.336,0,0,1-.182.3,39.709,39.709,0,0,1-10.708,3.668Zm.337-26.874v26.134a39.572,39.572,0,0,0,9.934-3.432V141.685a55.632,55.632,0,0,1-9.927,2.807Z" transform="translate(-141.078 -75.017)" fill="#231f20"/>
  <path id="路径_9051" data-name="路径 9051" d="M300.1,165.662a.336.336,0,0,1-.209-.067.343.343,0,0,1-.128-.269V146.279a.336.336,0,0,1,.256-.323,31.53,31.53,0,0,0,9.422-4.1.343.343,0,0,1,.35,0,.337.337,0,0,1,.182.3v19.262a.337.337,0,0,1-.155.283,36.613,36.613,0,0,1-9.638,3.978Zm.337-19.121v18.354a36.049,36.049,0,0,0,8.864-3.682V142.752A33.058,33.058,0,0,1,300.433,146.541Z" transform="translate(-149.177 -75.337)" fill="#231f20"/>
  <path id="路径_9052" data-name="路径 9052" d="M295.136,126.685a.339.339,0,0,1-.081-.673,43.491,43.491,0,0,0,13.461-6.353.343.343,0,0,1,.471.067.337.337,0,0,1-.067.471,44.3,44.3,0,0,1-13.71,6.468Z" transform="translate(-147.541 -68.073)" fill="#fff"/>
  <path id="路径_9053" data-name="路径 9053" d="M303.73,130.329a.343.343,0,0,1-.135-.673l1.178-.525a25.366,25.366,0,0,0,6.542-3.708.337.337,0,0,1,.431.511,26.31,26.31,0,0,1-6.7,3.816l-1.178.518A.364.364,0,0,1,303.73,130.329Z" transform="translate(-150.341 -69.961)" fill="#fff"/>
  <path id="路径_9054" data-name="路径 9054" d="M87.975,162.282a.363.363,0,0,1-.188-.054,38.706,38.706,0,0,1-8.817-8.554.337.337,0,0,1,.074-.464.343.343,0,0,1,.471.074,37.972,37.972,0,0,0,8.642,8.379.343.343,0,0,1,.094.471A.337.337,0,0,1,87.975,162.282Z" transform="translate(-76.964 -79.044)" fill="#d1d3d4"/>
  <path id="路径_9055" data-name="路径 9055" d="M87.975,171.472a.364.364,0,0,1-.188-.054,38.705,38.705,0,0,1-8.817-8.554.336.336,0,0,1,.074-.464.343.343,0,0,1,.471.074,37.973,37.973,0,0,0,8.642,8.386.343.343,0,0,1,.094.471A.337.337,0,0,1,87.975,171.472Z" transform="translate(-76.964 -82.049)" fill="#d1d3d4"/>
  <path id="路径_9056" data-name="路径 9056" d="M87.975,180.662a.363.363,0,0,1-.188-.054,38.705,38.705,0,0,1-8.817-8.554.337.337,0,0,1,.074-.464.343.343,0,0,1,.471.074,37.973,37.973,0,0,0,8.628,8.379.343.343,0,0,1,.094.471A.337.337,0,0,1,87.975,180.662Z" transform="translate(-76.964 -85.054)" fill="#d1d3d4"/>
  <path id="路径_9057" data-name="路径 9057" d="M266.7,102.711a.323.323,0,0,1-.256-.114c-7.08-8.137-20.817-16.429-20.951-16.509a.343.343,0,0,1-.162-.289V63.837a.337.337,0,0,1,.337-.337.343.343,0,0,1,.336.337V85.609c1.582.969,14.214,8.81,20.951,16.55a.337.337,0,0,1,0,.471A.363.363,0,0,1,266.7,102.711Z" transform="translate(-131.38 -49.732)" fill="#231f20"/>
  <path id="路径_9058" data-name="路径 9058" d="M260.215,95.185a1.467,1.467,0,0,1-.673-.162c-1.2-.6-1.534-2.786-1.891-5.1a14.281,14.281,0,0,0-1.117-4.429.673.673,0,0,0-.6-.411c-1.871-.067-5.795,5.041-7.161,7.013a.337.337,0,0,1-.552-.377c.518-.754,5.128-7.309,7.679-7.309h.061a1.346,1.346,0,0,1,1.158.74,14.287,14.287,0,0,1,1.2,4.664c.316,2.019.639,4.153,1.528,4.6a1.286,1.286,0,0,0,1.191-.162,13.327,13.327,0,0,0,3.782-3.123,15.863,15.863,0,0,1,4.28-3.54.337.337,0,0,1,.458.128.343.343,0,0,1-.135.458,15.291,15.291,0,0,0-4.105,3.412,14.194,14.194,0,0,1-3.964,3.264,2.464,2.464,0,0,1-1.137.33Z" transform="translate(-132.313 -56.569)" fill="#231f20"/>
  <path id="路径_9059" data-name="路径 9059" d="M137.747,100.81a.337.337,0,0,1-.337-.337v-19a.337.337,0,0,1,.236-.323,24.68,24.68,0,0,1,3.91-.882.3.3,0,0,1,.256.087.316.316,0,0,1,.114.249V99.221a.343.343,0,0,1-.337.337.336.336,0,0,1-.337-.337V80.982a24.661,24.661,0,0,0-3.17.74v18.751A.336.336,0,0,1,137.747,100.81Z" transform="translate(-96.093 -55.214)" fill="#231f20"/>
  <path id="路径_9060" data-name="路径 9060" d="M144.776,226.277h0a.343.343,0,0,1-.3-.222l-7.4-20.648-8.157,15.883a.35.35,0,0,1-.269.182.33.33,0,0,1-.3-.135l-8.076-10.56-5.1,8.1a.343.343,0,0,1-.458.114l-4.341-2.618a.33.33,0,0,1-.114-.458.337.337,0,0,1,.464-.114l4.038,2.436,5.149-8.251a.35.35,0,0,1,.269-.162.323.323,0,0,1,.283.135l8.076,10.526,8.278-16.1a.336.336,0,0,1,.612.04l7.4,20.615,3.56-7.538a.337.337,0,1,1,.606.289l-3.93,8.3A.35.35,0,0,1,144.776,226.277Z" transform="translate(-87.198 -95.739)" fill="#d1d3d4"/>
  <circle id="椭圆_104" data-name="椭圆 104" cx="1.03" cy="1.03" r="1.03" transform="translate(26.659 121.937)" fill="#fff"/>
  <path id="路径_9061" data-name="路径 9061" d="M116.506,226.472a1.346,1.346,0,1,1,1.346-1.346A1.346,1.346,0,0,1,116.506,226.472Zm0-2.059a.673.673,0,1,0,.673.673A.673.673,0,0,0,116.506,224.413Z" transform="translate(-88.818 -102.139)" fill="#d1d3d4"/>
  <circle id="椭圆_105" data-name="椭圆 105" cx="1.03" cy="1.03" r="1.03" transform="translate(31.982 113.416)" fill="#fff"/>
  <path id="路径_9062" data-name="路径 9062" d="M124.416,213.812a1.346,1.346,0,1,1,1.346-1.346A1.346,1.346,0,0,1,124.416,213.812Zm0-2.059a.673.673,0,1,0,.673.673A.673.673,0,0,0,124.416,211.753Z" transform="translate(-91.404 -98)" fill="#d1d3d4"/>
  <circle id="椭圆_106" data-name="椭圆 106" cx="1.03" cy="1.03" r="1.03" transform="translate(48.875 107.797)" fill="#fff"/>
  <path id="路径_9063" data-name="路径 9063" d="M149.516,205.462a1.346,1.346,0,1,1,1.346-1.346A1.346,1.346,0,0,1,149.516,205.462Zm0-2.059a.673.673,0,1,0,.673.673A.673.673,0,0,0,149.516,203.4Z" transform="translate(-99.611 -95.269)" fill="#d1d3d4"/>
  <circle id="椭圆_107" data-name="椭圆 107" cx="1.03" cy="1.03" r="1.03" transform="translate(56.548 129.172)" fill="#fff"/>
  <path id="路径_9064" data-name="路径 9064" d="M160.916,237.222a1.346,1.346,0,1,1,1.346-1.346A1.346,1.346,0,0,1,160.916,237.222Zm0-2.059a.693.693,0,1,0,.693.693A.693.693,0,0,0,160.916,235.163Z" transform="translate(-103.338 -105.654)" fill="#d1d3d4"/>
  <circle id="椭圆_108" data-name="椭圆 108" cx="1.03" cy="1.03" r="1.03" transform="translate(40.355 124.367)" fill="#fff"/>
  <path id="路径_9065" data-name="路径 9065" d="M136.856,230.082a1.346,1.346,0,1,1,1.346-1.346A1.346,1.346,0,0,1,136.856,230.082Zm0-2.059a.673.673,0,1,0,.673.673A.673.673,0,0,0,136.856,228.023Z" transform="translate(-95.472 -103.319)" fill="#d1d3d4"/>
  <path id="路径_9066" data-name="路径 9066" d="M228.745,213.46C215,220.264,200,220.379,200,220.379v22.015a60.511,60.511,0,0,0,28.745-6.246Z" transform="translate(-116.558 -98.765)" fill="#fff"/>
  <path id="路径_9067" data-name="路径 9067" d="M201.607,242.6H199.83a.343.343,0,0,1-.33-.337V220.212a.337.337,0,0,1,.337-.336c.148,0,15.076-.2,28.6-6.885a.357.357,0,0,1,.33,0,.337.337,0,0,1,.155.283v22.688a.33.33,0,0,1-.182.3A60.855,60.855,0,0,1,201.607,242.6Zm-1.434-.673a60.257,60.257,0,0,0,28.072-6.118V213.832c-12.4,5.983-25.8,6.636-28.072,6.73Z" transform="translate(-116.394 -98.598)" fill="#231f20"/>
  <path id="路径_9068" data-name="路径 9068" d="M210,233.58a8.117,8.117,0,1,0,16.227,0h-8.15v-8.11A8.117,8.117,0,0,0,210,233.58Z" transform="translate(-119.826 -102.692)" fill="#ff595e"/>
  <path id="路径_9069" data-name="路径 9069" d="M224,223.69v8.117h8.076A8.117,8.117,0,0,0,224,223.69Z" transform="translate(-124.405 -102.11)" fill="#e6e7e8"/>
  <path id="路径_9070" data-name="路径 9070" d="M262.837,210.232a.33.33,0,0,1-.33-.276.343.343,0,0,1,.269-.4c.161,0,15.971-2.961,24.976-7.989a.336.336,0,1,1,.323.586c-9.1,5.081-25.016,8.043-25.178,8.076Z" transform="translate(-136.994 -94.857)" fill="#d1d3d4"/>
  <path id="路径_9071" data-name="路径 9071" d="M262.821,219.088a.338.338,0,1,1-.061-.673c.162-.034,15.971-2.968,24.976-8a.337.337,0,1,1,.323.586c-9.1,5.088-25.016,8.043-25.178,8.076Z" transform="translate(-136.978 -97.75)" fill="#d1d3d4"/>
  <path id="路径_9072" data-name="路径 9072" d="M262.821,227.959a.338.338,0,1,1-.061-.673c.162,0,15.971-2.968,24.976-8a.343.343,0,0,1,.458.128.337.337,0,0,1-.135.458c-9.1,5.088-25.016,8.043-25.178,8.076Z" transform="translate(-136.978 -100.658)" fill="#d1d3d4"/>
  <path id="路径_9073" data-name="路径 9073" d="M262.821,239.065a.338.338,0,1,1-.061-.673,132.248,132.248,0,0,0,13.615-3.4.343.343,0,0,1,.424.222.336.336,0,0,1-.222.417,132.793,132.793,0,0,1-13.7,3.4Z" transform="translate(-136.978 -105.801)" fill="#d1d3d4"/>
  <path id="路径_9074" data-name="路径 9074" d="M110.547,135.677a.33.33,0,0,1-.289-.162.343.343,0,0,1,.121-.464c4.563-2.692,13.891-4.664,14.288-4.745a.33.33,0,0,1,.4.256.336.336,0,0,1-.256.4c-.1,0-9.624,2.019-14.093,4.671a.384.384,0,0,1-.168.04Z" transform="translate(-87.2 -71.573)" fill="#d1d3d4"/>
  <path id="路径_9075" data-name="路径 9075" d="M110.548,140.713a.337.337,0,0,1-.168-.626c4.563-2.692,13.891-4.664,14.288-4.711a.344.344,0,1,1,.141.673c-.1,0-9.624,2.019-14.093,4.671A.316.316,0,0,1,110.548,140.713Z" transform="translate(-87.201 -73.231)" fill="#d1d3d4"/>
  <path id="路径_9076" data-name="路径 9076" d="M110.547,145.731a.337.337,0,0,1-.289-.168.343.343,0,0,1,.121-.464c4.563-2.692,13.891-4.664,14.288-4.711a.343.343,0,0,1,.4.262.33.33,0,0,1-.256.4c-.1,0-9.624,2.019-14.093,4.671a.4.4,0,0,1-.168.013Z" transform="translate(-87.2 -74.87)" fill="#d1d3d4"/>
  <path id="路径_9077" data-name="路径 9077" d="M110.548,151.437a.337.337,0,0,1-.168-.626,39.156,39.156,0,0,1,8.44-3.278.349.349,0,0,1,.188.673,38.952,38.952,0,0,0-8.265,3.183A.316.316,0,0,1,110.548,151.437Z" transform="translate(-87.201 -77.204)" fill="#d1d3d4"/>
</svg>
