<svg id="会议交谈" xmlns="http://www.w3.org/2000/svg" width="227.357" height="157.051" viewBox="0 0 227.357 157.051">
  <path id="路径_9192" data-name="路径 9192" d="M150.281,175.3s-2.8-2.78-3.062-3.56-.8-5.976-1.871-5.31-.841,4.839-.841,4.839-3.937-5.963-5.014-5.384-2.692,3.634-2.537,4.711,7.195,8.931,9.6,10.392Z" transform="translate(-65.701 -76.651)" fill="#fff"/>
  <path id="路径_9193" data-name="路径 9193" d="M146.389,181.12a.323.323,0,0,1-.175-.047c-2.3-1.407-9.6-9.362-9.759-10.634s1.575-4.442,2.692-5.041c1.023-.532,3.237,2.295,4.805,4.563,0-1.38.175-3.459,1.03-3.991a.673.673,0,0,1,.626-.054c.727.33,1.1,2.093,1.5,4.361a10.721,10.721,0,0,0,.236,1.185,21.25,21.25,0,0,0,2.982,3.426.337.337,0,0,1,.047.424l-3.735,5.66a.316.316,0,0,1-.249.148Zm-6.878-15.13h0c-.962.5-2.47,3.48-2.362,4.354s6.555,8.137,9.173,9.968l3.365-5.149a19.145,19.145,0,0,1-2.955-3.493,11.168,11.168,0,0,1-.262-1.279c-.161-.915-.673-3.695-1.11-3.863-.612.4-.767,2.894-.673,4.55a.337.337,0,0,1-.619.2C142.2,168.413,140.083,165.991,139.51,165.991Z" transform="translate(-65.538 -76.485)" fill="#231f20"/>
  <path id="路径_9194" data-name="路径 9194" d="M183.416,152.46s-18.979,25.265-21.672,22.695-9.422-6.8-9.422-6.8l-5.512,7.659s16.469,15.345,22.008,13.158,21.5-22.95,21.5-22.95Z" transform="translate(-68.927 -72.275)" fill="#ff595e"/>
  <path id="路径_9195" data-name="路径 9195" d="M175.774,169.049a26.287,26.287,0,0,1-4.233-2.786c-1.8-1.743-2.981-4.348-4.664-6.273a1.44,1.44,0,0,0-.511,1.44,5.424,5.424,0,0,0,.612,1.494,12.453,12.453,0,0,1,1.1,3.19,39.122,39.122,0,0,0-9.658-1.521,3.19,3.19,0,0,0,.464,2.887,9.509,9.509,0,0,0,2.174,2.107,18.567,18.567,0,0,0,3.2,2.16c2.558,1.265,5.6,1.346,7.74,3.365.969.922,2.793,1.817,3.8.673C176.218,175.3,175.982,169.184,175.774,169.049Z" transform="translate(-72.672 -74.738)" fill="#fff"/>
  <path id="路径_9196" data-name="路径 9196" d="M174.4,176.481a4.489,4.489,0,0,1-2.793-1.3,10.781,10.781,0,0,0-4.6-2.208,19.259,19.259,0,0,1-3.049-1.1,18.846,18.846,0,0,1-3.264-2.2,9.6,9.6,0,0,1-2.248-2.181,3.513,3.513,0,0,1-.491-3.2.35.35,0,0,1,.323-.209,39.345,39.345,0,0,1,9.194,1.346,11.938,11.938,0,0,0-.956-2.557l-.1-.209a4.611,4.611,0,0,1-.538-1.386,1.737,1.737,0,0,1,.673-1.777.336.336,0,0,1,.438.061,25.853,25.853,0,0,1,2.066,2.867,19.846,19.846,0,0,0,2.578,3.365,15.639,15.639,0,0,0,2.981,2.019c.411.242.821.478,1.191.713h0c.155.094.2.269.229.512.128.841.4,6.111-.121,6.73a1.885,1.885,0,0,1-1.346.673Zm-15.9-11.724a2.961,2.961,0,0,0,.5,2.356,9.131,9.131,0,0,0,2.107,2.019,18.727,18.727,0,0,0,3.143,2.127,18.981,18.981,0,0,0,2.948,1.057,11.4,11.4,0,0,1,4.873,2.369,3.782,3.782,0,0,0,2.409,1.11,1.238,1.238,0,0,0,.909-.437,29.328,29.328,0,0,0-.054-6.273c-.343-.215-.707-.424-1.084-.673a16.212,16.212,0,0,1-3.109-2.127,19.923,19.923,0,0,1-2.692-3.5,27.421,27.421,0,0,0-1.79-2.524,1.292,1.292,0,0,0-.155.9,4.347,4.347,0,0,0,.471,1.185l.114.209a12.867,12.867,0,0,1,1.131,3.278.33.33,0,0,1-.1.316.323.323,0,0,1-.316.074A38.456,38.456,0,0,0,158.5,164.757Z" transform="translate(-72.508 -74.557)" fill="#231f20"/>
  <path id="路径_9197" data-name="路径 9197" d="M226.5,91.728a8.844,8.844,0,0,1,7.127,6.36c.673,2.611.229,5.707,2.019,7.726a4.947,4.947,0,0,0,4.361,1.494,6.589,6.589,0,0,0,4.038-2.389,8.366,8.366,0,0,1-3.85,8.426,10.264,10.264,0,0,1-8.352.673,19.518,19.518,0,0,1-7.215-4.637,18.751,18.751,0,0,1-6.131-11.7C217.968,93.309,222.652,91.169,226.5,91.728Z" transform="translate(-92.354 -52.389)" fill="#fff"/>
  <path id="路径_9198" data-name="路径 9198" d="M235.3,114.739a11.98,11.98,0,0,1-3.729-.612,19.828,19.828,0,0,1-7.343-4.711A19.121,19.121,0,0,1,218,97.5a5,5,0,0,1,1.494-4.328,8.413,8.413,0,0,1,6.9-1.979h0a9.207,9.207,0,0,1,7.4,6.609,19.354,19.354,0,0,1,.437,2.786c.2,1.824.384,3.547,1.508,4.805a4.63,4.63,0,0,0,4.038,1.346,6.253,6.253,0,0,0,3.83-2.268.33.33,0,0,1,.343-.108.323.323,0,0,1,.242.262,8.642,8.642,0,0,1-4.038,8.749,9.584,9.584,0,0,1-4.853,1.36ZM225.116,91.8a7.558,7.558,0,0,0-5.155,1.878,4.334,4.334,0,0,0-1.292,3.762,18.4,18.4,0,0,0,6.044,11.5,19.276,19.276,0,0,0,7.08,4.55,9.981,9.981,0,0,0,8.076-.612,8.076,8.076,0,0,0,3.782-7.37,6.8,6.8,0,0,1-3.749,1.952,5.276,5.276,0,0,1-4.664-1.6c-1.265-1.427-1.474-3.365-1.669-5.189a19.59,19.59,0,0,0-.424-2.692,8.251,8.251,0,0,0-8.009-6.192Z" transform="translate(-92.186 -52.208)" fill="#231f20"/>
  <path id="路径_9199" data-name="路径 9199" d="M220.588,100.431a7.289,7.289,0,0,0-3.365-2.692,6.111,6.111,0,0,0-3.21-.067,2.773,2.773,0,0,0-1.911,1.158,3,3,0,0,0,.047,2.383c.888,2.652,3.984,8.608,7.4,8.46C224.323,109.5,222.217,102.544,220.588,100.431Z" transform="translate(-90.202 -54.301)" fill="#231f20"/>
  <path id="路径_9200" data-name="路径 9200" d="M219.283,109.895c-3.527,0-6.623-5.828-7.578-8.7a3.3,3.3,0,0,1,0-2.652,3.015,3.015,0,0,1,2.134-1.346,6.515,6.515,0,0,1,3.365.081,7.4,7.4,0,0,1,3.5,2.766h0c1.164,1.521,2.692,5.64,1.582,8.076a3.069,3.069,0,0,1-2.86,1.736Zm-3.836-12.215a6.83,6.83,0,0,0-1.487.175,2.436,2.436,0,0,0-1.7.989,2.74,2.74,0,0,0,.081,2.12c.882,2.632,3.863,8.372,7.047,8.224a2.376,2.376,0,0,0,2.282-1.346c.976-2.08-.417-5.97-1.5-7.4h0A6.825,6.825,0,0,0,217,97.9,4.974,4.974,0,0,0,215.447,97.679Z" transform="translate(-90.055 -54.148)" fill="#231f20"/>
  <path id="路径_9201" data-name="路径 9201" d="M233.039,225.338l3.5,20.312-37.474-2.786-.5-24.673Z" transform="translate(-85.848 -93.767)" fill="#231f20"/>
  <path id="路径_9202" data-name="路径 9202" d="M236.4,245.823h0l-37.481-2.786a.33.33,0,0,1-.31-.33l-.5-24.673a.37.37,0,0,1,.121-.269.357.357,0,0,1,.283-.067l34.479,7.148a.33.33,0,0,1,.262.269l3.506,20.319a.336.336,0,0,1-.336.39Zm-37.144-3.432,36.741,2.732-3.365-19.666-33.833-7.013Z" transform="translate(-85.698 -93.604)" fill="#231f20"/>
  <path id="路径_9203" data-name="路径 9203" d="M216.731,147.47s8.635,4.072,13.528,15.8c2.6,6.239,3.466,41.129,3.466,41.129s-25.292,5.64-37.373-1.057c0,0,.451-16.267-.841-27.325-.673-5.647-.814-17.62,1.918-22.8C201.123,146.225,210.021,147.827,216.731,147.47Z" transform="translate(-84.716 -70.644)" fill="#ff595e"/>
  <path id="路径_9204" data-name="路径 9204" d="M196.3,191.235a.337.337,0,0,1-.337-.323c0-.162-.518-16.045-1.036-20.191-.532-4.267,2.019-10.715,2.113-10.984a.337.337,0,0,1,.437-.188.343.343,0,0,1,.188.438c0,.061-2.584,6.555-2.073,10.654s1.036,20.11,1.043,20.265a.337.337,0,0,1-.323.35Z" transform="translate(-84.635 -74.585)" fill="#231f20"/>
  <path id="路径_9205" data-name="路径 9205" d="M213.82,103.723c-.242-.411-.485-.808-.734-1.191-2.275-3.533-6.488-3.944-10.169-2.537-.734.283-1.521.754-1.629,1.535a3.981,3.981,0,0,0-4.408,1.218c-3.587,3.856-3.473,9.974-2.268,14.739a8.615,8.615,0,0,0,1.3,3.116,7.309,7.309,0,0,0,2.544,2.019c6.69,3.466,16.624.761,18.172-7.4C217.313,111.388,215.785,107.155,213.82,103.723Z" transform="translate(-84.309 -54.874)" fill="#fff"/>
  <path id="路径_9206" data-name="路径 9206" d="M204.548,124.234a14.033,14.033,0,0,1-6.414-1.508,7.443,7.443,0,0,1-2.692-2.086A8.9,8.9,0,0,1,194.1,117.4c-.754-2.961-2.019-10.365,2.342-15.049a4.525,4.525,0,0,1,4.435-1.434,2.84,2.84,0,0,1,1.73-1.407c3.432-1.306,8.016-1.3,10.573,2.692.256.39.5.794.74,1.211h0c1.413,2.443,3.661,7.215,2.82,11.711a10.681,10.681,0,0,1-6.057,7.747A14.134,14.134,0,0,1,204.548,124.234Zm-4.711-22.8a4.233,4.233,0,0,0-2.914,1.38c-4.139,4.449-2.908,11.569-2.181,14.43a8.076,8.076,0,0,0,1.238,2.995,6.838,6.838,0,0,0,2.43,1.9,13.8,13.8,0,0,0,11.993.114,10.1,10.1,0,0,0,5.667-7.269c.8-4.28-1.346-8.891-2.739-11.253-.236-.4-.478-.8-.727-1.178-2.335-3.628-6.576-3.621-9.766-2.4-.6.229-1.346.633-1.42,1.265a.317.317,0,0,1-.168.242.323.323,0,0,1-.3,0,2.692,2.692,0,0,0-1.11-.222Z" transform="translate(-84.137 -54.71)" fill="#231f20"/>
  <path id="路径_9207" data-name="路径 9207" d="M204.461,127.968l.545,6.629s1.945,1.487,6.192.034,4.429-2.584,4.429-2.584l-1.2-12.242c-.054-.525-2.086-2.228-2.5-2.591a17.6,17.6,0,0,0-3.8-2.51,15.587,15.587,0,0,1-1.851-.969A5.337,5.337,0,0,1,204,109.11a5.2,5.2,0,0,1-1.346,4.038c-.673.734-1.6,1.259-2.234,2.019-1.151,1.44-.673,2.692-.518,4.314.222,1.844-.04,3.668.37,5.519C200.948,128.271,204.4,127.928,204.461,127.968Z" transform="translate(-86.21 -58.101)" fill="#fff"/>
  <path id="路径_9208" data-name="路径 9208" d="M207.559,135.453a5.041,5.041,0,0,1-2.941-.74.33.33,0,0,1-.135-.242l-.518-6.326c-2.3-.074-3.8-1.2-4.247-3.19a15.614,15.614,0,0,1-.269-3.278,21.6,21.6,0,0,0-.1-2.275q-.054-.363-.1-.673a4.422,4.422,0,0,1,.673-3.863,8.371,8.371,0,0,1,1.285-1.211,9.294,9.294,0,0,0,.969-.861,4.88,4.88,0,0,0,1.306-3.022,5.483,5.483,0,0,1,0-.814.336.336,0,0,1,.33-.316h0a.337.337,0,0,1,.337.3,5.47,5.47,0,0,1,0,.814,4.974,4.974,0,0,0,2.113,3.56,9.9,9.9,0,0,0,1.346.74l.437.209a18.17,18.17,0,0,1,3.863,2.558l.128.114c2.019,1.723,2.457,2.329,2.5,2.692l1.2,12.256v.081c-.04.222-.431,1.407-4.651,2.854A11.032,11.032,0,0,1,207.559,135.453Zm-2.416-1.2c.464.262,2.329,1.09,5.761-.087s4.1-2.127,4.193-2.315c-.1-1.03-1.185-12.115-1.191-12.175s-.31-.586-2.261-2.261l-.128-.108a17.1,17.1,0,0,0-3.722-2.463l-.431-.209a10.613,10.613,0,0,1-1.46-.787,5.573,5.573,0,0,1-2.019-2.578,5.559,5.559,0,0,1-1.185,1.959,10.9,10.9,0,0,1-1.03.915,7.889,7.889,0,0,0-1.191,1.117c-.882,1.1-.734,2.093-.545,3.365q.054.35.1.727a21.477,21.477,0,0,1,.108,2.349,14.732,14.732,0,0,0,.256,3.136c.384,1.73,1.689,2.652,3.782,2.692a.464.464,0,0,1,.3.061.316.316,0,0,1,.148.249Z" transform="translate(-86.024 -57.948)" fill="#231f20"/>
  <path id="路径_9209" data-name="路径 9209" d="M217.78,123.656a2.854,2.854,0,0,1,.821-1.6,4.941,4.941,0,0,1,1.454-.909,2.019,2.019,0,0,1,.9-.256,1.764,1.764,0,0,1,.639.168,2.215,2.215,0,0,1,1.151,1,2.625,2.625,0,0,1,.168,1.232,5.067,5.067,0,0,1-.209,1.346,3.463,3.463,0,0,1-4.388,2.214" transform="translate(-92.132 -61.953)" fill="#fff"/>
  <path id="路径_9210" data-name="路径 9210" d="M219.257,127.225a3.856,3.856,0,0,1-1.2-.2.337.337,0,1,1,.215-.639,3.116,3.116,0,0,0,3.957-2.019,4.543,4.543,0,0,0,.2-1.265,2.3,2.3,0,0,0-.135-1.077,1.918,1.918,0,0,0-.983-.835,1.6,1.6,0,0,0-.511-.141,1.938,1.938,0,0,0-.754.222,4.643,4.643,0,0,0-1.346.841,2.524,2.524,0,0,0-.72,1.42.34.34,0,0,1-.673-.1,3.17,3.17,0,0,1,.915-1.8,5.45,5.45,0,0,1,1.548-.976,2.489,2.489,0,0,1,1.05-.283,2.067,2.067,0,0,1,.767.2,2.531,2.531,0,0,1,1.346,1.164,2.935,2.935,0,0,1,.2,1.4,5.385,5.385,0,0,1-.222,1.44,3.776,3.776,0,0,1-3.614,2.632Z" transform="translate(-91.974 -61.786)" fill="#231f20"/>
  <path id="路径_9211" data-name="路径 9211" d="M207.118,120.93s-2.086,3.54-1.508,4.1,2.073.081,2.073.081" transform="translate(-88.12 -61.966)" fill="#fff"/>
  <path id="路径_9212" data-name="路径 9212" d="M206.356,125.492a1.6,1.6,0,0,1-1.137-.37c-.633-.612.444-2.793,1.454-4.509a.337.337,0,0,1,.579.337c-.976,1.662-1.7,3.365-1.548,3.708.31.3,1.292.121,1.723,0a.336.336,0,0,1,.424.215.343.343,0,0,1-.222.424A4.5,4.5,0,0,1,206.356,125.492Z" transform="translate(-87.963 -61.817)" fill="#231f20"/>
  <ellipse id="椭圆_119" data-name="椭圆 119" cx="0.565" cy="0.794" rx="0.565" ry="0.794" transform="matrix(0.99, -0.143, 0.143, 0.99, 121.136, 57.224)" fill="#231f20"/>
  <ellipse id="椭圆_120" data-name="椭圆 120" cx="0.565" cy="0.794" rx="0.565" ry="0.794" transform="translate(115.961 57.691) rotate(-0.66)" fill="#231f20"/>
  <path id="路径_9213" data-name="路径 9213" d="M206.79,136.659s4.206.619,6.522-.969c0,0-2.234,5.775-6.145,5.512Z" transform="translate(-88.539 -66.792)" fill="#231f20"/>
  <path id="路径_9214" data-name="路径 9214" d="M207.268,141.391h-.289a.33.33,0,0,1-.31-.31l-.37-4.543a.31.31,0,0,1,.1-.269.356.356,0,0,1,.283-.087c.04,0,4.1.579,6.279-.915a.323.323,0,0,1,.4,0,.343.343,0,0,1,.108.384C213.372,135.893,211.2,141.391,207.268,141.391ZM207,136.882l.316,3.83c2.558-.04,4.348-2.907,5.108-4.408A12.175,12.175,0,0,1,207,136.882Z" transform="translate(-88.378 -66.631)" fill="#231f20"/>
  <path id="路径_9215" data-name="路径 9215" d="M202.916,145.565l-.646,3.015,16.806-2.719-1.3-3.311Z" transform="translate(-87.061 -69.035)" fill="#fff"/>
  <path id="路径_9216" data-name="路径 9216" d="M202.106,148.743a.323.323,0,0,1-.242-.1.337.337,0,0,1-.088-.3l.673-3.022a.35.35,0,0,1,.262-.256l14.86-3.015a.343.343,0,0,1,.384.2l1.3,3.318a.35.35,0,0,1-.262.458l-16.826,2.692Zm.929-3.069-.5,2.322,15.91-2.571-1.043-2.692Z" transform="translate(-86.897 -68.868)" fill="#231f20"/>
  <path id="路径_9217" data-name="路径 9217" d="M205.8,132.963a1.036,1.036,0,0,1-.37-.074c-1.467-.572-.841-3.251-.761-3.554a.33.33,0,0,1,.343-.256c2.766.128,2.793.188,2.887.424a6.284,6.284,0,0,1-1.245,3.049A1.211,1.211,0,0,1,205.8,132.963Zm-.538-3.2c-.148.767-.276,2.228.411,2.5a.35.35,0,0,0,.33-.047,4.808,4.808,0,0,0,1.2-2.322C206.8,129.854,206.018,129.807,205.264,129.766Z" transform="translate(-87.781 -64.63)" fill="#231f20"/>
  <path id="路径_9218" data-name="路径 9218" d="M216.655,169.41s-6.69,9.934-7.989,11.906-27.978-11.691-27.978-11.691L176.65,178.6s37.9,25.286,39.776,20.864,5.768-22.21,5.768-22.21" transform="translate(-78.684 -77.818)" fill="#ff595e"/>
  <path id="路径_9219" data-name="路径 9219" d="M209.046,178.773c-4.247,0-20.77-8.245-22.735-9.234a.336.336,0,1,1,.3-.6c8.076,4.038,20.763,9.813,22.8,9.12,2.275-.781,7.275-11.334,9.005-15.338a.338.338,0,1,1,.619.269c-.673,1.5-6.434,14.685-9.422,15.7a1.852,1.852,0,0,1-.572.081Z" transform="translate(-81.783 -75.564)" fill="#231f20"/>
  <path id="路径_9220" data-name="路径 9220" d="M209.676,200.554c-8.749,0-31.4-16.442-32.433-17.2a.337.337,0,0,1,.4-.545c.269.2,26.968,19.592,33.53,16.826,2.248-.949,9.914-13.09,12.68-17.687a.337.337,0,0,1,.458-.114.33.33,0,0,1,.114.464c-.411.673-10.1,16.731-12.989,17.956A4.508,4.508,0,0,1,209.676,200.554Z" transform="translate(-78.832 -81.866)" fill="#231f20"/>
  <path id="路径_9221" data-name="路径 9221" d="M147.8,178.1a.336.336,0,0,1-.31-.209,5.048,5.048,0,0,1,0-4.341.337.337,0,1,1,.565.363,4.22,4.22,0,0,0,0,3.715.336.336,0,0,1-.182.444.289.289,0,0,1-.074.027Z" transform="translate(-68.992 -79.115)" fill="#231f20"/>
  <path id="路径_9222" data-name="路径 9222" d="M66.426,149.45H50.509A12.909,12.909,0,0,0,37.8,164.627L49.2,227.932H91.349L79.133,160.077A12.915,12.915,0,0,0,66.426,149.45Z" transform="translate(-33.219 -71.291)" fill="#fff"/>
  <path id="路径_9223" data-name="路径 9223" d="M91.185,228.141H49.033a.336.336,0,0,1-.337-.276L37.3,164.56A13.259,13.259,0,0,1,50.345,149H66.263A13.238,13.238,0,0,1,79.3,159.9l12.249,67.841a.336.336,0,0,1-.33.4Zm-41.876-.673H90.781L78.666,159.991a12.559,12.559,0,0,0-12.4-10.318H50.345A12.572,12.572,0,0,0,37.968,164.48Z" transform="translate(-33.055 -71.144)" fill="#231f20"/>
  <path id="路径_9224" data-name="路径 9224" d="M119.528,207.365s1.265,17.613,2.537,18.037,14.181,1.7,14.181,1.7l-1.346,6.771s-24.9,1.272-26.147-3.278S106,204,106,204Z" transform="translate(-55.583 -89.128)" fill="#fff"/>
  <path id="路径_9225" data-name="路径 9225" d="M127.114,234.193c-7.565,0-18.01-.572-18.885-3.708-1.265-4.536-2.692-25.737-2.759-26.638a.31.31,0,0,1,.114-.276.343.343,0,0,1,.3-.074l13.555,3.365a.323.323,0,0,1,.249.3c.6,8.245,1.635,17.142,2.349,17.754.976.323,10.493,1.306,14.073,1.662a.33.33,0,0,1,.242.135.343.343,0,0,1,.054.269l-1.346,6.771a.343.343,0,0,1-.31.269C133.864,234.052,130.836,234.193,127.114,234.193Zm-20.945-29.93c.222,3.19,1.561,21.934,2.692,26.039.976,3.48,18.515,3.365,25.575,3.049l1.245-6.151c-2.167-.215-12.7-1.279-13.885-1.676s-2.261-11.394-2.753-18.084Z" transform="translate(-55.409 -88.96)" fill="#231f20"/>
  <path id="路径_9226" data-name="路径 9226" d="M106.405,170.89c.182.437,7.935,4.227,11.441,13.757s3.655,14.766,3.655,14.766H101.64Z" transform="translate(-54.158 -78.302)" fill="#ff595e"/>
  <path id="路径_9227" data-name="路径 9227" d="M79.242,168.5s-7.275,2.059-8.749,5.445S72.02,222.9,72.02,222.9l34.082,1.057s-5.29-21.806-3.6-27.52.215-17.357-.424-20.534-6.986-6.138-9.1-7.4S79.242,168.5,79.242,168.5Z" transform="translate(-43.84 -77.336)" fill="#ff595e"/>
  <path id="路径_9228" data-name="路径 9228" d="M100.018,227.417h-.054a.337.337,0,0,1-.276-.384c4.516-27.843,2.181-47.617,2.154-47.785a.336.336,0,0,1,.3-.37.323.323,0,0,1,.37.289c0,.2,2.376,20.056-2.154,48a.343.343,0,0,1-.337.249Z" transform="translate(-53.518 -80.912)" fill="#231f20"/>
  <path id="路径_9229" data-name="路径 9229" d="M85.693,142.219a5.448,5.448,0,0,1-.269-.673c-.33-.848-1-1.346-1.407-2.174-.774-1.5-.5-2.934-.579-4.536a11.731,11.731,0,0,1,1.137-5.822,4.354,4.354,0,0,1,1.615-1.959,2.019,2.019,0,0,1,2.376.182,2.315,2.315,0,0,1,.464-2.463,5.7,5.7,0,0,1,2.228-1.4,10.917,10.917,0,0,1,4.038-.956,5.249,5.249,0,0,1,3.809,1.46,16.733,16.733,0,0,1,2.019,3.547c.673,1.178,2.019,2.248,3.325,1.871a3.657,3.657,0,0,0,2.073-2.43,5.768,5.768,0,0,1-1.124,5.31,6.226,6.226,0,0,0,2.4-1.575,4.57,4.57,0,0,1-1.218,3.029,8.971,8.971,0,0,1-3.109,1.878c-.626.269-1.232.377-1.481.976s.047,1.481-.209,2.16a9.194,9.194,0,0,1-1.844,3.035,8.608,8.608,0,0,1-4.805,2.483,15.3,15.3,0,0,1-5.478-.141,7.753,7.753,0,0,1-2.692-.929C86.111,142.6,85.976,142.784,85.693,142.219Z" transform="translate(-48.199 -62.452)" fill="#fff"/>
  <path id="路径_9230" data-name="路径 9230" d="M92.808,144.593a18.488,18.488,0,0,1-3.365-.33,8.076,8.076,0,0,1-2.847-.976,4.75,4.75,0,0,0-.673-.35,1.259,1.259,0,0,1-.74-.673h0a6.592,6.592,0,0,1-.283-.673,4.84,4.84,0,0,0-.72-1.137,6.442,6.442,0,0,1-.673-1,6.986,6.986,0,0,1-.6-3.493q0-.575,0-1.191a12.188,12.188,0,0,1,1.178-5.99,4.711,4.711,0,0,1,1.75-2.1,2.571,2.571,0,0,1,2.019-.249,2.975,2.975,0,0,1,.734-1.965,6.058,6.058,0,0,1,2.362-1.494A11.442,11.442,0,0,1,95.143,122h0a5.586,5.586,0,0,1,4.038,1.568,8.555,8.555,0,0,1,1.44,2.349,10.884,10.884,0,0,0,.673,1.265c.619,1.05,1.8,2.019,2.934,1.716.747-.215,1.346-.922,1.844-2.228a.348.348,0,0,1,.653.027,6.178,6.178,0,0,1-.451,4.536,5.85,5.85,0,0,0,1.137-.936.343.343,0,0,1,.384-.087.357.357,0,0,1,.215.323,4.852,4.852,0,0,1-1.306,3.264,9.375,9.375,0,0,1-3.224,1.965l-.4.155c-.491.188-.774.3-.909.626a2.381,2.381,0,0,0-.074.929,3.056,3.056,0,0,1-.128,1.225,9.483,9.483,0,0,1-1.911,3.15,8.992,8.992,0,0,1-5,2.591,12.713,12.713,0,0,1-2.255.155ZM85.828,141.9c.121.249.155.262.411.377a6.016,6.016,0,0,1,.734.39,7.322,7.322,0,0,0,2.611.882,14.807,14.807,0,0,0,5.344.141,8.265,8.265,0,0,0,4.617-2.376,8.844,8.844,0,0,0,1.777-2.921,2.6,2.6,0,0,0,.074-.962,2.847,2.847,0,0,1,.135-1.211,1.932,1.932,0,0,1,1.306-1.016l.363-.141a8.917,8.917,0,0,0,2.995-1.8,4.287,4.287,0,0,0,1-1.844,6.521,6.521,0,0,1-1.817,1.016.35.35,0,0,1-.384-.559,5.431,5.431,0,0,0,1.245-3.957,3.19,3.19,0,0,1-1.837,1.642c-1.487.424-2.941-.713-3.722-2.019A13.951,13.951,0,0,1,100,126.2a7.907,7.907,0,0,0-1.346-2.16,4.873,4.873,0,0,0-3.54-1.346h0a10.823,10.823,0,0,0-3.924.922,5.425,5.425,0,0,0-2.1,1.346,2.019,2.019,0,0,0-.417,2.08.343.343,0,0,1-.108.437.357.357,0,0,1-.451-.04,1.649,1.649,0,0,0-1.952-.121,3.917,3.917,0,0,0-1.474,1.81,11.441,11.441,0,0,0-1.057,5.586v1.232a6.488,6.488,0,0,0,.525,3.17,5.462,5.462,0,0,0,.606.888,5.215,5.215,0,0,1,.814,1.312c.108.276.188.471.256.612Z" transform="translate(-48.024 -62.315)" fill="#231f20"/>
  <path id="路径_9231" data-name="路径 9231" d="M101.288,156.587l.673,4.361s-.673,6.34-5.478,5.229a10.331,10.331,0,0,1-6.73-5.431l-.612-11.516s3.527-1.925,2.416-9.611a23.711,23.711,0,0,0,12.471,1.6s1.709,7.922,1.164,11.63A4.085,4.085,0,0,1,101.288,156.587Z" transform="translate(-50.071 -68.077)" fill="#fff"/>
  <path id="路径_9232" data-name="路径 9232" d="M97.432,166.495a5.134,5.134,0,0,1-1.164-.141,10.573,10.573,0,0,1-6.932-5.633.323.323,0,0,1,0-.121L88.73,149.09a.336.336,0,0,1,.182-.323s3.291-1.945,2.234-9.261a.337.337,0,0,1,.141-.33.343.343,0,0,1,.35,0,23.556,23.556,0,0,0,12.242,1.582.35.35,0,0,1,.39.276c.067.323,1.709,8.016,1.164,11.744a4.422,4.422,0,0,1-3.843,3.991l.612,4a.2.2,0,0,1,0,.088c0,.141-.4,3.48-2.5,4.974a3.816,3.816,0,0,1-2.275.666Zm-7.4-6a10.048,10.048,0,0,0,6.434,5.176,3.365,3.365,0,0,0,2.84-.444c1.73-1.232,2.16-4.038,2.208-4.442l-.673-4.307a.337.337,0,0,1,.081-.276.357.357,0,0,1,.262-.121,3.742,3.742,0,0,0,3.56-3.439c.471-3.19-.787-9.692-1.1-11.186a24.343,24.343,0,0,1-11.738-1.44c.761,6.427-1.75,8.709-2.483,9.234Z" transform="translate(-49.936 -67.916)" fill="#231f20"/>
  <path id="路径_9233" data-name="路径 9233" d="M103.144,148.9s2.275,4.173,1.588,4.8-2.4,0-2.4,0" transform="translate(-54.383 -71.111)" fill="#fff"/>
  <path id="路径_9234" data-name="路径 9234" d="M103.615,154.2a4.973,4.973,0,0,1-1.555-.289.336.336,0,0,1-.209-.424.343.343,0,0,1,.431-.209c.592.209,1.669.411,2.059.054.215-.323-.559-2.376-1.656-4.388a.337.337,0,1,1,.592-.323c.9,1.649,2.288,4.509,1.521,5.209A1.723,1.723,0,0,1,103.615,154.2Z" transform="translate(-54.221 -70.964)" fill="#231f20"/>
  <ellipse id="椭圆_121" data-name="椭圆 121" cx="0.471" cy="1.077" rx="0.471" ry="1.077" transform="matrix(0.999, -0.042, 0.042, 0.999, 45.987, 75.97)" fill="#231f20"/>
  <ellipse id="椭圆_122" data-name="椭圆 122" cx="0.471" cy="1.077" rx="0.471" ry="1.077" transform="matrix(1, -0.04, 0.04, 1, 52.009, 76.21)" fill="#231f20"/>
  <path id="路径_9235" data-name="路径 9235" d="M90.923,149.829a6.541,6.541,0,0,0-1.649-1.871,2.194,2.194,0,0,0-1.225-.538,1.932,1.932,0,0,0-1.057.31,3.9,3.9,0,0,0-1.844,2.584,3.063,3.063,0,0,0,.061,1.5,3.446,3.446,0,0,0,1.487,1.8,10.27,10.27,0,0,0,2.181.942" transform="translate(-48.744 -70.627)" fill="#fff"/>
  <path id="路径_9236" data-name="路径 9236" d="M88.709,154.684a.3.3,0,0,1-.108,0,10.411,10.411,0,0,1-2.255-1A3.789,3.789,0,0,1,84.7,151.7a3.466,3.466,0,0,1-.061-1.669,4.267,4.267,0,0,1,2.019-2.82,2.3,2.3,0,0,1,1.238-.357,2.6,2.6,0,0,1,1.427.612,6.831,6.831,0,0,1,1.73,1.972.35.35,0,0,1-.6.35,6.219,6.219,0,0,0-1.561-1.763,1.945,1.945,0,0,0-1.03-.471,1.609,1.609,0,0,0-.868.269,3.54,3.54,0,0,0-1.676,2.349,2.759,2.759,0,0,0,.047,1.346,3.089,3.089,0,0,0,1.346,1.6,10.1,10.1,0,0,0,2.107.909.337.337,0,0,1-.114.66Z" transform="translate(-48.576 -70.441)" fill="#231f20"/>
  <path id="路径_9237" data-name="路径 9237" d="M103.286,164.176a13.1,13.1,0,0,1-8.036-1.346s4.1,6.3,8.669,5.384Z" transform="translate(-52.068 -75.666)" fill="#231f20"/>
  <path id="路径_9238" data-name="路径 9238" d="M102.833,168.534c-4.321,0-7.888-5.384-8.076-5.647a.343.343,0,0,1,0-.411.33.33,0,0,1,.4-.074,12.821,12.821,0,0,0,7.821,1.292.37.37,0,0,1,.262.054.343.343,0,0,1,.141.229l.626,4.085a.343.343,0,0,1-.269.384A5.219,5.219,0,0,1,102.833,168.534ZM96.1,163.54c1.346,1.642,4.18,4.651,7.249,4.294l-.525-3.419a13.541,13.541,0,0,1-6.724-.875Z" transform="translate(-51.885 -75.514)" fill="#231f20"/>
  <path id="路径_9239" data-name="路径 9239" d="M96.277,149.76a3.87,3.87,0,1,1,3.863-3.87A3.87,3.87,0,0,1,96.277,149.76Zm0-7.04a3.177,3.177,0,1,0,3.17,3.17A3.177,3.177,0,0,0,96.277,142.72Z" transform="translate(-51.137 -68.862)" fill="#231f20"/>
  <path id="路径_9240" data-name="路径 9240" d="M107.56,149.76a3.87,3.87,0,1,1,3.87-3.87,3.87,3.87,0,0,1-3.87,3.87Zm0-7.04a3.177,3.177,0,1,0,3.17,3.17A3.177,3.177,0,0,0,107.56,142.72Z" transform="translate(-54.828 -68.862)" fill="#231f20"/>
  <path id="路径_9241" data-name="路径 9241" d="M103.15,158.963l-2.019-.983s-.525,1.669.316,2.019S103.15,158.963,103.15,158.963Z" transform="translate(-53.939 -74.08)" fill="#231f20"/>
  <path id="路径_9242" data-name="路径 9242" d="M101.532,160.238a1.111,1.111,0,0,1-.424-.087c-1.09-.458-.565-2.234-.5-2.436a.364.364,0,0,1,.188-.209.343.343,0,0,1,.283,0l2.019.983a.33.33,0,0,1,.175.215.343.343,0,0,1,0,.269C103.167,159.127,102.427,160.238,101.532,160.238Zm-.377-1.938c-.087.478-.108,1.1.215,1.232s.8-.262,1.09-.606Z" transform="translate(-53.76 -73.915)" fill="#231f20"/>
  <rect id="矩形_3248" data-name="矩形 3248" width="46.035" height="2.901" transform="translate(95.604 145.738) rotate(180)" fill="#fff"/>
  <path id="路径_9243" data-name="路径 9243" d="M150.612,248.614H104.577a.337.337,0,0,1-.337-.337v-2.9a.343.343,0,0,1,.337-.337h46.035a.343.343,0,0,1,.337.337v2.9A.337.337,0,0,1,150.612,248.614Zm-45.7-.673h45.362v-2.255H104.913Z" transform="translate(-55.008 -102.546)" fill="#231f20"/>
  <path id="路径_9244" data-name="路径 9244" d="M63.181,208.387s-3.177,24.9-1.427,26.921,33.261-2.5,36.6-2.658,9.92,1.864,9.759-1.629-8.628-3.755-10.849-2.645-23.919-.673-23.919-.673l.633-19.323Z" transform="translate(-40.944 -90.56)" fill="#fff"/>
  <path id="路径_9245" data-name="路径 9245" d="M65.324,236.036c-2.255,0-3.607-.209-3.991-.673-1.79-2.113,1.03-24.64,1.346-27.2a.343.343,0,0,1,.337-.3H73.784a.343.343,0,0,1,.242.1.337.337,0,0,1,.094.249l-.626,19c6.239.5,21.705,1.555,23.428.673s7.04-.956,9.725.612a2.847,2.847,0,0,1,1.609,2.322,2.019,2.019,0,0,1-.592,1.629c-1.151,1.09-3.735.814-6.239.552a23.74,23.74,0,0,0-3.251-.2c-.814.04-3.426.357-6.73.754C79.088,235.094,70.15,236.036,65.324,236.036ZM63.3,208.557c-1.259,9.947-2.692,24.969-1.467,26.389s21.066-1,29.546-2.019c3.453-.417,5.943-.72,6.777-.76a24,24,0,0,1,3.365.209c2.241.236,4.778.5,5.707-.377a1.346,1.346,0,0,0,.377-1.11,2.181,2.181,0,0,0-1.279-1.763c-2.389-1.407-7.484-1.393-9.079-.592-2.248,1.117-21.873-.471-24.1-.673a.33.33,0,0,1-.31-.343l.619-18.973Z" transform="translate(-40.785 -90.393)" fill="#231f20"/>
  <path id="路径_9246" data-name="路径 9246" d="M137.413,205.75h28.348L159.1,232.59H130.75Z" transform="translate(-63.676 -89.7)" fill="#fff"/>
  <path id="路径_9247" data-name="路径 9247" d="M158.934,232.763H130.586a.35.35,0,0,1-.269-.135.357.357,0,0,1-.061-.283l6.67-26.84a.33.33,0,0,1,.323-.256H165.6a.33.33,0,0,1,.262.128.323.323,0,0,1,.061.289l-6.663,26.84A.33.33,0,0,1,158.934,232.763Zm-27.917-.673h27.655l6.495-26.167H137.485Z" transform="translate(-63.512 -89.536)" fill="#231f20"/>
  <path id="路径_9248" data-name="路径 9248" d="M71.109,173.531c-.162.1-2.887.861-3.029,1.023-2.591,2.807-4.038,4.772-5.108,8.393a66.481,66.481,0,0,0-2.383,15.4s10.641,3.816,15.244,1.568c0,0,2.692-19.053,0-24.29C74.865,173.76,73.344,172.071,71.109,173.531Z" transform="translate(-40.736 -78.984)" fill="#ff595e"/>
  <path id="路径_9249" data-name="路径 9249" d="M83.093,198.136h-.074a.33.33,0,0,1-.256-.4c.04-.188,3.984-18.569-.9-22.311a.343.343,0,0,1-.061-.471.336.336,0,0,1,.471-.061c5.216,4,1.312,22.21,1.144,22.984a.337.337,0,0,1-.33.256Z" transform="translate(-47.651 -79.589)" fill="#231f20"/>
  <path id="路径_9250" data-name="路径 9250" d="M117.6,203.564h-.054a.336.336,0,0,1-.276-.39c0-.141,2.51-14.571,0-20.124a.337.337,0,1,1,.612-.276c2.564,5.741.128,19.915,0,20.514A.33.33,0,0,1,117.6,203.564Z" transform="translate(-59.256 -82.116)" fill="#231f20"/>
  <rect id="矩形_3249" data-name="矩形 3249" width="182.882" height="4.267" transform="translate(0.337 145.731)" fill="#fff"/>
  <path id="路径_9251" data-name="路径 9251" d="M214.309,254.29H31.427a.343.343,0,0,1-.337-.336v-4.267a.343.343,0,0,1,.337-.337H214.309a.337.337,0,0,1,.337.337v4.267A.336.336,0,0,1,214.309,254.29Zm-182.545-.673H213.972v-3.594H31.763Z" transform="translate(-31.09 -103.956)" fill="#231f20"/>
  <rect id="矩形_3250" data-name="矩形 3250" width="174.812" height="6.717" transform="translate(4.375 149.998)" fill="#fff"/>
  <path id="路径_9252" data-name="路径 9252" d="M212.239,263.073H37.427a.337.337,0,0,1-.337-.337v-6.73a.337.337,0,0,1,.337-.337H212.239a.337.337,0,0,1,.337.337v6.73A.337.337,0,0,1,212.239,263.073ZM37.763,262.4H211.9v-6.057H37.763Z" transform="translate(-33.052 -106.022)" fill="#231f20"/>
  <path id="路径_9253" data-name="路径 9253" d="M136.364,80.349a19.639,19.639,0,0,1-14.436,18.919c-.215,7.612-7.047,12.963-7.477,13.292a15.459,15.459,0,0,0,3.688-12.66c-.464.04-.929.061-1.4.061h-15.1a19.626,19.626,0,0,1,0-39.251h15.1A19.625,19.625,0,0,1,136.364,80.349Z" transform="translate(-47.739 -42.276)" fill="#fff"/>
  <path id="路径_9254" data-name="路径 9254" d="M114.286,112.73a.336.336,0,0,1-.262-.552,15.264,15.264,0,0,0,3.668-12.115c-.377,0-.74.04-1.117.04h-15.1a19.962,19.962,0,1,1,0-39.924h15.1a19.962,19.962,0,0,1,5.519,39.15c-.37,7.713-7.309,13.077-7.605,13.306A.33.33,0,0,1,114.286,112.73ZM117.975,99.4a.343.343,0,0,1,.336.283,15.48,15.48,0,0,1-1.959,10.338c2.107-2.241,4.94-6.131,5.075-10.93a.33.33,0,0,1,.249-.31,19.3,19.3,0,0,0-5.1-37.9h-15.1a19.289,19.289,0,1,0,0,38.578h15.1a9.766,9.766,0,0,0,1.346-.061Z" transform="translate(-47.576 -42.102)" fill="#231f20"/>
  <path id="路径_9255" data-name="路径 9255" d="M261.05,89.869a15.1,15.1,0,0,0,11.1,14.558c.168,5.855,5.384,9.967,5.754,10.223a11.9,11.9,0,0,1-2.84-9.739c.357,0,.713.047,1.077.047h11.616a15.089,15.089,0,1,0,0-30.179H276.139A15.089,15.089,0,0,0,261.05,89.869Z" transform="translate(-106.28 -46.876)" fill="#fff"/>
  <path id="路径_9256" data-name="路径 9256" d="M277.733,114.823a.323.323,0,0,1-.2-.074c-.229-.175-5.566-4.3-5.876-10.23A15.426,15.426,0,0,1,275.97,74.28h11.617a15.426,15.426,0,0,1,0,30.852h-12.4A11.643,11.643,0,0,0,278,114.3a.33.33,0,0,1,0,.444.35.35,0,0,1-.262.081Zm-1.763-39.87a14.76,14.76,0,0,0-3.9,28.987.316.316,0,0,1,.242.31,12.832,12.832,0,0,0,3.446,7.868,11.88,11.88,0,0,1-1.2-7.4.343.343,0,0,1,.357-.283c.35,0,.673.047,1.05.047h11.617a14.753,14.753,0,0,0,0-29.506Z" transform="translate(-106.111 -46.713)" fill="#231f20"/>
  <path id="路径_9257" data-name="路径 9257" d="M174.138,33.83H149.673A20.083,20.083,0,0,0,129.59,53.913h0A20.083,20.083,0,0,0,149.673,74h5.822c-.148,4.711,4.038,12.283,13.763,24.276,0,0-10.735-13.38-8.9-24.276h13.777a20.083,20.083,0,0,0,20.083-20.083h0A20.083,20.083,0,0,0,174.138,33.83Z" transform="translate(-63.297 -33.487)" fill="#fff"/>
  <path id="路径_9258" data-name="路径 9258" d="M169.095,98.442a.323.323,0,0,1-.262-.128h0c-9.369-11.569-13.784-19.262-13.844-24.155H149.51a20.42,20.42,0,1,1,0-40.839h24.465a20.42,20.42,0,0,1,0,40.839H160.514c-1.561,10.546,8.716,23.556,8.871,23.731h0a.337.337,0,0,1-.054.471.343.343,0,0,1-.236.081ZM149.51,34a19.747,19.747,0,1,0,0,39.493h5.822a.343.343,0,0,1,.242.1.363.363,0,0,1,.094.242c-.121,3.755,2.632,9.422,8.581,17.5-.2-.357-.4-.72-.592-1.1C161.4,85.9,158.905,79.523,159.868,73.8a.33.33,0,0,1,.33-.276h13.777a19.747,19.747,0,0,0,0-39.493Z" transform="translate(-63.133 -33.32)" fill="#231f20"/>
  <path id="路径_9259" data-name="路径 9259" d="M313.459,149.45h15.917a12.915,12.915,0,0,1,12.707,15.177l-11.394,63.305H288.53l12.222-67.875A12.909,12.909,0,0,1,313.459,149.45Z" transform="translate(-115.266 -71.291)" fill="#fff"/>
  <path id="路径_9260" data-name="路径 9260" d="M330.515,228.141H288.356a.33.33,0,0,1-.256-.121.364.364,0,0,1-.1-.276l12.215-67.875A13.238,13.238,0,0,1,313.285,149H329.2a13.245,13.245,0,0,1,13.036,15.594L330.845,227.9A.33.33,0,0,1,330.515,228.141Zm-41.728-.673h41.472L341.6,164.439a12.572,12.572,0,0,0-12.37-14.807H313.285a12.565,12.565,0,0,0-12.377,10.351Z" transform="translate(-115.092 -71.144)" fill="#231f20"/>
  <path id="路径_9261" data-name="路径 9261" d="M313.934,250.082s-.888,6.481-3.957,9.146H269.46s12.289-12.115,16.556-13.831S313.934,250.082,313.934,250.082Z" transform="translate(-109.03 -102.568)" fill="#231f20"/>
  <path id="路径_9262" data-name="路径 9262" d="M309.811,259.407H269.3a.337.337,0,0,1-.316-.209.343.343,0,0,1,.074-.363c.5-.5,12.4-12.168,16.678-13.9s27.157,4.408,28.126,4.671a.337.337,0,0,1,.242.37c0,.269-.942,6.636-4.038,9.355A.337.337,0,0,1,309.811,259.407Zm-39.709-.673h39.561c2.5-2.275,3.493-7.3,3.708-8.561-2.726-.727-23.556-6.178-27.412-4.617-3.607,1.467-13.339,10.762-15.836,13.178Z" transform="translate(-108.865 -102.41)" fill="#231f20"/>
  <path id="路径_9263" data-name="路径 9263" d="M247.367,236.68c-.054.067-3.85-.2-6.118,1s-5.862,3.264-4.6,4.26,12.263.141,13.124-.525S247.367,236.68,247.367,236.68Z" transform="translate(-98.217 -99.813)" fill="#fff"/>
  <path id="路径_9264" data-name="路径 9264" d="M240.4,242.558c-2.019,0-3.668-.148-4.126-.5a.935.935,0,0,1-.39-.841c.087-.962,1.642-2.187,5.041-3.991,1.9-1.01,4.785-1.016,5.869-1.023h.323a.182.182,0,0,1,.087,0,.316.316,0,0,1,.256.128c.464.572,2.766,3.5,2.625,4.711a.714.714,0,0,1-.269.5C249.134,242.053,244.153,242.558,240.4,242.558Zm6.65-5.687H246.8c-1.036,0-3.8,0-5.559.949-3.991,2.113-4.644,3.069-4.711,3.453a.266.266,0,0,0,.135.249c.384.31,2.531.518,6.461.289a25.916,25.916,0,0,0,6.252-.821c.283-.209-.707-2.086-2.322-4.119Z" transform="translate(-98.052 -99.653)" fill="#231f20"/>
  <path id="路径_9265" data-name="路径 9265" d="M281.315,173.06s-5.243,2.275-13.239,32.931c-.673,2.484-20.1,9.819-20.1,9.819l5.384,4.132s24.391,2.934,29.99-3.466S281.315,173.06,281.315,173.06Z" transform="translate(-102.007 -79.011)" fill="#ff595e"/>
  <path id="路径_9266" data-name="路径 9266" d="M294.574,170.947a59.359,59.359,0,0,0-.707,22.715c2.133,11.731-5.337,27.52-5.337,27.52s17.418,11.044,33.059,2.517c0,0,.888-41.055-4.8-48.344S303.108,162.272,294.574,170.947Z" transform="translate(-115.266 -76.898)" fill="#ff595e"/>
  <path id="路径_9267" data-name="路径 9267" d="M301.12,171.155l1.481,24.559,8.763-26.093Z" transform="translate(-119.382 -77.886)" fill="#231f20"/>
  <path id="路径_9268" data-name="路径 9268" d="M302.437,195.891h-.04a.337.337,0,0,1-.3-.31l-1.481-24.559a.33.33,0,0,1,.283-.35l10.25-1.535a.336.336,0,0,1,.31.114.35.35,0,0,1,.061.323l-8.749,26.093A.35.35,0,0,1,302.437,195.891Zm-1.131-24.606,1.346,22.52,8.036-23.926Z" transform="translate(-119.218 -77.727)" fill="#231f20"/>
  <path id="路径_9269" data-name="路径 9269" d="M267.327,235.669s-7.551-1.952-9.153-1.346-7.551,2.988-7.02,5.243.263,1.959,4.355,1.777,12.707-.168,12.707-.168Z" transform="translate(-103.034 -99.004)" fill="#fff"/>
  <path id="路径_9270" data-name="路径 9270" d="M252.7,241.654c-1.413,0-1.622-.337-1.979-1.864l-.067-.289c-.4-1.716,2.019-3.614,7.228-5.633,1.649-.673,8.574,1.117,9.355,1.346a.33.33,0,0,1,.249.269l.888,5.526a.328.328,0,0,1-.33.384h0c-.088,0-8.662,0-12.693.168l-1.3.067C253.513,241.627,253.068,241.654,252.7,241.654Zm6.259-7.262a2.43,2.43,0,0,0-.835.1c-4.63,1.8-7.121,3.567-6.811,4.853l.067.289c.33,1.42.33,1.42,2.632,1.292l1.346-.067c3.547-.155,10.58-.162,12.323-.168l-.787-4.906a43.171,43.171,0,0,0-7.948-1.393Z" transform="translate(-102.869 -98.844)" fill="#231f20"/>
  <path id="路径_9271" data-name="路径 9271" d="M302.338,178.713s2.308,27.9,0,28.435l-30.838,7.04,1.777,7.652s21.059,3.257,33.5-2.073,12.976-35.549,6.576-43.013S302.87,174.8,302.338,178.713Z" transform="translate(-109.697 -79.01)" fill="#ff595e"/>
  <rect id="矩形_3251" data-name="矩形 3251" width="33.618" height="2.901" transform="translate(129.161 142.83)" fill="#fff"/>
  <path id="路径_9272" data-name="路径 9272" d="M256.488,248.614H222.836a.337.337,0,0,1-.337-.337v-2.9a.337.337,0,0,1,.337-.337h33.651a.337.337,0,0,1,.337.337v2.9A.337.337,0,0,1,256.488,248.614Zm-33.281-.673h32.945v-2.255H223.173Z" transform="translate(-93.676 -102.546)" fill="#231f20"/>
  <rect id="矩形_3252" data-name="矩形 3252" width="33.618" height="2.901" transform="matrix(0.446, 0.895, -0.895, 0.446, 114.176, 112.893)" fill="#fff"/>
  <path id="路径_9273" data-name="路径 9273" d="M211.712,232.623a.275.275,0,0,1-.108,0,.323.323,0,0,1-.2-.168l-14.982-30.118a.336.336,0,0,1,0-.256.323.323,0,0,1,.168-.2l2.6-1.292a.336.336,0,0,1,.451.155l14.982,30.1a.343.343,0,0,1-.155.451l-2.591,1.292A.4.4,0,0,1,211.712,232.623Zm-14.531-30.286,14.679,29.479,2.019-1L199.2,201.327Z" transform="translate(-85.142 -88.002)" fill="#231f20"/>
  <path id="路径_9274" data-name="路径 9274" d="M272.839,217.86a.33.33,0,0,1-.323-.262.337.337,0,0,1,.249-.4c10.257-2.3,25.871-6.225,26.84-7.612s2.282-15.924,2.914-25.333a.33.33,0,0,1,.357-.31.337.337,0,0,1,.316.357c-.162,2.416-1.629,23.65-3.035,25.669s-24.626,7.3-27.278,7.888Z" transform="translate(-110.026 -82.568)" fill="#231f20"/>
  <path id="路径_9275" data-name="路径 9275" d="M284.443,233.2c-5.034,0-8.8-.3-8.85-.31a.338.338,0,0,1,.061-.673c.276,0,27.964,2.221,34.237-5.66s6.192-20.716,6.192-20.864a.337.337,0,0,1,.33-.343.35.35,0,0,1,.343.337c0,.128.121,13.158-6.34,21.274-2.739,3.439-9.422,5.478-19.928,6.057C288.373,233.16,286.32,233.2,284.443,233.2Z" transform="translate(-110.936 -89.569)" fill="#231f20"/>
  <path id="路径_9276" data-name="路径 9276" d="M294.015,211.466h0a.35.35,0,0,1-.3-.37,92.476,92.476,0,0,0,.182-12.619c-.363-7.673-.269-18.542-.269-18.65a.343.343,0,0,1,.337-.337h0a.343.343,0,0,1,.337.343c0,.108-.094,10.957.269,18.609a93.945,93.945,0,0,1-.182,12.72.337.337,0,0,1-.37.3Z" transform="translate(-116.928 -81.113)" fill="#231f20"/>
  <path id="路径_9277" data-name="路径 9277" d="M310.7,259.257a21.867,21.867,0,0,1,11.96-11.886c7.04-2.881,17.761-2.3,17.761-2.3l-2.551,14.181Z" transform="translate(-122.515 -102.542)" fill="#fff"/>
  <path id="路径_9278" data-name="路径 9278" d="M337.708,259.417h-27.17a.35.35,0,0,1-.276-.141.343.343,0,0,1-.04-.3,22.405,22.405,0,0,1,12.115-12.115c7.026-2.874,17.8-2.335,17.909-2.322a.3.3,0,0,1,.242.121.33.33,0,0,1,.067.269L338,259.114A.33.33,0,0,1,337.708,259.417Zm-26.672-.673h26.389l2.436-13.528c-1.965-.067-11.092-.222-17.236,2.288A21.887,21.887,0,0,0,311.035,258.744Z" transform="translate(-122.352 -102.366)" fill="#231f20"/>
  <path id="路径_9279" data-name="路径 9279" d="M294.609,134.962c-.229,0-.956,2.692-1.05,2.921-.633,1.676-1.642,3.177-2.436,4.8a57.069,57.069,0,0,1-6.582,10.412,8.467,8.467,0,0,0,6.057-2.732l-1.925,5.3a9.517,9.517,0,0,0,7.881-.673c4.179-2.4,4.94-6.946,5.384-11.3L303.021,134Z" transform="translate(-113.961 -66.24)" fill="#fff"/>
  <path id="路径_9280" data-name="路径 9280" d="M291.737,156.395a9.658,9.658,0,0,1-3.3-.572.343.343,0,0,1-.188-.175.336.336,0,0,1,0-.256l1.454-4a8.877,8.877,0,0,1-5.3,1.878h0a.337.337,0,0,1-.262-.545,56.752,56.752,0,0,0,6.542-10.351c.3-.612.639-1.218.962-1.8a23.341,23.341,0,0,0,1.46-2.968c0-.054.074-.222.141-.451.754-2.517.9-2.692,1.191-2.692l8.4-.949a.33.33,0,0,1,.276.094.35.35,0,0,1,.094.276l-1.016,9.665c-.478,4.5-1.3,9.1-5.573,11.556A9.718,9.718,0,0,1,291.737,156.395Zm-2.746-1.1a9.167,9.167,0,0,0,7.275-.767c4-2.3,4.778-6.73,5.236-11.051l.976-9.247-7.854.888a22.7,22.7,0,0,0-.747,2.228c-.081.256-.135.444-.155.5a23.006,23.006,0,0,1-1.508,3.056c-.316.579-.673,1.171-.942,1.77a57.354,57.354,0,0,1-6.158,9.88,8.124,8.124,0,0,0,5.115-2.578.35.35,0,0,1,.424-.061.337.337,0,0,1,.141.4Zm5.465-20.494Z" transform="translate(-113.808 -66.081)" fill="#231f20"/>
  <path id="路径_9281" data-name="路径 9281" d="M301.169,153.616l-1.508,6.562s-.794,4.112,3.587,3.735a8.749,8.749,0,0,0,6.448-3.863l1.763-11.919c.081-.5.794-5.438,1.7-9.766-5.041-1.036-9.476-2.315-9.476-2.315.4.586-1.413.323-1.413.323a7.719,7.719,0,0,0-2.457-.088c-.841,2.854-2.214,5.889-2.692,8.79a29.841,29.841,0,0,0-.458,5.25C296.714,153.663,301.169,153.616,301.169,153.616Z" transform="translate(-117.924 -66.91)" fill="#fff"/>
  <path id="路径_9282" data-name="路径 9282" d="M302.546,164.091a3.365,3.365,0,0,1-2.6-.976,4,4,0,0,1-.734-3.15l1.42-6.2c-1.7-.094-4.381-.922-4.429-3.6a28.362,28.362,0,0,1,.458-5.3,35.047,35.047,0,0,1,1.669-5.734c.363-1.023.74-2.086,1.036-3.1a.3.3,0,0,1,.249-.215,8.145,8.145,0,0,1,2.557.087,4.211,4.211,0,0,0,1.063.034.283.283,0,0,1,.054-.222.3.3,0,0,1,.33-.128c.04,0,4.482,1.292,9.422,2.309a.336.336,0,0,1,.2.135.3.3,0,0,1,.047.229c-.787,3.776-1.44,8.029-1.683,9.685,0,.067-1.77,11.993-1.77,11.993a.329.329,0,0,1-.04.114,8.985,8.985,0,0,1-6.69,4.038Q302.822,164.108,302.546,164.091Zm-1.535-10.93a.31.31,0,0,1,.242.114.3.3,0,0,1,.061.262l-1.508,6.555a3.446,3.446,0,0,0,.592,2.611,3.094,3.094,0,0,0,2.692.747,8.527,8.527,0,0,0,6.185-3.661c.135-.936,1.743-11.832,1.75-11.865.249-1.676.875-5.768,1.635-9.483-4.038-.841-7.679-1.831-8.823-2.147l-.047.054c-.316.337-1.346.242-1.7.162h0a7.674,7.674,0,0,0-2.174-.108c-.289.962-.673,1.958-.983,2.928a34.83,34.83,0,0,0-1.649,5.633,28.343,28.343,0,0,0-.451,5.189c.054,3,4.038,2.995,4.2,3Z" transform="translate(-117.773 -66.758)" fill="#231f20"/>
  <path id="路径_9283" data-name="路径 9283" d="M305.812,147s-2.82,2.874-2.4,3.54,1.952.572,1.952.572" transform="translate(-120.117 -70.49)" fill="#fff"/>
  <path id="路径_9284" data-name="路径 9284" d="M304.984,151.311c-.512,0-1.6-.081-2.019-.734s1.077-2.558,2.45-3.957a.323.323,0,0,1,.471,0,.33.33,0,0,1,0,.471c-1.312,1.346-2.409,2.813-2.349,3.15.222.357,1.2.417,1.629.39a.336.336,0,0,1,.363.31.33.33,0,0,1-.316.357Z" transform="translate(-119.961 -70.333)" fill="#231f20"/>
  <ellipse id="椭圆_123" data-name="椭圆 123" cx="0.72" cy="0.384" rx="0.72" ry="0.384" transform="translate(182.71 75.907) rotate(-77.06)" fill="#231f20"/>
  <ellipse id="椭圆_124" data-name="椭圆 124" cx="0.72" cy="0.384" rx="0.72" ry="0.384" transform="translate(188.072 77.418) rotate(-77.06)" fill="#231f20"/>
  <path id="路径_9285" data-name="路径 9285" d="M302.287,137.484l.707-1.346.5,1.615L307.725,139l1.171-1.75-.121,2.369,2.228.229c-.586-.061-3.21,10.452-3.466,11.32-.464,1.575-1.023,3.284-2.389,4.2,1.467.552,3.1-.242,4.361-1.171a18.63,18.63,0,0,0,4.267-4.334l-1.211,6.542a4.038,4.038,0,0,0,3.224-1.057,8.391,8.391,0,0,0,1.979-2.86c1.945-4.18,1.487-8.076,1.622-12.478.168-5.155-.141-9.523-6.252-11.892S302.6,126.5,299.4,129.293a9.476,9.476,0,0,0-3.089,6.838S301.008,137.363,302.287,137.484Z" transform="translate(-117.809 -63.854)" fill="#fff"/>
  <path id="路径_9286" data-name="路径 9286" d="M312.872,156.584a3.672,3.672,0,0,1-.552-.04.316.316,0,0,1-.222-.141.35.35,0,0,1-.061-.256l.962-5.155a19.4,19.4,0,0,1-3.48,3.284c-1.783,1.3-3.365,1.709-4.711,1.2a.33.33,0,0,1-.215-.276.337.337,0,0,1,.148-.316c1.232-.821,1.77-2.369,2.255-4.038.047-.155.168-.626.343-1.285,1.629-6.219,2.4-8.689,2.847-9.665l-1.662-.168a.337.337,0,0,1-.3-.35l.061-1.151-.491.734a.343.343,0,0,1-.377.135l-4.227-1.252a.343.343,0,0,1-.229-.222l-.262-.835-.33.639a.343.343,0,0,1-.33.182c-1.292-.121-5.842-1.346-6.057-1.386a.316.316,0,0,1-.249-.316,9.712,9.712,0,0,1,3.2-7.094c3.527-3.076,8.258-3.493,14.08-1.238,6.266,2.43,6.636,6.973,6.468,12.215,0,.875,0,1.723-.034,2.564,0,3.412,0,6.636-1.615,10.048a9.045,9.045,0,0,1-2.066,2.975,4.577,4.577,0,0,1-2.894,1.2Zm-.1-.673a3.937,3.937,0,0,0,2.6-1.016,8,8,0,0,0,1.9-2.746c1.528-3.284,1.541-6.434,1.555-9.772,0-.841,0-1.7.034-2.578.168-5.162-.175-9.295-6.057-11.563-5.647-2.187-10.028-1.824-13.393,1.11a9.213,9.213,0,0,0-2.975,6.326c.935.242,4.173,1.084,5.445,1.265l.606-1.158a.336.336,0,0,1,.323-.182.343.343,0,0,1,.3.236l.451,1.447,3.816,1.131,1.036-1.548a.33.33,0,0,1,.384-.135.35.35,0,0,1,.229.343l-.108,2.019,1.884.2h0a.343.343,0,0,1,.1.673c-.552.74-2.342,7.545-2.934,9.806-.175.673-.3,1.144-.343,1.3A8.685,8.685,0,0,1,305.65,155a5.179,5.179,0,0,0,3.426-1.272,18.361,18.361,0,0,0,4.186-4.26.343.343,0,0,1,.411-.114.33.33,0,0,1,.2.37ZM310.752,139.987Z" transform="translate(-117.62 -63.672)" fill="#231f20"/>
  <path id="路径_9287" data-name="路径 9287" d="M302.8,161.663s3.513-.088,5.007-1c0,0-2.154,4.59-6.165,6.057Z" transform="translate(-119.552 -74.957)" fill="#231f20"/>
  <path id="路径_9288" data-name="路径 9288" d="M301.476,166.856a.334.334,0,0,1-.33-.411l1.158-5.028a.33.33,0,0,1,.316-.256c.034,0,3.446-.1,4.846-.956a.323.323,0,0,1,.4,0,.33.33,0,0,1,.081.39c-.087.2-2.261,4.711-6.353,6.205A.344.344,0,0,1,301.476,166.856Zm1.427-5.034-.956,4.146a12.228,12.228,0,0,0,4.92-4.772A16.827,16.827,0,0,1,302.9,161.822Z" transform="translate(-119.388 -74.786)" fill="#231f20"/>
  <path id="路径_9289" data-name="路径 9289" d="M302.357,157.936h-.094c-.343-.047-.572-.33-.673-.835l-.424-1.871a.336.336,0,0,1,.088-.31.35.35,0,0,1,.31-.094l2.658.538a.33.33,0,0,1,.242.188.343.343,0,0,1,0,.3C304.073,156.5,303.158,157.936,302.357,157.936Zm-.431-2.322.3,1.346c.067.269.141.323.141.323h0c.188,0,.72-.559,1.232-1.346Z" transform="translate(-119.394 -73.047)" fill="#231f20"/>
</svg>
