<svg id="小组会议" xmlns="http://www.w3.org/2000/svg" width="182.526" height="141.814" viewBox="0 0 182.526 141.814">
  <path id="路径_10576" data-name="路径 10576" d="M135.907,249.182s-3.335,5.188-3.987,10.132h31.512a7.377,7.377,0,0,0-4.17-3.938c-3.158-1.219-10.01-1.786-11.138-3.048a4.4,4.4,0,0,1-.9-3.158Z" transform="translate(-82.161 -117.805)" fill="#231f20"/>
  <path id="路径_10577" data-name="路径 10577" d="M163.259,259.419H131.746a.3.3,0,0,1-.207-.091.268.268,0,0,1-.061-.213c.652-4.944,4-10.187,4.03-10.242a.262.262,0,0,1,.226-.122h11.3a.25.25,0,0,1,.2.091.287.287,0,0,1,.067.207,4.176,4.176,0,0,0,.823,2.945c.61.658,3.176,1.164,5.676,1.664a37.277,37.277,0,0,1,5.365,1.3,7.59,7.59,0,0,1,4.328,4.091.262.262,0,0,1-.037.25A.256.256,0,0,1,163.259,259.419Zm-31.207-.536h30.787a7.218,7.218,0,0,0-3.841-3.42,37.985,37.985,0,0,0-5.279-1.28c-2.823-.555-5.261-1.042-5.968-1.829a4.462,4.462,0,0,1-.982-3.048H135.886A29.2,29.2,0,0,0,132.051,258.882Z" transform="translate(-81.988 -117.641)" fill="#231f20"/>
  <path id="路径_10578" data-name="路径 10578" d="M139.3,243.085l-.835,3.4h11.321l.36-4.231Z" transform="translate(-84.714 -115.104)" fill="#fff"/>
  <path id="路径_10579" data-name="路径 10579" d="M149.57,246.59h-11.3a.3.3,0,0,1-.293-.378l.835-3.4a.3.3,0,0,1,.268-.232l10.845-.835a.286.286,0,0,1,.238.091.293.293,0,0,1,.091.238l-.36,4.231A.3.3,0,0,1,149.57,246.59Zm-10.931-.61h10.65l.3-3.6-10.266.793Z" transform="translate(-84.521 -114.908)" fill="#231f20"/>
  <line id="直线_6" data-name="直线 6" x2="7.31" y2="44.266" transform="translate(35.896 97.244)" fill="#fff"/>
  <path id="路径_10580" data-name="路径 10580" d="M116.288,237.577a.311.311,0,0,1-.3-.256l-7.316-44.266a.3.3,0,1,1,.6-.1l7.316,44.266a.3.3,0,0,1-.25.348Z" transform="translate(-73.082 -95.762)" fill="#231f20"/>
  <line id="直线_7" data-name="直线 7" x1="7.456" y2="44.266" transform="translate(20.386 97.244)" fill="#fff"/>
  <path id="路径_10581" data-name="路径 10581" d="M83.545,237.581H83.5a.3.3,0,0,1-.25-.354l7.45-44.26a.311.311,0,0,1,.354-.25.3.3,0,0,1,.25.348l-7.456,44.26A.3.3,0,0,1,83.545,237.581Z" transform="translate(-63.159 -95.767)" fill="#231f20"/>
  <path id="路径_10582" data-name="路径 10582" d="M148.473,174.655s5.523-6.541,8.724-4.048-6.438,45.461-6.438,45.461H137.89s1.311-26.617,2.853-31.7S148.473,174.655,148.473,174.655Z" transform="translate(-84.492 -86.916)" fill="#231f20"/>
  <path id="路径_10583" data-name="路径 10583" d="M150.587,216.182H137.717a.262.262,0,0,1-.2-.085.232.232,0,0,1-.073-.2c.049-1.091,1.329-26.714,2.865-31.762s7.316-9.468,7.8-9.84c.427-.5,5.773-6.627,9.071-4.06s-5.365,41.315-6.359,45.723a.274.274,0,0,1-.244.22Zm-12.571-.536h12.357c3.859-17.21,8.748-43.236,6.5-44.979-2.963-2.311-8.3,3.944-8.352,4.005l-.043.043c-.061.043-6.133,4.645-7.639,9.577-1.451,4.7-2.7,28.47-2.847,31.342Zm10.3-41.145Z" transform="translate(-84.319 -86.749)" fill="#231f20"/>
  <path id="路径_10584" data-name="路径 10584" d="M106.416,242.78a8.955,8.955,0,0,0-1.926,3.591h11.358l1.475-3.591Z" transform="translate(-71.454 -115.311)" fill="#fff"/>
  <path id="路径_10585" data-name="路径 10585" d="M115.653,246.48H104.3a.311.311,0,0,1-.238-.116.323.323,0,0,1-.061-.256,9.145,9.145,0,0,1,2-3.731.311.311,0,0,1,.226-.1h10.906a.311.311,0,0,1,.256.134.3.3,0,0,1,0,.287l-1.475,3.591A.3.3,0,0,1,115.653,246.48Zm-10.974-.61h10.766l1.219-2.981h-10.3a8.876,8.876,0,0,0-1.677,2.981Z" transform="translate(-71.259 -115.115)" fill="#231f20"/>
  <path id="路径_10586" data-name="路径 10586" d="M89.314,174.176s-.439,4.786,4.566,8.175,21.947,1.616,21.947,1.616L99.05,214.01l14.381,1.183s20.356-33.579,20.063-39.175-8.687-6.627-8.687-6.627H90.862Z" transform="translate(-65.526 -86.662)" fill="#231f20"/>
  <path id="路径_10587" data-name="路径 10587" d="M113.249,215.313h0l-14.4-1.219a.274.274,0,0,1-.219-.14.256.256,0,0,1,0-.256l16.533-29.586c-2.926.274-17.009,1.4-21.606-1.713a9.834,9.834,0,0,1-4.682-8.419v-.055l1.549-4.786a.274.274,0,0,1,.256-.189h33.932c.384.049,8.651,1.128,8.956,6.883.3,5.615-19.265,37.95-20.118,39.328A.268.268,0,0,1,113.249,215.313Zm-13.936-1.707,13.8,1.128c1.439-2.384,20.216-33.609,19.935-38.871s-8.37-6.365-8.45-6.377H90.887l-1.475,4.572a9.381,9.381,0,0,0,4.45,7.895c4.877,3.292,21.587,1.591,21.758,1.573a.262.262,0,0,1,.25.122.274.274,0,0,1,0,.28Z" transform="translate(-65.355 -86.49)" fill="#231f20"/>
  <path id="路径_10588" data-name="路径 10588" d="M80.388,143.287c.11.786.183,1.573.226,2.353.268,4.389-.189,8.846.665,13.156a4,4,0,0,0,.927,2.122,3.89,3.89,0,0,0,1.573.853c3.505,1.085,7.261.927,10.876,1.573s7.4,2.439,8.76,5.84a1.091,1.091,0,0,1-.677,1.713c-2.731,1.055-6.17.36-9.053.347-4.036,0-8.078-.165-12.1-.439a11.313,11.313,0,0,1-4.042-.8c-4.633-2.17-5.846-9.291-6.389-13.741a149.672,149.672,0,0,1-1.079-19.826c0-2.012.7-4.676,2.713-4.694s4.719,3.6,5.609,5.225A18.423,18.423,0,0,1,80.388,143.287Z" transform="translate(-58.014 -71.965)" fill="#fff"/>
  <path id="路径_10589" data-name="路径 10589" d="M98.74,171.562c-.927,0-1.865-.061-2.792-.122s-1.67-.11-2.439-.116c-4.024,0-8.1-.165-12.126-.439a11.473,11.473,0,0,1-4.152-.835c-4.615-2.164-5.95-9.017-6.56-13.979A150.319,150.319,0,0,1,69.593,136.2c0-2.292.829-4.969,3.012-4.993h0c2.371,0,5.09,3.987,5.859,5.383a18.375,18.375,0,0,1,1.994,6.444c.1.744.183,1.548.232,2.378.1,1.567.1,3.158.1,4.7a44.2,44.2,0,0,0,.567,8.4,3.755,3.755,0,0,0,.841,1.969,3.566,3.566,0,0,0,1.481.756A31.866,31.866,0,0,0,90.2,162.3c1.42.128,2.884.256,4.31.512,2.134.384,7.316,1.731,8.992,6.029a1.7,1.7,0,0,1,0,1.488,1.646,1.646,0,0,1-.872.61,10.748,10.748,0,0,1-3.9.628ZM72.617,131.82h0c-1.829,0-2.39,2.768-2.439,4.389A149.065,149.065,0,0,0,71.257,156c.61,4.822,1.866,11.467,6.212,13.5a11.01,11.01,0,0,0,3.95.774c4.011.274,8.072.427,12.083.439.8,0,1.622.061,2.493.116,2.231.146,4.53.3,6.45-.445a1.152,1.152,0,0,0,.573-.372,1.091,1.091,0,0,0-.073-.939c-1.6-4.011-6.5-5.292-8.535-5.651-1.4-.25-2.853-.384-4.267-.512a32.263,32.263,0,0,1-6.651-1.073,4.176,4.176,0,0,1-1.719-.884,4.268,4.268,0,0,1-1.012-2.28,44.62,44.62,0,0,1-.567-8.535c0-1.536,0-3.121-.1-4.67-.049-.817-.122-1.6-.226-2.329h0a17.868,17.868,0,0,0-1.926-6.237C77.067,135.295,74.519,131.82,72.617,131.82Z" transform="translate(-57.827 -71.758)" fill="#231f20"/>
  <path id="路径_10590" data-name="路径 10590" d="M183.492,159.986a7.888,7.888,0,0,1,4.383,2.841.811.811,0,0,1,.213.61c-.067.335-.476.469-.817.506a17.246,17.246,0,0,1-3.3-.226c-2.341-.226-4.719.11-7.054-.189-2.024-.256.28-3.39,1.317-3.835C179.658,159.089,182.084,159.608,183.492,159.986Z" transform="translate(-99.411 -82.769)" fill="#fff"/>
  <path id="路径_10591" data-name="路径 10591" d="M186.473,164.1a14.155,14.155,0,0,1-1.829-.159c-.287-.037-.579-.073-.872-.1a28.051,28.051,0,0,0-3.28-.073,26.161,26.161,0,0,1-3.78-.116,1.073,1.073,0,0,1-1.061-.921c-.171-1.219,1.475-3.146,2.292-3.5,1.427-.61,3.755-.2,5.487.268a8.157,8.157,0,0,1,4.554,2.957,1.11,1.11,0,0,1,.262.86c-.085.415-.476.683-1.085.744A5.75,5.75,0,0,1,186.473,164.1Zm-4.731-.951a16.837,16.837,0,0,1,2.073.085l.89.1a10.272,10.272,0,0,0,2.353.122c.256,0,.518-.116.549-.262s-.079-.268-.165-.378a7.541,7.541,0,0,0-4.213-2.731h0c-2.311-.61-4.066-.725-5.06-.293-.695.3-2.048,2.036-1.933,2.853,0,.1.049.335.536.4a25.712,25.712,0,0,0,3.688.11Z" transform="translate(-99.228 -82.578)" fill="#231f20"/>
  <path id="路径_10592" data-name="路径 10592" d="M86.97,143.26s-8.535-20.179-7.56-31.622c.719-8.5,8.255-12.126,11.059-12.3,2.591-.165,16.375-2,21.4,4.158s4.645,38.773,4.645,38.773Z" transform="translate(-61.633 -59.167)" fill="#ff595e"/>
  <path id="路径_10593" data-name="路径 10593" d="M113.531,107.241l-.171,23.252-9.87-24.812Z" transform="translate(-71.063 -61.792)" fill="#231f20"/>
  <path id="路径_10594" data-name="路径 10594" d="M113.154,130.6a.317.317,0,0,1-.287-.2L102.985,105.6a.3.3,0,0,1,.043-.3.3.3,0,0,1,.287-.11l10.035,1.561a.3.3,0,0,1,.256.3l-.171,23.246a.311.311,0,0,1-.25.3Zm-9.388-24.733,9.1,22.861.159-21.423Z" transform="translate(-70.857 -61.598)" fill="#231f20"/>
  <path id="路径_10595" data-name="路径 10595" d="M131.9,106.4s3.719,7.145,5.907,10.821a74.567,74.567,0,0,0,6.956,8.943s16.85,5.993,16.96,6.316-1.6,5.987-1.6,5.987-17.68-1.274-20.612-2.658-8.858-8.181-8.858-8.181Z" transform="translate(-81.669 -62.073)" fill="#ff595e"/>
  <path id="路径_10596" data-name="路径 10596" d="M112.894,112.45l-1.244,1.957,1.366.811.134,9.382,3.4,8.535.171-7.9-2.829-10.285.841-.994Z" transform="translate(-74.249 -64.435)" fill="#fff"/>
  <path id="路径_10597" data-name="路径 10597" d="M116.359,133.247a.317.317,0,0,1-.287-.2l-3.4-8.535a.348.348,0,0,1,0-.11l-.134-9.206-1.219-.725a.293.293,0,0,1-.14-.189.3.3,0,0,1,.037-.238l1.219-1.957a.3.3,0,0,1,.207-.134.317.317,0,0,1,.244.067l1.829,1.506a.3.3,0,0,1,.037.433l-.738.866,2.792,10.132a.4.4,0,0,1,0,.085l-.171,7.925a.311.311,0,0,1-.25.293Zm-3.091-8.9,2.817,7.084.14-6.352-2.817-10.242a.293.293,0,0,1,.061-.28l.61-.75-1.329-1.091-.89,1.4,1.091.646a.317.317,0,0,1,.152.256Z" transform="translate(-74.063 -64.241)" fill="#231f20"/>
  <path id="路径_10598" data-name="路径 10598" d="M99.63,63.85a4.431,4.431,0,0,1,1.128-.28c1.53-.177,1.555.152,2.737-.835a11.15,11.15,0,0,1,6.261-2.39c4.4-.287,7.6,1.914,6.6,6.706a14.217,14.217,0,0,1-2.573,5.267c-2.487,3.438-5.993,6.56-10.23,6.883-1.219.091-3.609,0-4.524-1.03A11.4,11.4,0,0,1,96.68,67.294,6.359,6.359,0,0,1,97.826,65.1,4.322,4.322,0,0,1,99.63,63.85Z" transform="translate(-68.21 -44.085)" fill="#fff"/>
  <path id="路径_10599" data-name="路径 10599" d="M102.571,79.37c-1.116,0-3.1-.152-4-1.152a11.693,11.693,0,0,1-2.39-11.2,6.706,6.706,0,0,1,1.219-2.3,4.828,4.828,0,0,1,1.9-1.341h0a5.218,5.218,0,0,1,1.219-.3c.408-.043.713-.061.957-.067.652,0,.823-.03,1.622-.7a11.382,11.382,0,0,1,6.438-2.439c2.6-.171,4.7.512,5.92,1.914a5.842,5.842,0,0,1,.994,5.194,14.022,14.022,0,0,1-2.628,5.371c-2.164,3-5.737,6.651-10.449,7.011C103.278,79.351,102.992,79.37,102.571,79.37ZM99.523,63.946a4.115,4.115,0,0,0-1.658,1.164,5.993,5.993,0,0,0-1.085,2.1,11.047,11.047,0,0,0,2.256,10.6c.725.8,2.725,1.042,4.267.927,4.475-.341,7.925-3.865,10-6.761a13.412,13.412,0,0,0,2.524-5.139,5.255,5.255,0,0,0-.853-4.664c-1.1-1.262-3.018-1.865-5.42-1.707a10.888,10.888,0,0,0-6.1,2.317,2.579,2.579,0,0,1-1.957.817,8.9,8.9,0,0,0-.914.067,4.189,4.189,0,0,0-1.049.256Z" transform="translate(-68.005 -43.901)" fill="#231f20"/>
  <path id="路径_10600" data-name="路径 10600" d="M113.682,87.2V93.83a4.857,4.857,0,0,1-5.9,2.548c-4.341-1.11-4.877-4.225-4.877-4.225l.2-12.284s3.249-1.683,2.384-8.7a21.606,21.606,0,0,0,11.3,1.725s1.329,7.675.86,11.059C117.2,87.21,113.743,87.149,113.682,87.2Z" transform="translate(-70.837 -48.321)" fill="#fff"/>
  <path id="路径_10601" data-name="路径 10601" d="M109.167,96.7a6.847,6.847,0,0,1-1.64-.213c-4.481-1.14-5.078-4.335-5.1-4.469l.189-12.339a.311.311,0,0,1,.159-.268s3.048-1.707,2.219-8.395a.3.3,0,0,1,.128-.287.311.311,0,0,1,.317,0,21.392,21.392,0,0,0,11.12,1.677.311.311,0,0,1,.335.25c.055.317,1.329,7.767.866,11.15-.274,2.006-1.683,3.243-3.969,3.5v6.359a.292.292,0,0,1,0,.122A5.17,5.17,0,0,1,109.167,96.7Zm-5.938-16.844-.2,12.114c0,.061.561,2.884,4.645,3.926a4.457,4.457,0,0,0,5.487-2.323V87.01a.3.3,0,0,1,.116-.238.463.463,0,0,1,.28-.079c2.1-.189,3.335-1.219,3.579-2.987.4-2.932-.61-9.273-.817-10.681a22.221,22.221,0,0,1-10.657-1.536C106.246,77.4,103.887,79.413,103.229,79.858Zm10.266,13.784Z" transform="translate(-70.65 -48.133)" fill="#231f20"/>
  <path id="路径_10602" data-name="路径 10602" d="M104.123,83.543a2.865,2.865,0,0,0-.945-1.53,5,5,0,0,0-1.518-.786,2.164,2.164,0,0,0-.914-.177,1.768,1.768,0,0,0-.61.219,2.213,2.213,0,0,0-1.067,1.091A2.591,2.591,0,0,0,99,83.58a5.175,5.175,0,0,0,.317,1.323,3.444,3.444,0,0,0,4.548,1.829" transform="translate(-69.295 -52.177)" fill="#fff"/>
  <path id="路径_10603" data-name="路径 10603" d="M102.29,87.184a3.739,3.739,0,0,1-3.469-2.323,5.487,5.487,0,0,1-.341-1.4,2.865,2.865,0,0,1,.091-1.4,2.439,2.439,0,0,1,1.219-1.219,2.061,2.061,0,0,1,.732-.25,2.371,2.371,0,0,1,1.055.189,5.31,5.31,0,0,1,1.609.841,3.164,3.164,0,0,1,1.03,1.658.3.3,0,0,1-.226.366.311.311,0,0,1-.372-.226,2.53,2.53,0,0,0-.841-1.36,4.81,4.81,0,0,0-1.427-.732,1.878,1.878,0,0,0-.78-.159,1.427,1.427,0,0,0-.506.183,1.951,1.951,0,0,0-.927.927,2.366,2.366,0,0,0-.055,1.1,5.085,5.085,0,0,0,.3,1.219,3.14,3.14,0,0,0,4.146,1.689.311.311,0,0,1,.4.159.3.3,0,0,1-.165.4A3.762,3.762,0,0,1,102.29,87.184Z" transform="translate(-69.089 -51.996)" fill="#231f20"/>
  <path id="路径_10604" data-name="路径 10604" d="M120.026,81.21s2.359,3.353,1.829,3.957-2.054.25-2.054.25" transform="translate(-77.43 -52.24)" fill="#fff"/>
  <path id="路径_10605" data-name="路径 10605" d="M120.534,85.632a4.969,4.969,0,0,1-1-.11.313.313,0,0,1,.14-.61c.524.122,1.457.189,1.756-.152.134-.3-.725-1.981-1.829-3.579a.3.3,0,0,1,.5-.347c.933,1.323,2.439,3.658,1.829,4.328A1.768,1.768,0,0,1,120.534,85.632Z" transform="translate(-77.232 -52.047)" fill="#231f20"/>
  <ellipse id="椭圆_193" data-name="椭圆 193" cx="0.793" cy="0.561" rx="0.793" ry="0.561" transform="translate(40.114 28.994) rotate(-86.47)" fill="#231f20"/>
  <ellipse id="椭圆_194" data-name="椭圆 194" cx="0.561" cy="0.793" rx="0.561" ry="0.793" transform="matrix(0.998, -0.07, 0.07, 0.998, 44.951, 27.51)" fill="#231f20"/>
  <path id="路径_10606" data-name="路径 10606" d="M117.635,91.033a6.815,6.815,0,0,1-4.152-1.116.3.3,0,0,1,.384-.469c1.792,1.439,5.487.86,5.487.853a.309.309,0,0,1,.1.61A12.141,12.141,0,0,1,117.635,91.033Z" transform="translate(-74.929 -55.436)" fill="#231f20"/>
  <path id="路径_10607" data-name="路径 10607" d="M124.61,81.527a4.219,4.219,0,1,1,4.158-3.493A4.219,4.219,0,0,1,124.61,81.527Zm0-7.828a3.615,3.615,0,1,0,.61.055,3.573,3.573,0,0,0-.61-.055Z" transform="translate(-77.661 -49.07)" fill="#231f20"/>
  <path id="路径_10608" data-name="路径 10608" d="M111.163,81a4.351,4.351,0,0,1-.738-.061,4.24,4.24,0,1,1,.744.061Zm0-7.828a3.492,3.492,0,1,0,.61.055,3.714,3.714,0,0,0-.628-.055Z" transform="translate(-72.408 -48.863)" fill="#231f20"/>
  <path id="路径_10609" data-name="路径 10609" d="M116.38,97.183s-4.127.957-6.56-.433c0,0,2.695,5.56,6.56,4.981Z" transform="translate(-73.534 -58.306)" fill="#231f20"/>
  <path id="路径_10610" data-name="路径 10610" d="M115.613,101.881c-3.7,0-6.151-4.975-6.261-5.2a.311.311,0,0,1,.067-.354.3.3,0,0,1,.36-.043c2.3,1.317,6.3.415,6.34.4a.3.3,0,0,1,.372.3v4.548a.3.3,0,0,1-.256.3A4.408,4.408,0,0,1,115.613,101.881ZM110.346,97.2c.866,1.42,2.938,4.267,5.542,4.06v-3.9A11.67,11.67,0,0,1,110.346,97.2Z" transform="translate(-73.341 -58.109)" fill="#231f20"/>
  <path id="路径_10611" data-name="路径 10611" d="M80.7,105.133c-5.109,3.237-11.815,34.39-7.468,37.749,6.81,5.249,25.952-5.127,25.952-5.127l-1.933-9.145s-15.241.421-15.448-2.707,8.858-17.606,7.669-19.765S80.7,105.133,80.7,105.133Z" transform="translate(-58.706 -61.459)" fill="#ff595e"/>
  <path id="路径_10612" data-name="路径 10612" d="M94.138,145.074a.3.3,0,0,1-.293-.22.311.311,0,0,1,.213-.378l8.37-2.353V134.85l-13.345-1.366a.3.3,0,0,1-.219-.122.317.317,0,0,1-.049-.244l5.06-22.746a.312.312,0,0,1,.61.134l-5,22.4,13.278,1.359a.3.3,0,0,1,.274.3v7.785a.3.3,0,0,1-.219.293l-8.6,2.439A.207.207,0,0,1,94.138,145.074Z" transform="translate(-65.332 -63.528)" fill="#231f20"/>
  <path id="路径_10613" data-name="路径 10613" d="M135.639,156.61c-.14.311-.61.219-.908.079l-4.353-1.994a13.627,13.627,0,0,1,2.774,1.829c.165.14.341.329.293.543-.079.366-.61.3-.957.134a31.491,31.491,0,0,1-4.773-2.841l3.365,2.579a.518.518,0,0,1-.524.518,1.549,1.549,0,0,1-.78-.274l-3.725-2.213,2.341,1.64c.366.256.786.665.61,1.079s-.933.341-1.414.122a28.348,28.348,0,0,0-6.023-1.829,9.754,9.754,0,0,0-2.225-.457,20.293,20.293,0,0,0-3.42.75q-2.128.476-4.267.982V151.27a33.787,33.787,0,0,0,7.316-.378,23.6,23.6,0,0,1,5.651-.652,21.648,21.648,0,0,1,7.316,1.67.689.689,0,0,1,.244.165c.219.317-.3.61-.689.61a10.029,10.029,0,0,1-2.981-.372,28.377,28.377,0,0,1,6.737,3.585C135.475,156.08,135.737,156.354,135.639,156.61Z" transform="translate(-74.249 -79.186)" fill="#fff"/>
  <path id="路径_10614" data-name="路径 10614" d="M128.227,158.139a2.36,2.36,0,0,1-.939-.232,27.944,27.944,0,0,0-5.962-1.829c-.256-.055-.506-.128-.75-.2a4.335,4.335,0,0,0-1.414-.256,10.407,10.407,0,0,0-2.292.463c-.366.1-.725.2-1.073.274l-4.219.969a.3.3,0,0,1-.256-.049.274.274,0,0,1-.122-.207v-5.987a.274.274,0,0,1,.085-.2.268.268,0,0,1,.2-.079,33.068,33.068,0,0,0,7.255-.372l.658-.122a20.485,20.485,0,0,1,5.06-.53,21.716,21.716,0,0,1,7.4,1.689.823.823,0,0,1,.36.262.512.512,0,0,1,.043.555,1.164,1.164,0,0,1-.951.512H130.6a29.052,29.052,0,0,1,4.627,2.707c.451.323.61.7.475,1.042a.671.671,0,0,1-.646.372,1.689,1.689,0,0,1-.61-.152l-1.256-.61a.853.853,0,0,1,.354.793.61.61,0,0,1-.317.408,1.286,1.286,0,0,1-1.03-.085c-.323-.165-.646-.329-.963-.5a.683.683,0,0,1-.165.427.9.9,0,0,1-.61.3,1.829,1.829,0,0,1-.927-.311l-.421-.25a.859.859,0,0,1,0,.677.793.793,0,0,1-.445.421,1.141,1.141,0,0,1-.439.091Zm-8.992-3.048a5.487,5.487,0,0,1,1.494.274c.232.067.469.134.713.183a28.323,28.323,0,0,1,6.1,1.872,1.372,1.372,0,0,0,.908.152.213.213,0,0,0,.134-.128c.122-.274-.36-.61-.506-.744l-1.006-.689-1.359-.963a.287.287,0,0,1-.073-.384.28.28,0,0,1,.372-.091l3.749,2.164a1.067,1.067,0,0,0,.61.238.323.323,0,0,0,.219-.1h0l-3.231-2.481a.28.28,0,0,1-.049-.39.274.274,0,0,1,.384-.055,31.634,31.634,0,0,0,4.725,2.859.793.793,0,0,0,.543.085c0-.049,0-.128-.177-.3a13.632,13.632,0,0,0-2.725-1.829.28.28,0,0,1-.122-.372.274.274,0,0,1,.366-.128l1.872.853,2.481,1.134a1.055,1.055,0,0,0,.408.11c.11,0,.122-.031.128-.049h0c0-.049-.061-.2-.287-.354A28.421,28.421,0,0,0,128.2,152.4a.276.276,0,1,1,.171-.524,10.053,10.053,0,0,0,2.9.366.646.646,0,0,0,.469-.207l-.134-.055a20.979,20.979,0,0,0-7.2-1.646,20.221,20.221,0,0,0-4.932.524l-.658.122a33.122,33.122,0,0,1-7.09.39v5.347c1.329-.3,2.621-.61,3.92-.9.335-.073.689-.171,1.042-.268a10.56,10.56,0,0,1,2.439-.482Z" transform="translate(-74.073 -79.008)" fill="#231f20"/>
  <path id="路径_10615" data-name="路径 10615" d="M135.273,133.792a.274.274,0,0,1-.274-.268c-.384-8.376-1.347-21.087-1.36-21.215a.278.278,0,1,1,.555-.043c0,.128.975,12.851,1.359,21.234a.28.28,0,0,1-.268.293Z" transform="translate(-82.832 -64.262)" fill="#231f20"/>
  <rect id="矩形_3381" data-name="矩形 3381" width="77.247" height="55.221" transform="translate(58.653 0.305)" fill="#fff"/>
  <path id="路径_10616" data-name="路径 10616" d="M223.562,89.521H146.315a.3.3,0,0,1-.3-.3V33.995a.3.3,0,0,1,.3-.3h77.247a.3.3,0,0,1,.3.3V89.216A.3.3,0,0,1,223.562,89.521Zm-76.942-.61h76.638V34.3H146.614Z" transform="translate(-87.661 -33.69)" fill="#231f20"/>
  <path id="路径_10617" data-name="路径 10617" d="M213.6,76.509h0a.3.3,0,0,1-.268-.2L203.148,47.984l-11.2,21.843a.317.317,0,0,1-.244.165.3.3,0,0,1-.268-.122L180.324,55.379l-6.986,11.2a.3.3,0,0,1-.415.1l-5.889-3.542a.3.3,0,0,1-.1-.421.3.3,0,0,1,.415-.1L172.977,66l7.06-11.315a.317.317,0,0,1,.244-.146.28.28,0,0,1,.256.122L191.6,69.12l11.327-22.038a.3.3,0,0,1,.561.037L213.64,75.406l4.987-10.547a.3.3,0,0,1,.549.262L213.9,76.332A.3.3,0,0,1,213.6,76.509Z" transform="translate(-95.809 -38.852)" fill="#d1d3d4"/>
  <ellipse id="椭圆_195" data-name="椭圆 195" cx="1.396" cy="1.396" rx="1.396" ry="1.396" transform="translate(75.87 26.141)" fill="#fff"/>
  <path id="路径_10618" data-name="路径 10618" d="M175.911,79.472a1.7,1.7,0,1,1,1.7-1.7A1.7,1.7,0,0,1,175.911,79.472Zm0-2.792A1.091,1.091,0,1,0,177,77.771a1.091,1.091,0,0,0-1.091-1.091Z" transform="translate(-98.67 -50.233)" fill="#d1d3d4"/>
  <ellipse id="椭圆_196" data-name="椭圆 196" cx="1.396" cy="1.396" rx="1.396" ry="1.396" transform="translate(83.094 14.595)" fill="#fff"/>
  <path id="路径_10619" data-name="路径 10619" d="M187.8,60.532a1.7,1.7,0,1,1,1.7-1.7A1.7,1.7,0,0,1,187.8,60.532Zm0-2.792a1.091,1.091,0,1,0,1.091,1.091A1.091,1.091,0,0,0,187.8,57.74Z" transform="translate(-103.311 -42.84)" fill="#d1d3d4"/>
  <ellipse id="椭圆_197" data-name="椭圆 197" cx="1.396" cy="1.396" rx="1.396" ry="1.396" transform="translate(105.992 6.974)" fill="#fff"/>
  <path id="路径_10620" data-name="路径 10620" d="M225.361,48.022a1.7,1.7,0,1,1,1.7-1.695A1.7,1.7,0,0,1,225.361,48.022Zm0-2.786a1.091,1.091,0,1,0,1.091,1.091A1.091,1.091,0,0,0,225.361,45.236Z" transform="translate(-117.973 -37.957)" fill="#d1d3d4"/>
  <ellipse id="椭圆_198" data-name="椭圆 198" cx="1.396" cy="1.396" rx="1.396" ry="1.396" transform="translate(116.398 35.957)" fill="#fff"/>
  <path id="路径_10621" data-name="路径 10621" d="M242.431,95.572a1.7,1.7,0,1,1,1.7-1.677A1.7,1.7,0,0,1,242.431,95.572Zm0-2.792a1.091,1.091,0,1,0,.78.328A1.091,1.091,0,0,0,242.431,92.78Z" transform="translate(-124.637 -56.518)" fill="#d1d3d4"/>
  <ellipse id="椭圆_199" data-name="椭圆 199" cx="1.396" cy="1.396" rx="1.396" ry="1.396" transform="translate(94.445 29.439)" fill="#fff"/>
  <path id="路径_10622" data-name="路径 10622" d="M206.421,84.882a1.7,1.7,0,1,1,1.7-1.7A1.7,1.7,0,0,1,206.421,84.882Zm0-2.792a1.091,1.091,0,1,0,1.091,1.091A1.091,1.091,0,0,0,206.421,82.09Z" transform="translate(-110.58 -52.345)" fill="#d1d3d4"/>
  <path id="路径_10623" data-name="路径 10623" d="M176.353,48.97h-6.468a.3.3,0,0,1-.3-.3.311.311,0,0,1,.3-.3h6.468a.3.3,0,0,1,0,.61Z" transform="translate(-96.862 -39.417)" fill="#d1d3d4"/>
  <path id="路径_10624" data-name="路径 10624" d="M176.353,51.72h-6.468a.311.311,0,0,1-.3-.3.3.3,0,0,1,.3-.3h6.468a.3.3,0,0,1,0,.61Z" transform="translate(-96.862 -40.49)" fill="#d1d3d4"/>
  <path id="路径_10625" data-name="路径 10625" d="M176.353,54.46h-6.468a.3.3,0,0,1-.3-.3.311.311,0,0,1,.3-.3h6.468a.3.3,0,0,1,0,.61Z" transform="translate(-96.862 -41.56)" fill="#d1d3d4"/>
  <path id="路径_10626" data-name="路径 10626" d="M174.115,57.21h-4.2a.311.311,0,0,1-.3-.3.3.3,0,0,1,.3-.3h4.2a.3.3,0,0,1,.3.3A.311.311,0,0,1,174.115,57.21Z" transform="translate(-96.874 -42.633)" fill="#d1d3d4"/>
  <path id="路径_10627" data-name="路径 10627" d="M248,59.61h-6.468a.3.3,0,0,1-.3-.3.311.311,0,0,1,.3-.3H248a.3.3,0,1,1,0,.61Z" transform="translate(-124.832 -43.57)" fill="#d1d3d4"/>
  <path id="路径_10628" data-name="路径 10628" d="M248,62.32h-6.468a.3.3,0,1,1,0-.61H248a.3.3,0,1,1,0,.61Z" transform="translate(-124.832 -44.628)" fill="#d1d3d4"/>
  <path id="路径_10629" data-name="路径 10629" d="M245.842,65.06h-4.267a.3.3,0,0,1-.3-.3.311.311,0,0,1,.3-.3h4.267a.3.3,0,0,1,0,.61Z" transform="translate(-124.847 -45.697)" fill="#d1d3d4"/>
  <path id="路径_10630" data-name="路径 10630" d="M219.628,103.46H164.255a.3.3,0,1,1,0-.61h55.373a.3.3,0,1,1,0,.61Z" transform="translate(-94.665 -60.687)" fill="#d1d3d4"/>
  <path id="路径_10631" data-name="路径 10631" d="M219.628,108.7H164.255a.3.3,0,1,1,0-.61h55.373a.3.3,0,1,1,0,.61Z" transform="translate(-94.665 -62.733)" fill="#d1d3d4"/>
  <path id="路径_10632" data-name="路径 10632" d="M210.5,113.95H164.255a.3.3,0,1,1,0-.61H210.5a.3.3,0,0,1,0,.61Z" transform="translate(-94.665 -64.782)" fill="#d1d3d4"/>
  <line id="直线_8" data-name="直线 8" x1="7.31" y2="44.266" transform="translate(140.985 97.244)" fill="#fff"/>
  <path id="路径_10633" data-name="路径 10633" d="M281.366,237.58h-.049a.3.3,0,0,1-.25-.348l7.316-44.266a.3.3,0,0,1,.348-.25.293.293,0,0,1,.25.348l-7.316,44.266A.311.311,0,0,1,281.366,237.58Z" transform="translate(-140.381 -95.766)" fill="#231f20"/>
  <line id="直线_9" data-name="直线 9" x2="7.456" y2="44.266" transform="translate(156.348 97.244)" fill="#fff"/>
  <path id="路径_10634" data-name="路径 10634" d="M314.032,237.577a.3.3,0,0,1-.3-.256l-7.456-44.266a.3.3,0,0,1,.25-.348.311.311,0,0,1,.354.25l7.456,44.26a.311.311,0,0,1-.25.354Z" transform="translate(-150.222 -95.763)" fill="#231f20"/>
  <path id="路径_10635" data-name="路径 10635" d="M258.687,233.77a9.266,9.266,0,0,1,1.286,6.913C259.138,244.731,249,251.132,249,251.132h13.022a9.9,9.9,0,0,0,6.279-5.365c2.024-4.414.555-5.6.555-5.6l2.3,2.859,3.932-3.457-8.139-11.358Z" transform="translate(-127.865 -109.623)" fill="#231f20"/>
  <path id="路径_10636" data-name="路径 10636" d="M248.829,251.22a.262.262,0,0,1-.256-.2.274.274,0,0,1,.11-.3c.1-.061,10.041-6.383,10.846-10.272a8.657,8.657,0,0,0-1.1-6.45,2.149,2.149,0,0,1-.171-.335.281.281,0,0,1,.1-.311l8.261-5.56a.274.274,0,0,1,.372.067l8.139,11.358a.274.274,0,0,1-.043.36l-3.932,3.457a.262.262,0,0,1-.2.067.274.274,0,0,1-.189-.1l-1.323-1.646a9.3,9.3,0,0,1-1.085,4.328A10.071,10.071,0,0,1,261.9,251.2Zm.9-.536h12.12a9.8,9.8,0,0,0,6.035-5.212c1.518-3.3,1.012-4.7.744-5.127l-.152-.189a.268.268,0,0,1,.378-.378.876.876,0,0,1,.213.256l1.957,2.439,3.536-3.115-7.846-10.973-7.846,5.286.037.055a9.321,9.321,0,0,1,1.146,6.816c-.725,3.512-7.925,8.547-10.327,10.144Zm8.791-17.07Z" transform="translate(-127.694 -109.442)" fill="#231f20"/>
  <path id="路径_10637" data-name="路径 10637" d="M230.964,244.355l-4.92,12.51h-4.267l.713-2.981s-3.81,3.1-4.767,2.981-17.753.238-17.753-.61,11.12-5.6,15.509-7.145,5.938-6.2,5.938-6.2Z" transform="translate(-108.725 -115.361)" fill="#231f20"/>
  <path id="路径_10638" data-name="路径 10638" d="M217.554,256.984h-.073c-.244-.03-1.768-.03-3.694,0-8.8,0-13.662-.067-14.186-.61a.335.335,0,0,1-.11-.25c0-1.219,13.04-6.468,15.692-7.4,4.206-1.488,5.755-5.981,5.767-6.029a.268.268,0,0,1,.3-.177l9.571,1.427a.252.252,0,0,1,.189.366l-4.9,12.522a.268.268,0,0,1-.25.171h-4.267a.268.268,0,0,1-.262-.329l.537-2.219C220.675,255.332,218.438,256.984,217.554,256.984Zm-1.975-.573c1.14,0,1.78,0,1.969.03.567.091,3.018-1.664,4.56-2.92a.281.281,0,0,1,.433.293l-.61,2.646H225.7l4.731-12.028-9.023-1.347a10.727,10.727,0,0,1-6.023,6.151c-4.53,1.6-14.022,5.725-15.241,6.822,1.4.408,9.608.39,13.656.378Z" transform="translate(-108.538 -115.207)" fill="#231f20"/>
  <path id="路径_10639" data-name="路径 10639" d="M257.551,165.28s-37.188,3.255-37.493,12.546,27.647,33.683,27.647,33.683l9.846-8.419s-24.282-20.673-20.728-24.245,12.461-.512,12.461-.512Z" transform="translate(-116.566 -85.058)" fill="#231f20"/>
  <path id="路径_10640" data-name="路径 10640" d="M247.534,211.608a.268.268,0,0,1-.177-.067c-.073-.061-7.072-6.188-13.949-13.369-9.273-9.687-13.912-16.594-13.79-20.52.3-9.425,36.213-12.674,37.743-12.8a.25.25,0,0,1,.25.128.262.262,0,0,1,0,.28l-8.248,13.052a.274.274,0,0,1-.317.11c-.085,0-8.767-2.963-12.193.451a1.085,1.085,0,0,0-.28.847c.213,5.273,20.764,22.825,20.972,23a.305.305,0,0,1,.1.207.256.256,0,0,1-.1.2l-9.852,8.419A.262.262,0,0,1,247.534,211.608Zm9.327-46.18c-4.578.451-36.444,3.889-36.706,12.242-.268,8.681,25,31.232,27.379,33.317l9.437-8.066c-2.439-2.091-20.728-17.936-20.923-23.166a1.628,1.628,0,0,1,.433-1.25c3.4-3.39,11.15-1.1,12.54-.646Z" transform="translate(-116.394 -84.888)" fill="#231f20"/>
  <path id="路径_10641" data-name="路径 10641" d="M283.059,170.121s-2.231,8.248-5.907,9.206-14.869,3.573-19.045,5.487S244.4,215.789,244.4,215.789H228.07s14.82-32.311,18.631-37.8,11.406-10.711,11.406-10.711Z" transform="translate(-119.694 -85.838)" fill="#231f20"/>
  <path id="路径_10642" data-name="路径 10642" d="M244.231,215.869H227.905a.262.262,0,0,1-.226-.122.274.274,0,0,1,0-.256c.61-1.323,14.869-32.415,18.655-37.853s11.4-10.711,11.455-10.778a.244.244,0,0,1,.183-.043l24.953,2.859a.262.262,0,0,1,.2.116.274.274,0,0,1,.037.219c-.1.341-2.317,8.407-6.1,9.388l-2.4.61c-4.914,1.219-13.144,3.28-16.6,4.877-3.219,1.469-10.278,20.8-13.564,30.817a.268.268,0,0,1-.262.165Zm-15.905-.537h15.71c.9-2.707,9.687-29.08,13.79-30.957,3.505-1.6,11.76-3.658,16.692-4.877l2.4-.61c3.1-.8,5.188-7.23,5.627-8.712l-24.538-2.81c-.829.61-7.724,5.487-11.254,10.583s-16.747,33.731-18.429,37.383Z" transform="translate(-119.53 -85.657)" fill="#231f20"/>
  <path id="路径_10643" data-name="路径 10643" d="M300.918,143.275c-.11.786-.183,1.573-.232,2.353-.262,4.389.189,8.846-.664,13.156a4,4,0,0,1-.927,2.122,3.89,3.89,0,0,1-1.6.835c-3.5,1.085-7.261.927-10.87,1.573s-7.407,2.439-8.761,5.84a1.366,1.366,0,0,0-.049,1.219,1.433,1.433,0,0,0,.719.494c2.731,1.055,6.17.36,9.053.348q6.06,0,12.107-.439a11.37,11.37,0,0,0,4.042-.8c4.627-2.17,5.84-9.291,6.383-13.741A149.669,149.669,0,0,0,311.2,136.4c0-2.012-.7-4.676-2.719-4.694s-4.713,3.6-5.609,5.225A18.412,18.412,0,0,0,300.918,143.275Z" transform="translate(-139.065 -71.953)" fill="#fff"/>
  <path id="路径_10644" data-name="路径 10644" d="M282.148,171.546a10.76,10.76,0,0,1-3.926-.61,1.646,1.646,0,0,1-.872-.61,1.7,1.7,0,0,1,0-1.488c1.713-4.267,6.858-5.645,8.992-6.029,1.427-.256,2.89-.384,4.31-.512a31.865,31.865,0,0,0,6.523-1.055,3.53,3.53,0,0,0,1.481-.756,3.773,3.773,0,0,0,.841-1.969,44.2,44.2,0,0,0,.555-8.413c0-1.542,0-3.134.1-4.7.049-.823.128-1.628.232-2.378h0a18.5,18.5,0,0,1,2.018-6.474c.768-1.4,3.493-5.383,5.865-5.383h0c2.182,0,2.987,2.7,3.048,4.993a150.319,150.319,0,0,1-1.1,19.9c-.61,4.962-1.939,11.815-6.56,13.979a11.449,11.449,0,0,1-4.152.835c-4.024.274-8.1.427-12.126.439-.78,0-1.591.061-2.439.116S283.069,171.546,282.148,171.546Zm18.868-28.44c-.1.738-.177,1.518-.226,2.329-.091,1.548-.1,3.134-.1,4.664a44.646,44.646,0,0,1-.567,8.535,4.268,4.268,0,0,1-1.012,2.28,4.176,4.176,0,0,1-1.725.908,32.261,32.261,0,0,1-6.651,1.073c-1.4.128-2.859.262-4.267.512-2.03.36-6.932,1.64-8.535,5.651a1.091,1.091,0,0,0-.073.939,1.152,1.152,0,0,0,.573.372c1.92.744,4.225.61,6.45.445.872-.055,1.695-.11,2.493-.116,4.011,0,8.078-.165,12.083-.439a10.973,10.973,0,0,0,3.932-.774c4.347-2.042,5.627-8.681,6.212-13.5a149.061,149.061,0,0,0,1.085-19.789c0-1.622-.555-4.371-2.438-4.389h0c-1.908,0-4.456,3.475-5.328,5.066a17.911,17.911,0,0,0-1.926,6.237Z" transform="translate(-138.865 -71.742)" fill="#231f20"/>
  <path id="路径_10645" data-name="路径 10645" d="M292.633,75.572S288.042,88.7,286,91.422l11.906,4.463L300.144,74.7Z" transform="translate(-142.308 -49.699)" fill="#fff"/>
  <path id="路径_10646" data-name="路径 10646" d="M297.71,96.062a.238.238,0,0,1-.11,0l-11.906-4.456a.311.311,0,0,1-.14-.469c2-2.67,6.554-15.656,6.6-15.79a.311.311,0,0,1,.256-.2l7.511-.847a.28.28,0,0,1,.244.085.286.286,0,0,1,.091.25L298,95.776a.292.292,0,0,1-.14.226A.3.3,0,0,1,297.71,96.062Zm-11.437-4.914,11.175,4.182,2.158-20.411-6.944.786c-.561,1.579-4.371,12.3-6.389,15.43Z" transform="translate(-142.111 -49.541)" fill="#231f20"/>
  <path id="路径_10647" data-name="路径 10647" d="M228.8,113.1s-2.67-2.89-2.835-3.926-.384-4.652-1.262-4.018-.671,3.219-.671,3.219-3.658-4.365-4.713-3.432a4.5,4.5,0,0,0-1.591,3.761c-.073,1.933,9.108,9.888,9.108,9.888" transform="translate(-115.658 -61.455)" fill="#fff"/>
  <path id="路径_10648" data-name="路径 10648" d="M226.642,118.705a.317.317,0,0,1-.2-.073c-.951-.829-9.291-8.145-9.212-10.132a4.73,4.73,0,0,1,1.695-3.975.92.92,0,0,1,.665-.207c1.128.091,2.981,1.981,3.92,3.048,0-.872.159-2.152.823-2.628a.61.61,0,0,1,.61-.085c.561.25.793,1.39,1.042,3.554.037.3.067.567.1.75.11.689,1.75,2.676,2.762,3.768a.3.3,0,0,1-.427.433c-.28-.3-2.743-2.987-2.92-4.085-.03-.189-.061-.463-.1-.78-.085-.713-.335-2.878-.683-3.048-.537.408-.61,2.036-.543,2.969a.3.3,0,0,1-.189.3.293.293,0,0,1-.348-.085c-.78-.933-3.048-3.371-4.066-3.451a.244.244,0,0,0-.213.055,4.262,4.262,0,0,0-1.488,3.542c-.049,1.28,5.487,6.6,9,9.645a.311.311,0,0,1,.03.433.317.317,0,0,1-.262.049Z" transform="translate(-115.463 -61.259)" fill="#231f20"/>
  <path id="路径_10649" data-name="路径 10649" d="M227.24,114.445a.3.3,0,0,1-.28-.177,4.182,4.182,0,0,1,.28-3.981.306.306,0,0,1,.5.354,3.56,3.56,0,0,0-.226,3.377.3.3,0,0,1-.152.4.311.311,0,0,1-.122.024Z" transform="translate(-119.114 -63.54)" fill="#231f20"/>
  <path id="路径_10650" data-name="路径 10650" d="M287.1,142.857c-.39,1.219-1.616,2.012-3.353,2.512-.268.994-.439,1.548-.439,1.548l-28.891-3.31,5.6-19.179s-3.786,5.456-8.663,7.895-22.648-13.967-22.648-13.967l4.377-6.1a70.15,70.15,0,0,0,17.137,8.846c8.474-7.779,13.443-13.034,15.851-13.126,6.511-.244,11.949-.579,17.216,2.871,2.792,1.829,3.14.756,3.792,4.828h0a35.356,35.356,0,0,1,.415,5.121v.079C287.979,127.488,288.479,138.522,287.1,142.857Z" transform="translate(-119.944 -62.635)" fill="#ff595e"/>
  <path id="路径_10651" data-name="路径 10651" d="M304.144,98.2l3.091.512-5.444,6.889c-4.1,5.164-9.029,11.37-9.309,11.583s-1.183-8.157-1.829-14.479c-.372-3.8-.652-6.846-.652-6.846l5.487.914.988-4.31s-3.975.043-4.03-2.957a26.363,26.363,0,0,1,.408-4.688c.433-2.6,1.658-5.3,2.439-7.852a6.853,6.853,0,0,1,2.2.073s1.6.238,1.268-.274c.238.055,4.1,1.158,8.462,2.054-.811,3.877-1.445,8.279-1.512,8.736Z" transform="translate(-143.87 -50.507)" fill="#fff"/>
  <path id="路径_10652" data-name="路径 10652" d="M292.239,117.291a.28.28,0,0,1-.122-.03c-.274-.116-.536-.232-1.975-14.729-.372-3.8-.652-6.852-.652-6.852a.323.323,0,0,1,.1-.25.311.311,0,0,1,.256-.079l5.219.872.847-3.658c-1.536-.091-3.914-.841-3.957-3.243a26.684,26.684,0,0,1,.415-4.743,30.519,30.519,0,0,1,1.5-5.139c.317-.908.652-1.829.921-2.749a.293.293,0,0,1,.244-.213,7.1,7.1,0,0,1,2.3.073h0a3.944,3.944,0,0,0,.915.037.3.3,0,0,1,.061-.189.293.293,0,0,1,.317-.122l.256.073c2.9.793,5.664,1.463,8.194,1.981a.3.3,0,0,1,.238.36c-.671,3.2-1.219,6.779-1.5,8.626l-1.542,10.449,2.792.469a.317.317,0,0,1,.238.189.311.311,0,0,1-.049.3l-5.438,6.889c-7.523,9.48-9.145,11.48-9.37,11.632a.372.372,0,0,1-.2.049Zm-2.1-21.27c.085.939.323,3.463.61,6.45.957,9.681,1.408,12.93,1.616,13.942,1.353-1.6,6.785-8.444,8.962-11.193l5.121-6.48-2.579-.433a.3.3,0,0,1-.25-.347L305.2,87.211c.268-1.829.8-5.225,1.445-8.358-2.439-.512-5.072-1.152-7.84-1.908l-.03.037c-.3.317-1.219.213-1.555.152h0a6.706,6.706,0,0,0-1.914-.1c-.256.854-.573,1.737-.872,2.591a30.8,30.8,0,0,0-1.475,5.042,26.523,26.523,0,0,0-.4,4.633c.049,2.652,3.566,2.652,3.725,2.652a.4.4,0,0,1,.238.116.3.3,0,0,1,.061.256l-.994,4.31a.3.3,0,0,1-.348.232Z" transform="translate(-143.67 -50.31)" fill="#231f20"/>
  <path id="路径_10653" data-name="路径 10653" d="M302.134,91.345c-.457,0-1.433-.073-1.792-.658s.963-2.286,2.189-3.536a.3.3,0,1,1,.433.427c-1.171,1.219-2.152,2.506-2.1,2.81.2.311,1.067.366,1.457.341a.305.305,0,1,1,.037.61Z" transform="translate(-147.883 -54.517)" fill="#231f20"/>
  <ellipse id="椭圆_200" data-name="椭圆 200" cx="0.646" cy="0.341" rx="0.646" ry="0.341" transform="translate(152.17 32.3) rotate(-77.06)" fill="#231f20"/>
  <ellipse id="椭圆_201" data-name="椭圆 201" cx="0.646" cy="0.341" rx="0.646" ry="0.341" transform="translate(156.965 33.651) rotate(-77.06)" fill="#231f20"/>
  <path id="路径_10654" data-name="路径 10654" d="M299.07,77.144l.61-1.219.451,1.445,3.78,1.122,1.073-1.542-.116,2.091,1.987.207s-3.743,9.346-3.6,15.15c0,0,11.242,3.1,14.156,1.091,0,0-3.194-11.5-3.048-16.1s-.128-8.535-5.6-10.632-9.382-1.451-12.272,1.055a8.456,8.456,0,0,0-2.762,6.1S297.93,77.04,299.07,77.144Z" transform="translate(-145.326 -46.887)" fill="#fff"/>
  <path id="路径_10655" data-name="路径 10655" d="M313.864,96.275A50.614,50.614,0,0,1,303,94.5a.311.311,0,0,1-.226-.287c-.128-5.206,2.774-13.071,3.481-14.893l-1.567-.159a.3.3,0,0,1-.274-.317l.055-1.018-.433.646a.3.3,0,0,1-.341.128l-3.78-1.122a.293.293,0,0,1-.2-.2l-.232-.738-.293.561a.323.323,0,0,1-.3.165c-1.158-.11-5.225-1.189-5.4-1.219a.3.3,0,0,1-.226-.28,8.681,8.681,0,0,1,2.865-6.352c3.152-2.749,7.389-3.121,12.589-1.1,5.6,2.17,5.938,6.231,5.792,10.919-.146,4.511,3.006,15.9,3.048,16.015a.3.3,0,0,1-.116.335A7.084,7.084,0,0,1,313.864,96.275Zm-10.48-2.3c1.542.408,10.711,2.731,13.5,1.219-.457-1.664-3.14-11.675-3-15.979.146-4.609-.158-8.3-5.4-10.364-5.042-1.957-8.962-1.628-11.967.994a8.2,8.2,0,0,0-2.652,5.651c.835.219,3.719.963,4.877,1.128l.536-1.03a.3.3,0,0,1,.561.049l.4,1.286,3.408,1.012.921-1.378a.3.3,0,0,1,.561.183l-.1,1.829,1.7.177a.3.3,0,0,1,.232.146.317.317,0,0,1,0,.268c-.031.1-3.621,9.126-3.579,14.814Z" transform="translate(-145.146 -46.706)" fill="#231f20"/>
  <path id="路径_10656" data-name="路径 10656" d="M300.1,96.083a4.636,4.636,0,0,1-3.121-1.591.3.3,0,0,1,.463-.4,4.046,4.046,0,0,0,2.658,1.378h.037a3.279,3.279,0,0,0,2.536-1.53.3.3,0,0,1,.482.372,3.953,3.953,0,0,1-3.012,1.768Z" transform="translate(-146.567 -57.17)" fill="#231f20"/>
  <path id="路径_10657" data-name="路径 10657" d="M300.042,101.926s3.14-.079,4.475-.9c0,0-1.927,4.1-5.487,5.389Z" transform="translate(-147.395 -59.977)" fill="#231f20"/>
  <path id="路径_10658" data-name="路径 10658" d="M298.808,106.529a.28.28,0,0,1-.2-.079.3.3,0,0,1-.091-.293l1.03-4.493a.311.311,0,0,1,.287-.238c.03,0,3.079-.085,4.328-.854a.311.311,0,0,1,.366.037.3.3,0,0,1,.067.354c-.079.171-2.024,4.231-5.682,5.548A.286.286,0,0,1,298.808,106.529Zm1.28-4.505-.854,3.7a10.925,10.925,0,0,0,4.389-4.267,14.7,14.7,0,0,1-3.542.579Z" transform="translate(-147.191 -59.781)" fill="#231f20"/>
  <path id="路径_10659" data-name="路径 10659" d="M297.5,155.5a114.8,114.8,0,0,1-15.528-1.311.3.3,0,0,1-.256-.262l-.61-5.718a.3.3,0,0,1,.219-.329c.61-.165,14.692-3.969,16.954-3.822a.347.347,0,0,0,.262-.122c1.286-1.219,1.286-9.078,1.177-11.992a.3.3,0,1,1,.61,0c.043,1.1.348,10.8-1.366,12.449a.92.92,0,0,1-.725.287c-1.683-.122-11.388,2.353-16.5,3.737l.579,5.231c1.878.287,14.826,2.164,21.843.732a.3.3,0,0,1,.36.238.3.3,0,0,1-.238.36A35.036,35.036,0,0,1,297.5,155.5Z" transform="translate(-140.398 -71.926)" fill="#231f20"/>
  <path id="路径_10660" data-name="路径 10660" d="M302.208,122.216c-4.1,5.164-9.029,11.37-9.309,11.583s-1.183-8.157-1.829-14.479Z" transform="translate(-144.287 -67.117)" fill="#231f20"/>
  <path id="路径_10661" data-name="路径 10661" d="M292.66,133.906a.275.275,0,0,1-.122,0c-.274-.122-.536-.232-1.969-14.729a.293.293,0,0,1,.1-.262.311.311,0,0,1,.274-.061l11.12,2.908a.317.317,0,0,1,.213.2.292.292,0,0,1-.055.28c-7.517,9.48-9.145,11.473-9.364,11.632A.366.366,0,0,1,292.66,133.906Zm-1.42-14.357c.927,9.352,1.366,12.516,1.573,13.51,1.292-1.53,6.34-7.883,8.675-10.827Z" transform="translate(-144.091 -66.931)" fill="#231f20"/>
  <path id="路径_10662" data-name="路径 10662" d="M273.312,158.853s-5.377-.451-7.791.677-4.926,2.536-4.371,3.444,13.29,1.524,13.29,1.524Z" transform="translate(-132.577 -82.514)" fill="#fff"/>
  <path id="路径_10663" data-name="路径 10663" d="M274.254,164.608h0c-3.877-.189-12.955-.725-13.534-1.67a.847.847,0,0,1-.085-.7c.159-.518.8-1.42,4.578-3.176,2.439-1.146,7.73-.725,7.925-.7a.293.293,0,0,1,.274.244l1.128,5.639a.3.3,0,0,1-.3.366Zm-3.6-5.731a14.194,14.194,0,0,0-5.194.732c-3.451,1.609-4.146,2.439-4.267,2.8a.244.244,0,0,0,0,.207c.506.476,6.761,1.061,12.65,1.359l-1-5.03C272.492,158.92,271.657,158.877,270.657,158.877Z" transform="translate(-132.391 -82.319)" fill="#231f20"/>
  <rect id="矩形_3382" data-name="矩形 3382" width="177.612" height="5.383" transform="translate(2.457 81.423)" fill="#fff"/>
  <path id="路径_10664" data-name="路径 10664" d="M231.747,172.743H54.135a.3.3,0,0,1-.3-.3v-5.383a.3.3,0,0,1,.3-.3H231.747a.3.3,0,0,1,.3.3v5.383A.3.3,0,0,1,231.747,172.743Zm-177.307-.61h177V167.36h-177Z" transform="translate(-51.678 -85.631)" fill="#231f20"/>
  <path id="路径_10665" data-name="路径 10665" d="M138.04,153.885l6.078-20.295h25.5l-5.407,20.124Z" transform="translate(-84.55 -72.687)" fill="#fff"/>
  <path id="路径_10666" data-name="路径 10666" d="M137.807,153.995a.311.311,0,0,1-.244-.122.3.3,0,0,1-.043-.268l6.1-20.295a.3.3,0,0,1,.293-.219h25.507a.3.3,0,0,1,.238.122.292.292,0,0,1,.055.262L164.3,153.592a.3.3,0,0,1-.293.226l-26.166.171Zm6.3-20.295-5.889,19.685,25.526-.165,5.243-19.508Z" transform="translate(-84.342 -72.492)" fill="#231f20"/>
  <path id="路径_10667" data-name="路径 10667" d="M241.311,210.256h-.079a.311.311,0,0,1-.238-.378c1.049-3.8,5.932-12.193,6.133-12.534a.311.311,0,0,1,.421-.11.3.3,0,0,1,.1.415c-.049.085-5.042,8.663-6.1,12.388A.3.3,0,0,1,241.311,210.256Z" transform="translate(-124.736 -97.515)" fill="#fff"/>
  <ellipse id="椭圆_202" data-name="椭圆 202" cx="3.28" cy="2.158" rx="3.28" ry="2.158" transform="translate(66.236 70.53) rotate(-39.03)" fill="#ff595e"/>
  <path id="路径_10668" data-name="路径 10668" d="M141.944,206.26a.323.323,0,0,1-.146-.037.3.3,0,0,1-.122-.415c5.121-9.327,12.522-23.855,11.949-25.6a.3.3,0,0,1,.2-.384.3.3,0,0,1,.384.2c.835,2.6-10.675,23.715-11.992,26.111A.3.3,0,0,1,141.944,206.26Z" transform="translate(-85.955 -90.728)" fill="#fff"/>
  <path id="路径_10669" data-name="路径 10669" d="M101.894,248.67s-4.054,7.791-4.054,10.449h30.11s1.024-2.664-3.1-3.542-11.583-2.621-12.309-3.969.713-2.938.713-2.938Z" transform="translate(-68.858 -117.61)" fill="#231f20"/>
  <path id="路径_10670" data-name="路径 10670" d="M127.778,259.216H97.668a.268.268,0,0,1-.268-.268c0-2.695,3.914-10.254,4.085-10.577a.262.262,0,0,1,.238-.14H113.08a.268.268,0,0,1,.244.158.274.274,0,0,1-.043.287s-1.292,1.469-.677,2.634c.469.9,5.005,2.329,12.126,3.835a4.356,4.356,0,0,1,3.127,1.878,2.579,2.579,0,0,1,.171,2.018A.268.268,0,0,1,127.778,259.216Zm-29.83-.536h29.622a2.042,2.042,0,0,0-.189-1.408,3.873,3.873,0,0,0-2.762-1.6c-5.3-1.122-11.772-2.743-12.491-4.109a2.788,2.788,0,0,1,.408-2.792h-10.65C101.357,249.8,98.174,256.106,97.949,258.679Z" transform="translate(-68.686 -117.438)" fill="#231f20"/>
  <path id="路径_10671" data-name="路径 10671" d="M232.521,265.92H50.6a.3.3,0,1,1,0-.61H232.521a.3.3,0,0,1,0,.61Z" transform="translate(-50.3 -124.105)" fill="#231f20"/>
</svg>
