<svg id="数据分析" xmlns="http://www.w3.org/2000/svg" width="203.753" height="153.72" viewBox="0 0 203.753 153.72">
  <path id="路径_9078" data-name="路径 9078" d="M257.076,230.563H63.837a.337.337,0,0,1,0-.673h193.24a.336.336,0,0,1,.337.337A.343.343,0,0,1,257.076,230.563Z" transform="translate(-53.66 -99.255)" fill="#231f20"/>
  <rect id="矩形_3243" data-name="矩形 3243" width="130.534" height="97.932" transform="translate(41.162 6.387)" fill="#fff"/>
  <path id="路径_9079" data-name="路径 9079" d="M240.4,143.4H109.83a.35.35,0,0,1-.35-.35V45.113a.343.343,0,0,1,.35-.343H240.4a.343.343,0,0,1,.343.343v97.932a.343.343,0,0,1-.343.35Zm-130.184-.673H240.041V45.463H110.207Z" transform="translate(-68.694 -38.726)" fill="#231f20"/>
  <path id="路径_9080" data-name="路径 9080" d="M154.045,154.212H144a.323.323,0,0,1-.323-.323V106.023A.33.33,0,0,1,144,105.7h10.042a.33.33,0,0,1,.323.323v47.866A.323.323,0,0,1,154.045,154.212Zm-9.719-.639h9.422V106.346h-9.422Z" transform="translate(-79.877 -58.649)" fill="#d1d3d4"/>
  <path id="路径_9081" data-name="路径 9081" d="M181.565,163.831H171.523a.323.323,0,0,1-.323-.323V135.436a.323.323,0,0,1,.323-.316h10.042a.323.323,0,0,1,.323.316v28.072A.323.323,0,0,1,181.565,163.831Zm-9.719-.639h9.422V135.759h-9.422Z" transform="translate(-88.875 -68.268)" fill="#d1d3d4"/>
  <path id="路径_9082" data-name="路径 9082" d="M209.088,157.567H199.046a.316.316,0,0,1-.316-.323V116.276a.316.316,0,0,1,.316-.316h10.042a.316.316,0,0,1,.323.316v40.967a.316.316,0,0,1-.323.323Zm-9.719-.639h9.422V116.6h-9.422Z" transform="translate(-97.877 -62.003)" fill="#d1d3d4"/>
  <path id="路径_9083" data-name="路径 9083" d="M236.608,168.929H226.566a.316.316,0,0,1-.316-.323V151.033a.323.323,0,0,1,.316-.323h10.041a.323.323,0,0,1,.323.323v17.573a.316.316,0,0,1-.323.323Zm-9.719-.639h9.422V151.356h-9.422Z" transform="translate(-106.875 -73.366)" fill="#d1d3d4"/>
  <path id="路径_9084" data-name="路径 9084" d="M264.135,157.567H254.093a.316.316,0,0,1-.323-.323V116.276a.316.316,0,0,1,.323-.316h10.042a.316.316,0,0,1,.316.316v40.967a.316.316,0,0,1-.316.323Zm-9.725-.639h9.422V116.6h-9.422Z" transform="translate(-115.873 -62.003)" fill="#d1d3d4"/>
  <path id="路径_9085" data-name="路径 9085" d="M260.394,81.483H243.406a.337.337,0,1,1,0-.673h16.987a.337.337,0,0,1,0,.673Z" transform="translate(-112.375 -50.51)" fill="#d1d3d4"/>
  <path id="路径_9086" data-name="路径 9086" d="M260.378,87.068H243.39a.323.323,0,1,1,0-.639h16.987a.323.323,0,1,1,0,.639Z" transform="translate(-112.359 -52.346)" fill="#d1d3d4"/>
  <path id="路径_9087" data-name="路径 9087" d="M254.464,92.673H243.406a.337.337,0,0,1,0-.673h11.058a.337.337,0,0,1,0,.673Z" transform="translate(-112.375 -54.169)" fill="#d1d3d4"/>
  <path id="路径_9088" data-name="路径 9088" d="M162.228,69.008H145.24a.323.323,0,1,1,0-.639h16.987a.323.323,0,1,1,0,.639Z" transform="translate(-80.266 -46.441)" fill="#d1d3d4"/>
  <path id="路径_9089" data-name="路径 9089" d="M156.335,74.563H145.257a.337.337,0,0,1,0-.673h11.078a.337.337,0,0,1,0,.673Z" transform="translate(-80.282 -48.248)" fill="#d1d3d4"/>
  <path id="路径_9090" data-name="路径 9090" d="M207.71,113.025c-5.25,0-9.873-5.923-13.6-10.7-2.49-3.19-4.846-6.2-6.515-6.2h-.04c-1.817.054-4.247,1.46-6.831,2.955-3.432,2.019-7.329,4.233-10.957,4.038-6.8-.37-19.679-15.52-20.191-16.153a.316.316,0,0,1,0-.451.33.33,0,0,1,.458.04c.128.155,13.245,15.581,19.767,15.931,3.439.2,7.249-2.019,10.607-3.957,2.645-1.528,5.149-2.982,7.127-3.042h.067c1.979,0,4.206,2.854,7.013,6.448,3.675,4.664,8.191,10.459,13.1,10.459h.3c4.422-.215,6.495-4,8.7-8,2.019-3.735,4.166-7.592,8.352-8.393a.322.322,0,1,1,.121.633c-3.89.74-5.936,4.469-7.908,8.076-2.187,3.984-4.449,8.076-9.227,8.332Z" transform="translate(-81.773 -52.351)" fill="#d1d3d4"/>
  <path id="路径_9091" data-name="路径 9091" d="M232.76,177.468H131.92a.323.323,0,1,1,0-.639H232.76a.323.323,0,0,1,0,.639Z" transform="translate(-75.911 -81.904)" fill="#d1d3d4"/>
  <path id="路径_9092" data-name="路径 9092" d="M149.359,87.828a2.019,2.019,0,1,1,2.019-2.019A2.019,2.019,0,0,1,149.359,87.828Zm0-3.365a1.343,1.343,0,1,1,0,.007Z" transform="translate(-81.074 -51.485)" fill="#d1d3d4"/>
  <path id="路径_9093" data-name="路径 9093" d="M260.919,102.088a2.019,2.019,0,1,1,2.019-2.019,2.019,2.019,0,0,1-2.019,2.019Zm0-3.365a1.339,1.339,0,1,1,0,.013Z" transform="translate(-117.551 -56.147)" fill="#d1d3d4"/>
  <rect id="矩形_3244" data-name="矩形 3244" width="130.534" height="7.908" transform="translate(41.162 6.387)" fill="#fff"/>
  <path id="路径_9094" data-name="路径 9094" d="M240.4,53.371H109.83a.343.343,0,0,1-.35-.343V45.113a.343.343,0,0,1,.35-.343H240.4a.343.343,0,0,1,.343.343V53a.343.343,0,0,1-.343.37ZM110.214,52.7H240.041V45.463H110.207Z" transform="translate(-68.694 -38.726)" fill="#231f20"/>
  <rect id="矩形_3245" data-name="矩形 3245" width="55.639" height="39.049" transform="translate(98.471 0.337)" fill="#fff"/>
  <path id="路径_9095" data-name="路径 9095" d="M250.659,75.519H195.02a.35.35,0,0,1-.35-.343V36.14a.35.35,0,0,1,.35-.35h55.639a.343.343,0,0,1,.343.35V75.176A.343.343,0,0,1,250.659,75.519Zm-55.289-.673h54.939V36.483H195.37Z" transform="translate(-96.549 -35.79)" fill="#231f20"/>
  <path id="路径_9096" data-name="路径 9096" d="M217.095,51.488l10.25,10.243a.525.525,0,0,0,.411.175h15.7A15.143,15.143,0,1,1,216.96,51.36Z" transform="translate(-102.599 -40.881)" fill="#ff595e"/>
  <path id="路径_9097" data-name="路径 9097" d="M236.44,43.71V58.328h14.282c.31,0,.31,0,.289-.323A15.278,15.278,0,0,0,242,45.016a15.588,15.588,0,0,0-4.893-1.238Z" transform="translate(-110.207 -38.38)" fill="#d1d3d4"/>
  <path id="路径_9098" data-name="路径 9098" d="M229.945,58.14V43.73a16.435,16.435,0,0,0-4.967,1.043,15.648,15.648,0,0,0-5.108,3.3Z" transform="translate(-104.789 -38.386)" fill="#d1d3d4"/>
  <path id="路径_9099" data-name="路径 9099" d="M266.014,77.673h-6.468a.337.337,0,1,1,0-.673h6.468a.337.337,0,0,1,0,.673Z" transform="translate(-117.652 -49.265)" fill="#d1d3d4"/>
  <path id="路径_9100" data-name="路径 9100" d="M266.014,81.973h-6.468a.337.337,0,1,1,0-.673h6.468a.337.337,0,0,1,0,.673Z" transform="translate(-117.652 -50.67)" fill="#d1d3d4"/>
  <path id="路径_9101" data-name="路径 9101" d="M264.083,86.263h-4.536a.337.337,0,1,1,0-.673h4.536a.337.337,0,1,1,0,.673Z" transform="translate(-117.652 -52.073)" fill="#d1d3d4"/>
  <path id="路径_9102" data-name="路径 9102" d="M214.622,42h-6.946a.337.337,0,0,1,0-.673h6.946a.337.337,0,1,1,0,.673Z" transform="translate(-100.692 -37.601)" fill="#d1d3d4"/>
  <path id="路径_9103" data-name="路径 9103" d="M214.622,44.773h-6.946a.337.337,0,0,1,0-.673h6.946a.337.337,0,1,1,0,.673Z" transform="translate(-100.692 -38.507)" fill="#d1d3d4"/>
  <path id="路径_9104" data-name="路径 9104" d="M212.549,47.533h-4.873a.337.337,0,0,1,0-.673h4.873a.337.337,0,1,1,0,.673Z" transform="translate(-100.692 -39.41)" fill="#d1d3d4"/>
  <path id="路径_9105" data-name="路径 9105" d="M113.84,237.92s.377,8.2.754,8.4,5.674.673,6.616-.74l.673-5.855Z" transform="translate(-70.12 -101.881)" fill="#fff"/>
  <path id="路径_9106" data-name="路径 9106" d="M117.162,246.75a10.211,10.211,0,0,1-2.847-.3c-.209-.108-.552-.289-.936-8.682a.343.343,0,0,1,.121-.283.323.323,0,0,1,.3-.074l8.029,1.8a.343.343,0,0,1,.269.377l-.673,5.849a.3.3,0,0,1-.054.155C120.749,246.494,118.825,246.75,117.162,246.75Zm-2.477-.868c.781.188,5.169.464,6.057-.592l.619-5.445L114.08,238.2A73.76,73.76,0,0,0,114.685,245.882ZM114.685,245.956Z" transform="translate(-69.969 -101.713)" fill="#231f20"/>
  <path id="路径_9107" data-name="路径 9107" d="M75.3,244.463s-.882,4.469-.565,4.785,4.59.673,5.283.5a8.933,8.933,0,0,0,2.2-1.635l1.386-5.721Z" transform="translate(-57.312 -103.342)" fill="#fff"/>
  <path id="路径_9108" data-name="路径 9108" d="M79.142,249.955c-1.5,0-4.415-.242-4.819-.673-.128-.135-.444-.444.471-5.095a.357.357,0,0,1,.262-.269l8.3-2.073a.363.363,0,0,1,.33.087.35.35,0,0,1,.094.33L82.393,248a.35.35,0,0,1-.094.168,8.965,8.965,0,0,1-2.349,1.716A4.1,4.1,0,0,1,79.142,249.955Zm-4.287-1.117a21.6,21.6,0,0,0,4.906.4,8.076,8.076,0,0,0,2.019-1.487l1.225-5.061-7.538,1.878a26.186,26.186,0,0,0-.612,4.274ZM74.855,248.892Z" transform="translate(-57.148 -103.161)" fill="#231f20"/>
  <path id="路径_9109" data-name="路径 9109" d="M77.483,146.911s-1.508,38.733-3.883,62.221c0,0,4.038,2.692,11.6.458,0,0,7.551-29.553,6.508-54.313,0,0,7.349,32.622,7.094,53.129a22.761,22.761,0,0,0,10.849-2.16s-1.575-47.556-4.4-60.391-2.934-11.065-2.934-11.065l-23.065,7.242Z" transform="translate(-56.963 -68.133)" fill="#231f20"/>
  <path id="路径_9110" data-name="路径 9110" d="M79.275,210.666a11.52,11.52,0,0,1-6.057-1.427.337.337,0,0,1-.148-.31c2.349-23.213,3.87-61.811,3.883-62.2a.269.269,0,0,1,0-.1l1.79-4.879a.35.35,0,0,1,.215-.209l22.883-7.208a.357.357,0,0,1,.256-.141c.39,0,.72-.061,3.251,11.442,2.8,12.713,4.395,59.967,4.408,60.445a.323.323,0,0,1-.182.31A22.789,22.789,0,0,1,98.6,208.573a.337.337,0,0,1-.31-.343c.2-16.274-4.462-40.489-6.326-49.508.222,23.724-6.535,50.477-6.609,50.78a.337.337,0,0,1-.229.242A20.373,20.373,0,0,1,79.275,210.666Zm-5.492-1.9c.828.451,4.63,2.214,10.97.37.633-2.544,7.4-30.616,6.448-54.031a.337.337,0,0,1,.666-.088c.074.323,7.275,32.554,7.107,52.887a22.674,22.674,0,0,0,10.163-2.066c-.121-3.5-1.7-47.893-4.388-60.108-1.75-7.922-2.423-10.149-2.692-10.768l-22.694,7.174-1.723,4.678C77.579,148.458,76.078,185.926,73.783,208.768Z" transform="translate(-56.789 -67.964)" fill="#231f20"/>
  <path id="路径_9111" data-name="路径 9111" d="M89.187,66.046c-.323-1.434-1.117-2.6-1.447-4.038a9.207,9.207,0,0,1,.2-4.778,3.709,3.709,0,0,1,.969-1.683c.451-.411.915-.2,1.427-.357a3.151,3.151,0,0,0,1.09-.673,6.6,6.6,0,0,1,3.284-1.306,9.692,9.692,0,0,1,4.563.37,5.674,5.674,0,0,1,3.365,3.015c.673,1.541.3,3.183.283,4.792a6.32,6.32,0,0,1-1.757,4.227,7.188,7.188,0,0,1-4,2.066,12.619,12.619,0,0,1-4.55-.121,6.333,6.333,0,0,1-2.268-.767C89.645,66.336,89.376,66.827,89.187,66.046Z" transform="translate(-61.512 -41.447)" fill="#fff"/>
  <path id="路径_9112" data-name="路径 9112" d="M95.188,67.992a15.236,15.236,0,0,1-2.773-.283,6.945,6.945,0,0,1-2.389-.814.929.929,0,0,0-.5-.162c-.4-.047-.673-.182-.781-.781a10.467,10.467,0,0,0-.673-1.959,11.6,11.6,0,0,1-.74-2.073,9.422,9.422,0,0,1,.2-4.96A4.179,4.179,0,0,1,88.6,55.123a1.568,1.568,0,0,1,1.1-.37,2.086,2.086,0,0,0,.464-.054,1.346,1.346,0,0,0,.633-.377c.094-.081.2-.175.343-.276A6.905,6.905,0,0,1,94.6,52.7a9.961,9.961,0,0,1,4.711.39,5.97,5.97,0,0,1,3.533,3.2,8.117,8.117,0,0,1,.357,3.769c0,.384-.047.774-.054,1.164a6.6,6.6,0,0,1-1.891,4.422,7.551,7.551,0,0,1-4.186,2.174A10.486,10.486,0,0,1,95.188,67.992Zm-5.694-1.959h.088a1.7,1.7,0,0,1,.814.289,6.151,6.151,0,0,0,2.147.727,12.269,12.269,0,0,0,4.429.114,6.851,6.851,0,0,0,3.8-1.959,5.963,5.963,0,0,0,1.662-4c0-.4.034-.794.054-1.2a7.592,7.592,0,0,0-.3-3.453,5.283,5.283,0,0,0-3.136-2.82,9.355,9.355,0,0,0-4.395-.357,6.259,6.259,0,0,0-3.123,1.238l-.33.262a2.019,2.019,0,0,1-.9.518,2.47,2.47,0,0,1-.633.081.909.909,0,0,0-.673.2,3.365,3.365,0,0,0-.868,1.528,8.749,8.749,0,0,0-.182,4.6,10.9,10.9,0,0,0,.673,1.952,11.744,11.744,0,0,1,.74,2.086h0c.04.182.074.229.081.229Z" transform="translate(-61.375 -41.279)" fill="#231f20"/>
  <path id="路径_9113" data-name="路径 9113" d="M109.786,124.746c-1.9-8.857-5.384-37.542-6.246-37.918-2.019-.936-12.788-1.985-15.251,2.16-.761,1.3-1.259,29.573-.283,37.111Z" transform="translate(-61.496 -52.2)" fill="#fff"/>
  <path id="路径_9114" data-name="路径 9114" d="M87.838,126.281a.35.35,0,0,1-.343-.3c-.976-7.538-.5-35.913.33-37.333,2.618-4.469,13.743-3.19,15.688-2.3.525.236,1,2.881,3.163,17.674,1.178,8.076,2.4,16.355,3.278,20.487a.343.343,0,0,1-.316.417l-21.772,1.346Zm9.295-40.112c-3.533,0-7.444.673-8.709,2.827-.673,1.346-1.252,28.22-.276,36.566l21.046-1.306c-.882-4.267-2.059-12.33-3.2-20.137-1.117-7.619-2.376-16.233-2.84-17.176A19.336,19.336,0,0,0,97.133,86.169ZM103.136,86.9Z" transform="translate(-61.327 -52.033)" fill="#231f20"/>
  <path id="路径_9115" data-name="路径 9115" d="M102.2,92.754l-1.373,3.231,3.325,19.235-2.362,4-3.823-2.807L99.306,95.83,95.9,91.61Z" transform="translate(-64.254 -54.042)" fill="#231f20"/>
  <path id="路径_9116" data-name="路径 9116" d="M101.639,119.4a.3.3,0,0,1-.2-.067l-3.83-2.807a.323.323,0,0,1-.135-.289l1.346-20.46L95.5,91.656a.323.323,0,0,1,0-.377.337.337,0,0,1,.35-.162l6.3,1.137a.35.35,0,0,1,.236.175.337.337,0,0,1,0,.289l-1.346,3.143,3.3,19.134a.336.336,0,0,1-.04.229l-2.362,4.038a.33.33,0,0,1-.222.155Zm-3.48-3.3,3.365,2.477,2.107-3.581-3.3-19.114a.3.3,0,0,1,0-.188l1.211-2.84-5-.909,2.84,3.513a.363.363,0,0,1,.074.236Z" transform="translate(-64.104 -53.879)" fill="#231f20"/>
  <path id="路径_9117" data-name="路径 9117" d="M90.352,133.927,87.3,86.479l10.378-.37-.289,47.072h10.957c-1.521-13.413-1.669-45.174-2.941-46.553-4.779-5.189-17.021-3.453-17.021-3.453s-8.823.424-11.616,5.586c-.673,1.3-.983,40.382-.888,45.988Z" transform="translate(-57.703 -51.192)" fill="#ff595e"/>
  <path id="路径_9118" data-name="路径 9118" d="M102.178,76.233l.559,3.621s-.572,5.27-4.556,4.348a8.6,8.6,0,0,1-5.566-4.516l-.5-9.57s2.928-1.6,2.019-8a19.706,19.706,0,0,0,10.338,1.346s1.42,6.576.969,9.658A3.406,3.406,0,0,1,102.178,76.233Z" transform="translate(-63.015 -44.399)" fill="#fff"/>
  <path id="路径_9119" data-name="路径 9119" d="M98.912,84.479a4.241,4.241,0,0,1-.983-.114,8.857,8.857,0,0,1-5.8-4.711.323.323,0,0,1,0-.121l-.538-9.591a.35.35,0,0,1,.182-.323s2.692-1.6,1.831-7.632a.343.343,0,0,1,.491-.363,19.619,19.619,0,0,0,10.143,1.346.337.337,0,0,1,.39.269c.054.269,1.427,6.676.969,9.786a3.729,3.729,0,0,1-3.19,3.365l.5,3.264a.2.2,0,0,1,0,.088c0,.121-.337,2.914-2.107,4.173A3.17,3.17,0,0,1,98.912,84.479Zm-6.125-5.054a8.292,8.292,0,0,0,5.3,4.26,2.753,2.753,0,0,0,2.309-.363c1.413-1,1.77-3.3,1.817-3.641l-.552-3.574a.357.357,0,0,1,.081-.276.33.33,0,0,1,.256-.121,3.042,3.042,0,0,0,2.907-2.807c.384-2.611-.626-7.895-.9-9.227a20.326,20.326,0,0,1-9.644-1.137c.592,5.216-1.42,7.141-2.066,7.612Z" transform="translate(-62.845 -44.225)" fill="#231f20"/>
  <path id="路径_9120" data-name="路径 9120" d="M103.673,69.84s1.891,3.473,1.346,3.991-2.019,0-2.019,0" transform="translate(-66.576 -46.923)" fill="#fff"/>
  <path id="路径_9121" data-name="路径 9121" d="M104.048,74.239A4.429,4.429,0,0,1,102.7,74a.337.337,0,0,1-.2-.431.33.33,0,0,1,.431-.2c.4.141,1.346.343,1.656.054.128-.289-.511-1.972-1.386-3.581a.33.33,0,0,1,.128-.458.336.336,0,0,1,.458.135c.922,1.689,1.884,3.823,1.252,4.4A1.508,1.508,0,0,1,104.048,74.239Z" transform="translate(-66.406 -46.759)" fill="#231f20"/>
  <ellipse id="椭圆_109" data-name="椭圆 109" cx="0.39" cy="0.895" rx="0.39" ry="0.895" transform="matrix(0.999, -0.042, 0.042, 0.999, 34.811, 21.408)" fill="#231f20"/>
  <ellipse id="椭圆_110" data-name="椭圆 110" cx="0.39" cy="0.895" rx="0.39" ry="0.895" transform="matrix(0.999, -0.042, 0.042, 0.999, 39.935, 21.408)" fill="#231f20"/>
  <path id="路径_9122" data-name="路径 9122" d="M93.548,70.576A5.5,5.5,0,0,0,92.2,69.021a1.878,1.878,0,0,0-1.023-.451,1.7,1.7,0,0,0-.875.262,3.224,3.224,0,0,0-1.535,2.147,2.625,2.625,0,0,0,.027,1.245,2.854,2.854,0,0,0,1.238,1.487,8.385,8.385,0,0,0,1.817.787" transform="translate(-61.903 -46.508)" fill="#fff"/>
  <path id="路径_9123" data-name="路径 9123" d="M91.678,74.689h-.114a8.936,8.936,0,0,1-1.884-.821,3.183,3.183,0,0,1-1.386-1.683,2.874,2.874,0,0,1-.054-1.42,3.587,3.587,0,0,1,1.7-2.383A1.9,1.9,0,0,1,91,68.08a2.187,2.187,0,0,1,1.218.518,5.923,5.923,0,0,1,1.46,1.656.35.35,0,0,1-.128.478.343.343,0,0,1-.471-.128,5.209,5.209,0,0,0-1.285-1.454,1.481,1.481,0,0,0-.821-.377,1.225,1.225,0,0,0-.673.215A2.867,2.867,0,0,0,88.952,70.9a2.3,2.3,0,0,0,0,1.077,2.544,2.544,0,0,0,1.124,1.292,8.559,8.559,0,0,0,1.743.747.343.343,0,0,1,.215.437A.35.35,0,0,1,91.678,74.689Z" transform="translate(-61.728 -46.348)" fill="#231f20"/>
  <path id="路径_9124" data-name="路径 9124" d="M103.823,82.554a10.91,10.91,0,0,1-6.683-1.1s3.406,5.236,7.208,4.5Z" transform="translate(-64.66 -50.72)" fill="#231f20"/>
  <path id="路径_9125" data-name="路径 9125" d="M103.427,86.2c-3.621,0-6.6-4.516-6.73-4.711a.343.343,0,0,1,0-.411A.336.336,0,0,1,97.1,81a10.627,10.627,0,0,0,6.508,1.063.33.33,0,0,1,.4.276l.525,3.365a.33.33,0,0,1-.269.377,4.181,4.181,0,0,1-.841.114Zm-5.384-4.079c1.131,1.346,3.365,3.621,5.781,3.365l-.424-2.692a11.206,11.206,0,0,1-5.384-.673Z" transform="translate(-64.492 -50.561)" fill="#231f20"/>
  <path id="路径_9126" data-name="路径 9126" d="M97.964,70.585a3.278,3.278,0,1,1,3.271-3.271A3.278,3.278,0,0,1,97.964,70.585Zm0-5.855a2.584,2.584,0,1,0,2.578,2.584A2.584,2.584,0,0,0,97.964,64.73Z" transform="translate(-63.855 -45.024)" fill="#231f20"/>
  <path id="路径_9127" data-name="路径 9127" d="M107.344,70.585a3.278,3.278,0,1,1,3.271-3.271A3.278,3.278,0,0,1,107.344,70.585Zm0-5.855a2.584,2.584,0,1,0,2.578,2.584A2.584,2.584,0,0,0,107.344,64.73Z" transform="translate(-66.922 -45.024)" fill="#231f20"/>
  <path id="路径_9128" data-name="路径 9128" d="M165.1,98.688c0-.451,2.234-1.676,2.6-2.019l3.991-3.863a2.349,2.349,0,0,1,1.42-.808.471.471,0,0,1,.289.061c.256.168.135.565,0,.828a25.29,25.29,0,0,1-2.019,3.008q2.9-1.817,5.9-3.459a1.029,1.029,0,0,1,1-.148.861.861,0,0,1,.33.586,4.126,4.126,0,0,1-.673,2.753c-1.494,2.645-4.038,4.442-6.589,5.963-1.238.734-2.308,1.588-3.513,2.383-.236.162-2.436,1.346-2.43,1.609Z" transform="translate(-86.881 -54.168)" fill="#fff"/>
  <path id="路径_9129" data-name="路径 9129" d="M165.233,105.7a.343.343,0,0,1-.343-.33l-.31-6.831h0c0-.451.572-.882,1.918-1.75a8.912,8.912,0,0,0,.787-.545l2.638-2.551,1.346-1.346a2.692,2.692,0,0,1,1.669-.922.841.841,0,0,1,.5.121c.363.249.4.754.088,1.292s-.673,1.09-1.01,1.615c1.454-.875,2.934-1.73,4.415-2.544a1.346,1.346,0,0,1,1.346-.141,1.151,1.151,0,0,1,.485.814,4.354,4.354,0,0,1-.673,2.995c-1.561,2.766-4.274,4.63-6.73,6.057-.74.437-1.407.915-2.107,1.413-.458.323-.909.673-1.386.962-.054.04-.209.128-.417.242a15.982,15.982,0,0,0-1.878,1.185.343.343,0,0,1-.31.236Zm.047-7.174.269,6.057c.337-.229.828-.518,1.548-.936.188-.1.33-.182.377-.215.471-.31.915-.626,1.346-.949.673-.485,1.393-.989,2.154-1.447,2.369-1.407,4.987-3.2,6.468-5.828a3.722,3.722,0,0,0,.612-2.517.552.552,0,0,0-.168-.363c-.168-.1-.532.1-.673.162-1.985,1.09-3.964,2.248-5.876,3.453a.35.35,0,0,1-.444-.061.337.337,0,0,1,0-.444,26.554,26.554,0,0,0,2.046-2.955.788.788,0,0,0,.121-.377H173a2.06,2.06,0,0,0-1.191.734l-1.346,1.346-2.638,2.551a6.777,6.777,0,0,1-.9.626,9.316,9.316,0,0,0-1.649,1.178ZM165.28,98.482Z" transform="translate(-86.711 -53.981)" fill="#231f20"/>
  <path id="路径_9130" data-name="路径 9130" d="M118.616,88.44s11.26,9.254,13.42,10.324,18.172-3.776,18.172-3.776l4.274,7.545s-16.563,8.218-23.226,7.962-15-11.724-15-11.724" transform="translate(-70.911 -53.005)" fill="#ff595e"/>
  <path id="路径_9131" data-name="路径 9131" d="M173.012,101.634a.33.33,0,0,1-.2-.067.35.35,0,0,1-.081-.485c1.454-2.019.828-3.291.8-3.365a.35.35,0,0,1,.612-.33c0,.061.875,1.662-.848,4.038a.35.35,0,0,1-.283.209Z" transform="translate(-89.354 -55.881)" fill="#231f20"/>
  <path id="路径_9132" data-name="路径 9132" d="M102.336,78.278a4.415,4.415,0,0,1-3.776-2.133.337.337,0,0,1,.087-.471.343.343,0,0,1,.471.094,3.8,3.8,0,0,0,4.711,1.555.337.337,0,0,1,.276.612A4.744,4.744,0,0,1,102.336,78.278Z" transform="translate(-65.104 -48.812)" fill="#231f20"/>
  <path id="路径_9133" data-name="路径 9133" d="M121.419,117.361h0a.343.343,0,0,1-.31-.377l1.723-17.714a.35.35,0,0,1,.673.067l-1.723,17.714A.357.357,0,0,1,121.419,117.361Z" transform="translate(-72.496 -56.472)" fill="#231f20"/>
  <path id="路径_9134" data-name="路径 9134" d="M92.69,128.656l4.247-20.346,18.959,1.454-5.236,20.824Z" transform="translate(-63.205 -59.502)" fill="#fff"/>
  <path id="路径_9135" data-name="路径 9135" d="M110.489,130.77h-.04l-17.97-1.932a.377.377,0,0,1-.242-.141.343.343,0,0,1-.061-.276l4.254-20.346a.343.343,0,0,1,.363-.276l18.959,1.481a.35.35,0,0,1,.256.141.343.343,0,0,1,.054.289l-5.236,20.823a.35.35,0,0,1-.337.236Zm-17.553-2.584,17.29,1.858,5.061-20.13-18.246-1.4Z" transform="translate(-63.034 -59.335)" fill="#231f20"/>
  <path id="路径_9136" data-name="路径 9136" d="M86.55,122.515a52.233,52.233,0,0,1,6.165-3.648c2.221-.808,4.274-1.05,4.563.1s-.545,4.038-1.434,4.711-2.82,1.252-3.9,2.3-5.384,2.4-5.384,2.4Z" transform="translate(-61.197 -62.73)" fill="#fff"/>
  <path id="路径_9137" data-name="路径 9137" d="M86.383,128.538a.363.363,0,0,1-.343-.35v-5.842a.337.337,0,0,1,.148-.289,50.811,50.811,0,0,1,6.246-3.681c1.158-.431,3.271-1.057,4.368-.471a1.232,1.232,0,0,1,.673.808c.31,1.232-.511,4.254-1.561,5.054a8.849,8.849,0,0,1-1.561.855,8.944,8.944,0,0,0-2.329,1.42c-1.131,1.1-5.384,2.423-5.532,2.477A.3.3,0,0,1,86.383,128.538Zm.35-6.01v5.182c1.4-.464,4.038-1.44,4.805-2.167A9.671,9.671,0,0,1,94.049,124a9.168,9.168,0,0,0,1.42-.774,6.381,6.381,0,0,0,1.306-4.341.545.545,0,0,0-.3-.363c-.619-.33-2.019-.135-3.809.512a48.961,48.961,0,0,0-5.936,3.5Z" transform="translate(-61.03 -62.561)" fill="#231f20"/>
  <path id="路径_9138" data-name="路径 9138" d="M69.7,88.44S48.88,110.5,48.88,120.214s26.013-.437,26.013-.437l.5-9.072-13.252,3.688,12.788-12.559Z" transform="translate(-48.88 -53.005)" fill="#ff595e"/>
  <path id="路径_9139" data-name="路径 9139" d="M63.83,126.23a.343.343,0,0,1-.337-.256.337.337,0,0,1,.242-.424l16.341-4.556a.349.349,0,0,1,.182.673L63.883,126.23Z" transform="translate(-53.653 -63.645)" fill="#231f20"/>
  <path id="路径_9140" data-name="路径 9140" d="M73.281,119.821a.35.35,0,0,1-.256-.586l7.773-8.527a.35.35,0,0,1,.512.471l-7.773,8.527A.35.35,0,0,1,73.281,119.821Z" transform="translate(-56.745 -60.258)" fill="#231f20"/>
  <path id="路径_9141" data-name="路径 9141" d="M74.7,252.027a12.693,12.693,0,0,0-.067,3.3c.222,1.42,16.691,6.057,16.974,3.022s-9.422-7.457-9.422-7.457S76.524,252.983,74.7,252.027Z" transform="translate(-57.275 -106.122)" fill="#231f20"/>
  <path id="路径_9142" data-name="路径 9142" d="M88.986,259.562c-4.254,0-14.6-2.753-14.854-4.307a13.01,13.01,0,0,1,.074-3.406.323.323,0,0,1,.175-.249.357.357,0,0,1,.31,0c1.386.72,5.68-.586,7.215-1.151a.37.37,0,0,1,.256,0c1.016.464,9.907,4.624,9.611,7.794-.074.814-.915,1.252-2.5,1.3Zm-14.134-7.2a11.529,11.529,0,0,0,0,2.793c.464.929,11.441,4.361,15.338,3.648.612-.114.942-.323.969-.612.209-2.248-6.38-5.795-9.1-7.06-.989.31-5.2,1.743-7.242,1.2Z" transform="translate(-57.111 -105.97)" fill="#231f20"/>
  <path id="路径_9143" data-name="路径 9143" d="M114.634,250.04s-1.7,3.6,0,5.108,17.277,4.247,16.9,2.073S121.25,249.3,121.25,249.3,116.687,250.592,114.634,250.04Z" transform="translate(-70.133 -105.602)" fill="#231f20"/>
  <path id="路径_9144" data-name="路径 9144" d="M128.759,258.188c-4.529,0-13.151-1.716-14.551-2.961-1.864-1.656-.155-5.344-.081-5.5a.337.337,0,0,1,.39-.182c1.965.525,6.394-.727,6.434-.74a.323.323,0,0,1,.262,0c1.03.6,10.055,5.9,10.445,8.164a.754.754,0,0,1-.451.835A5.761,5.761,0,0,1,128.759,258.188Zm-14.134-7.928c-.33.8-1.232,3.365,0,4.462,1.514,1.346,14.255,3.621,16.227,2.524.128-.074.121-.114.121-.135-.256-1.454-6.212-5.384-10-7.625-.734.209-4.314,1.137-6.34.787Z" transform="translate(-69.957 -105.431)" fill="#231f20"/>
  <circle id="椭圆_111" data-name="椭圆 111" cx="1.036" cy="1.036" r="1.036" transform="translate(44.844 9.106)" fill="#ff595e"/>
  <circle id="椭圆_112" data-name="椭圆 112" cx="1.036" cy="1.036" r="1.036" transform="translate(48.209 9.106)" fill="#ff595e"/>
  <circle id="椭圆_113" data-name="椭圆 113" cx="1.036" cy="1.036" r="1.036" transform="translate(51.574 9.106)" fill="#ff595e"/>
  <path id="路径_9145" data-name="路径 9145" d="M316.11,206.14s1.958,21.84,4.489,31.255c.437,1.622,6.057,1.716,7.5.781s-1.084-30.6-1.09-30.643Z" transform="translate(-136.257 -91.49)" fill="#fff"/>
  <path id="路径_9146" data-name="路径 9146" d="M324.665,238.95a9.683,9.683,0,0,1-3.271-.485,1.891,1.891,0,0,1-1.3-1.151c-2.51-9.335-4.476-31.094-4.5-31.309a.343.343,0,0,1,.39-.377l10.89,1.386a.343.343,0,0,1,.3.276c.061.276,2.692,29.882.942,31.006A7.255,7.255,0,0,1,324.665,238.95Zm-8.332-32.575c.289,3.109,2.134,22.21,4.429,30.764.067.242.377.485.875.673,1.77.673,5.149.518,6.1-.1,1.03-1.346-.841-26.013-1.225-30.044Z" transform="translate(-136.089 -91.322)" fill="#231f20"/>
  <path id="路径_9147" data-name="路径 9147" d="M286.4,203.21l-.673,30.024s4.314,3.271,7.572,2.517l3.951-31.013Z" transform="translate(-126.323 -90.532)" fill="#fff"/>
  <path id="路径_9148" data-name="路径 9148" d="M292.125,236.054c-3.143,0-6.589-2.584-6.73-2.692a.363.363,0,0,1-.135-.289l.673-30.017a.343.343,0,0,1,.121-.256.363.363,0,0,1,.276-.081l10.822,1.535a.35.35,0,0,1,.3.39l-3.944,31.02a.357.357,0,0,1-.269.3A5.1,5.1,0,0,1,292.125,236.054Zm-6.192-3.156c.734.525,4.2,2.847,6.912,2.4l3.87-30.428-10.1-1.42Z" transform="translate(-126.17 -90.37)" fill="#231f20"/>
  <path id="路径_9149" data-name="路径 9149" d="M285.208,144.3l-2.928,48.653s26.248,6.609,37.138,1.467c0,0-3.183-37.8-9.51-49.865Z" transform="translate(-125.195 -71.27)" fill="#231f20"/>
  <path id="路径_9150" data-name="路径 9150" d="M307.436,196.533a86.623,86.623,0,0,1-10.876-.8,139.022,139.022,0,0,1-14.524-2.692.343.343,0,0,1-.256-.35l2.928-48.653a.336.336,0,0,1,.337-.316h0l24.7.256a.343.343,0,0,1,.3.182c6.293,11.987,9.517,49.616,9.55,49.993a.33.33,0,0,1-.2.33C316.575,195.866,312.571,196.533,307.436,196.533Zm-24.969-4.038c2.793.673,26.248,6.1,36.431,1.514-.283-3.2-3.453-37.764-9.362-49.32l-24.175-.249Z" transform="translate(-125.031 -71.08)" fill="#231f20"/>
  <path id="路径_9151" data-name="路径 9151" d="M260.086,139.91a5.685,5.685,0,0,1-2.955,1.03c-1.245-.141-4.038-.6-4.153.9s3.116,6.34,3.109,6.387,7.45-4.395,7.45-4.395Z" transform="translate(-115.613 -69.834)" fill="#fff"/>
  <path id="路径_9152" data-name="路径 9152" d="M255.851,148.387a.256.256,0,0,1-.1-.034.383.383,0,0,1-.128-.148,1.494,1.494,0,0,0-.162-.262c-2.066-3.291-3.042-5.344-2.982-6.286a1.238,1.238,0,0,1,.458-.915c.841-.673,2.625-.478,3.809-.337l.256.034a5.43,5.43,0,0,0,2.733-.969.33.33,0,0,1,.444.054l3.453,3.924a.363.363,0,0,1,.081.276.35.35,0,0,1-.161.236C257.049,147.829,256.113,148.387,255.851,148.387Zm-1-7.457a2.537,2.537,0,0,0-1.494.33.572.572,0,0,0-.209.437c0,.538.437,2.019,2.874,5.889h0c.962-.552,4.328-2.551,6.811-4.038l-2.995-3.405a5.289,5.289,0,0,1-2.934.922h-.269A14.8,14.8,0,0,0,254.848,140.93Z" transform="translate(-115.45 -69.67)" fill="#231f20"/>
  <path id="路径_9153" data-name="路径 9153" d="M281.491,92.69s-7.733,21.86-10.317,23.024-10.264,7.8-10.264,7.8l4.361,6.69s9.254-5.8,13.09-9.247S281.491,92.69,281.491,92.69Z" transform="translate(-118.208 -54.395)" fill="#ff595e"/>
  <rect id="矩形_3246" data-name="矩形 3246" width="16.294" height="20.521" transform="translate(122.587 73.949) rotate(-28.76)" fill="#fff"/>
  <path id="路径_9154" data-name="路径 9154" d="M240.733,160.021a.262.262,0,0,1-.1,0,.323.323,0,0,1-.2-.161l-9.88-17.99a.35.35,0,0,1,.141-.471l14.282-7.861a.37.37,0,0,1,.269,0,.337.337,0,0,1,.2.168l9.88,17.99a.35.35,0,0,1-.141.471l-14.248,7.814A.384.384,0,0,1,240.733,160.021Zm-9.422-18.172,9.537,17.384,13.676-7.511-9.537-17.378Z" transform="translate(-108.268 -67.742)" fill="#231f20"/>
  <path id="路径_9155" data-name="路径 9155" d="M302.59,64.1c1.487,1.541,1.743,2.793,2.255,4.772a25.316,25.316,0,0,0,2.12,5.27c1.777,3.432,4,6.643,5.384,10.284a9.935,9.935,0,0,1,.767,3.856,7.632,7.632,0,0,1-3.621,5.95,11.367,11.367,0,0,1-6.952,1.548,6.637,6.637,0,0,1-2.692-.673,6.327,6.327,0,0,1-2.255-2.322,19.471,19.471,0,0,1-2.376-7.047c-.363-2.107-.673-4.287-2.322-5.855-1.218-1.164-2.934-1.6-4.361-2.5a8.386,8.386,0,0,1-3.789-6.73c-.081-2.6,1.077-4.388,2.423-6.461.673-1.01,2.463-3.082,3.527-1.016-.451-.868,1.434-2.234,2.053-2.416a9.423,9.423,0,0,1,4.038.135,11.334,11.334,0,0,1,5.8,3.2Z" transform="translate(-126.001 -43.904)" fill="#fff"/>
  <path id="路径_9156" data-name="路径 9156" d="M303.389,95.962a9.54,9.54,0,0,1-1.057-.04,7.174,7.174,0,0,1-2.82-.72,6.521,6.521,0,0,1-2.369-2.43,20,20,0,0,1-2.416-7.168l-.034-.2c-.343-1.985-.673-4.038-2.2-5.478a9.221,9.221,0,0,0-2.564-1.555,15.867,15.867,0,0,1-1.743-.9,8.655,8.655,0,0,1-3.937-7.013c-.081-2.692,1.1-4.509,2.457-6.609.249-.377,1.454-2.127,2.692-2.059a1.306,1.306,0,0,1,.841.35,4.617,4.617,0,0,1,2.208-1.878,9.752,9.752,0,0,1,4.2.128,11.663,11.663,0,0,1,5.97,3.325h0a8.687,8.687,0,0,1,2.255,4.6l.081.316a24.9,24.9,0,0,0,2.1,5.2c.6,1.171,1.265,2.329,1.911,3.453a46.579,46.579,0,0,1,3.466,6.872,10.1,10.1,0,0,1,.787,3.978,7.915,7.915,0,0,1-3.769,6.192A11.327,11.327,0,0,1,303.389,95.962ZM289.356,62.4c-.673,0-1.561.9-2.12,1.75-1.346,2.019-2.45,3.789-2.369,6.286a8.009,8.009,0,0,0,3.641,6.508,17.324,17.324,0,0,0,1.683.875,9.72,9.72,0,0,1,2.726,1.662c1.656,1.582,2.019,3.735,2.383,5.815l.034.209a19.471,19.471,0,0,0,2.329,6.939,5.963,5.963,0,0,0,2.147,2.214,6.474,6.474,0,0,0,2.571.673,11.092,11.092,0,0,0,6.764-1.508,7.309,7.309,0,0,0,3.486-5.7,9.563,9.563,0,0,0-.754-3.735,46.055,46.055,0,0,0-3.419-6.784c-.673-1.124-1.346-2.3-1.925-3.473a24.9,24.9,0,0,1-2.147-5.357l-.081-.31a8.155,8.155,0,0,0-2.1-4.328A11.078,11.078,0,0,0,296.544,61a9.406,9.406,0,0,0-3.9-.148,4.038,4.038,0,0,0-1.837,1.6c-.1.242-.04.357,0,.39a.31.31,0,1,1-.552.283h0a1.112,1.112,0,0,0-.835-.713Z" transform="translate(-125.837 -43.735)" fill="#231f20"/>
  <path id="路径_9157" data-name="路径 9157" d="M313.036,128.009c-.081.727-15.264.424-16.348.343-2.793-.2-8.177-.269-10.392-2.322-1.555-1.44,0-4.395.141-6.468a60.456,60.456,0,0,0-.411-9.867,45.28,45.28,0,0,1,.5-12.653c.491-2.692,1.063-4.637,3.035-5.748,3.123-1.757,7.74-2.6,11.334-2.867,1.736-.128,9.079,3.628,10.7,7.094S313.043,127.525,313.036,128.009Z" transform="translate(-126.284 -53)" fill="#ff595e"/>
  <path id="路径_9158" data-name="路径 9158" d="M286.8,115.22a.336.336,0,0,1-.323-.229c-3-8.992.6-19.572.633-19.679a.338.338,0,0,1,.639.222c-.034.108-3.567,10.472-.633,19.242a.33.33,0,0,1-.215.424A.27.27,0,0,1,286.8,115.22Z" transform="translate(-126.178 -55.179)" fill="#231f20"/>
  <path id="路径_9159" data-name="路径 9159" d="M302.165,96.653s-4.819,8.958-6.057,12.9-4.085,10.506-4.085,10.506-1.413-14.4,3.271-26.174Z" transform="translate(-128.315 -54.784)" fill="#231f20"/>
  <path id="路径_9160" data-name="路径 9160" d="M291.845,120.178h-.054a.3.3,0,0,1-.249-.262c0-.141-1.346-14.6,3.3-26.315a.283.283,0,0,1,.155-.162.3.3,0,0,1,.229,0l6.9,2.773a.289.289,0,0,1,.148.411c-.047.094-4.819,8.985-6.057,12.855s-4.038,10.459-4.1,10.526A.289.289,0,0,1,291.845,120.178Zm3.439-26.087c-3.708,9.55-3.439,20.864-3.231,24.532.862-2.053,2.659-6.434,3.594-9.335,1.151-3.567,5.1-11.058,5.95-12.66Z" transform="translate(-128.164 -54.632)" fill="#231f20"/>
  <path id="路径_9161" data-name="路径 9161" d="M293.685,83.075l.969,5.115s1.137,3.91,3.6,2.995a8.076,8.076,0,0,0,4.637-4.5l-.868-10.331a18.5,18.5,0,0,1-.841-5.526,10.93,10.93,0,0,1-4.9-1.09c-.606-.276-3.89-1.481-3.7-2.322-.464,2.093-.989,4.294-2.443,5.876a2.409,2.409,0,0,0-.532.727,1.866,1.866,0,0,0-.061.673,28.652,28.652,0,0,0,.518,6.441C290.771,83.9,293.685,83.075,293.685,83.075Z" transform="translate(-127.568 -46.132)" fill="#fff"/>
  <path id="路径_9162" data-name="路径 9162" d="M297.374,91.495a2.194,2.194,0,0,1-.976-.236c-1.481-.747-2.16-3.029-2.187-3.123l-.922-4.839a3.621,3.621,0,0,1-2.329-.343,2.928,2.928,0,0,1-1.346-1.911,23.431,23.431,0,0,1-.518-5.606v-.909a1.7,1.7,0,0,1,.606-1.474l.074-.081c1.44-1.568,1.938-3.782,2.369-5.741a.31.31,0,1,1,.606.135c0,.108.128.559,3.1,1.8.188.074.337.135.431.182a10.715,10.715,0,0,0,4.745,1.016.323.323,0,0,1,.222.081.3.3,0,0,1,.094.215,17.09,17.09,0,0,0,.713,4.98,2.3,2.3,0,0,1,.128.525c0,.088.875,10.331.875,10.331a.393.393,0,0,1,0,.128,8.292,8.292,0,0,1-4.819,4.711A2.389,2.389,0,0,1,297.374,91.495Zm-2.564-3.5s.626,2.086,1.864,2.692a1.6,1.6,0,0,0,1.346.054,7.841,7.841,0,0,0,4.415-4.227c-.868-10.277-.868-10.27-.868-10.291a2.747,2.747,0,0,0-.1-.37,17.375,17.375,0,0,1-.734-4.819,11.442,11.442,0,0,1-4.711-1.124l-.411-.175a11.934,11.934,0,0,1-3.035-1.6,11.516,11.516,0,0,1-2.342,5.25l-.081.088a1.124,1.124,0,0,0-.431,1.063v.915a22.656,22.656,0,0,0,.5,5.458,2.329,2.329,0,0,0,1.057,1.528,3.184,3.184,0,0,0,2.181.222.3.3,0,0,1,.249.034.323.323,0,0,1,.135.2l.976,5.122Z" transform="translate(-127.421 -45.991)" fill="#231f20"/>
  <path id="路径_9163" data-name="路径 9163" d="M296.36,93.166a8,8,0,0,0,3.419-2.241,4.186,4.186,0,0,0,1.185-3.3,11.617,11.617,0,0,1-5.263,2.059Z" transform="translate(-129.583 -52.737)" fill="#231f20"/>
  <path id="路径_9164" data-name="路径 9164" d="M296.211,93.309a.31.31,0,0,1-.155-.04.283.283,0,0,1-.135-.2l-.673-3.486a.3.3,0,0,1,.061-.236.29.29,0,0,1,.215-.114,11.441,11.441,0,0,0,5.108-2.019.316.316,0,0,1,.289-.04.3.3,0,0,1,.182.222,4.449,4.449,0,0,1-1.259,3.554,8.379,8.379,0,0,1-3.56,2.335Zm-.31-3.52.538,2.833a7.929,7.929,0,0,0,2.968-2.019,4.179,4.179,0,0,0,1.131-2.564A11.549,11.549,0,0,1,295.9,89.789Z" transform="translate(-129.434 -52.584)" fill="#231f20"/>
  <path id="路径_9165" data-name="路径 9165" d="M296.133,75.13s-1.79,2.955-1.312,3.432,1.743.094,1.743.094" transform="translate(-129.269 -48.653)" fill="#fff"/>
  <path id="路径_9166" data-name="路径 9166" d="M295.437,78.926a1.42,1.42,0,0,1-1-.323c-.532-.532.4-2.362,1.272-3.8a.3.3,0,0,1,.411-.1.3.3,0,0,1,.1.411,7.981,7.981,0,0,0-1.346,3.089c.249.242,1.077.108,1.434,0a.3.3,0,0,1,.175.565A3.889,3.889,0,0,1,295.437,78.926Z" transform="translate(-129.119 -48.499)" fill="#231f20"/>
  <ellipse id="椭圆_114" data-name="椭圆 114" cx="0.33" cy="0.619" rx="0.33" ry="0.619" transform="translate(163.573 27.313) rotate(-0.28)" fill="#231f20"/>
  <ellipse id="椭圆_115" data-name="椭圆 115" cx="0.33" cy="0.619" rx="0.33" ry="0.619" transform="translate(168.967 26.607) rotate(-0.28)" fill="#231f20"/>
  <path id="路径_9167" data-name="路径 9167" d="M304.92,75.609a2.412,2.412,0,0,1,2.692-1.346,1.71,1.71,0,0,1,1.447,1.238,3.2,3.2,0,0,1,.067,1.238,6.514,6.514,0,0,1-.673,2.208,2.315,2.315,0,0,1-.707.9,1.178,1.178,0,0,1-1.346,0" transform="translate(-132.598 -48.358)" fill="#fff"/>
  <path id="路径_9168" data-name="路径 9168" d="M307.009,80.164a1.7,1.7,0,0,1-.875-.269.31.31,0,0,1,.33-.525.868.868,0,0,0,1,0,2.079,2.079,0,0,0,.6-.781,6.2,6.2,0,0,0,.619-2.1,2.793,2.793,0,0,0-.061-1.117,1.4,1.4,0,0,0-1.2-1.023,2.146,2.146,0,0,0-2.356,1.151.31.31,0,1,1-.585-.2,2.74,2.74,0,0,1,3.035-1.561,2.019,2.019,0,0,1,1.7,1.508,3.513,3.513,0,0,1,.081,1.346,6.63,6.63,0,0,1-.673,2.308,2.591,2.591,0,0,1-.8,1.016A1.42,1.42,0,0,1,307.009,80.164Z" transform="translate(-132.445 -48.188)" fill="#231f20"/>
  <path id="路径_9169" data-name="路径 9169" d="M261.479,114.434l.976-.525a1.185,1.185,0,0,0,.236-1.635l-7.565-14.019a1.225,1.225,0,0,0-1.514-.713l-.976.518A1.191,1.191,0,0,0,252.4,99.7l7.6,14.012A1.212,1.212,0,0,0,261.479,114.434Z" transform="translate(-115.351 -55.961)" fill="#fff"/>
  <path id="路径_9170" data-name="路径 9170" d="M260.987,114.72a1.709,1.709,0,0,1-1.434-.983l-7.6-14.026a1.817,1.817,0,0,1-.182-1.346,1.158,1.158,0,0,1,.552-.673l.983-.518a1.521,1.521,0,0,1,1.965.781l7.6,14.019a1.811,1.811,0,0,1,.182,1.393,1.131,1.131,0,0,1-.552.673l-.983.525A1.1,1.1,0,0,1,260.987,114.72Zm-7.154-17.068a.431.431,0,0,0-.209.047l-.983.525a.5.5,0,0,0-.229.3,1.2,1.2,0,0,0,.135.882l7.6,14.019c.256.478.74.74,1.05.572h0l.983-.518a.491.491,0,0,0,.229-.3,1.191,1.191,0,0,0-.135-.875L254.68,98.278A1.09,1.09,0,0,0,253.832,97.652Z" transform="translate(-115.202 -55.823)" fill="#231f20"/>
  <path id="路径_9171" data-name="路径 9171" d="M250.361,94.53,242.89,80.787l1.44-.767" transform="translate(-112.316 -50.252)" fill="#231f20"/>
  <path id="路径_9172" data-name="路径 9172" d="M250.214,94.7a.33.33,0,0,1-.3-.175l-7.471-13.75a.337.337,0,0,1,0-.256.357.357,0,0,1,.168-.2l1.434-.761a.343.343,0,0,1,.458.135.336.336,0,0,1-.141.458l-1.137.606,7.309,13.461a.337.337,0,0,1-.135.458A.357.357,0,0,1,250.214,94.7Z" transform="translate(-112.163 -50.089)" fill="#231f20"/>
  <ellipse id="椭圆_116" data-name="椭圆 116" cx="6.313" cy="7.821" rx="6.313" ry="7.821" transform="translate(126.412 32.938) rotate(-29.4)" fill="#231f20"/>
  <path id="路径_9173" data-name="路径 9173" d="M248.392,94.234a8.422,8.422,0,0,1-7.1-4.711h0a8.877,8.877,0,0,1-.862-6.73,5.9,5.9,0,0,1,2.833-3.58c3.237-1.73,7.619.087,9.766,4.038a8.877,8.877,0,0,1,.855,6.73,5.9,5.9,0,0,1-2.833,3.587,5.66,5.66,0,0,1-2.658.666Zm-6.515-5.014c1.972,3.628,5.95,5.324,8.857,3.769a5.189,5.189,0,0,0,2.51-3.183,8.217,8.217,0,0,0-.808-6.2c-1.972-3.628-5.95-5.317-8.857-3.769a5.155,5.155,0,0,0-2.5,3.183,8.211,8.211,0,0,0,.8,6.2Z" transform="translate(-111.41 -49.774)" fill="#231f20"/>
  <ellipse id="椭圆_117" data-name="椭圆 117" cx="6.313" cy="7.821" rx="6.313" ry="7.821" transform="translate(124.968 33.708) rotate(-29.4)" fill="#fff"/>
  <path id="路径_9174" data-name="路径 9174" d="M246.252,95.382a8.436,8.436,0,0,1-7.1-4.711,8.877,8.877,0,0,1-.861-6.73,5.9,5.9,0,0,1,2.84-3.587c3.237-1.723,7.612.094,9.759,4.038a8.911,8.911,0,0,1,.861,6.73,5.916,5.916,0,0,1-2.84,3.58A5.586,5.586,0,0,1,246.252,95.382ZM243.8,80.408a4.933,4.933,0,0,0-2.349.579,5.142,5.142,0,0,0-2.51,3.183,8.218,8.218,0,0,0,.808,6.2c1.972,3.628,5.943,5.317,8.85,3.769a5.169,5.169,0,0,0,2.51-3.183,8.218,8.218,0,0,0-.808-6.2,7.784,7.784,0,0,0-6.5-4.355Z" transform="translate(-110.71 -50.148)" fill="#231f20"/>
  <ellipse id="椭圆_118" data-name="椭圆 118" cx="4.381" cy="5.425" rx="4.381" ry="5.425" transform="translate(127.827 34.847) rotate(-29.4)" fill="#fff"/>
  <path id="路径_9175" data-name="路径 9175" d="M246.876,94.222a5.97,5.97,0,0,1-5.014-3.3,6.253,6.253,0,0,1-.606-4.711,4.22,4.22,0,0,1,2.019-2.551c2.3-1.218,5.384.061,6.905,2.847a6.279,6.279,0,0,1,.606,4.711,4.206,4.206,0,0,1-2.019,2.544A3.95,3.95,0,0,1,246.876,94.222Zm-1.7-10.385a3.365,3.365,0,0,0-1.582.39,3.459,3.459,0,0,0-1.689,2.147,5.566,5.566,0,0,0,.552,4.22c1.346,2.463,4.038,3.621,6,2.571a3.46,3.46,0,0,0,1.689-2.147,5.559,5.559,0,0,0-.552-4.22,5.3,5.3,0,0,0-4.415-2.961Z" transform="translate(-111.712 -51.29)" fill="#231f20"/>
  <path id="路径_9176" data-name="路径 9176" d="M264.182,112.661l5.613,4.92-5.2,4.267c-2.436-4.159-2.894-6.959-4.038-7.04-1.629-.114-3.648-.4-4.132-1.871a4.361,4.361,0,0,1-.222-2.78,1.218,1.218,0,0,1,.6-.794,1.393,1.393,0,0,1,.579-.04c1.084.061,3.029.31,3.116.262.39-.236.673-.491.565-.936C262.486,109.626,262.815,111.618,264.182,112.661Z" transform="translate(-116.627 -59.613)" fill="#fff"/>
  <path id="路径_9177" data-name="路径 9177" d="M264.435,122.022h-.054a.33.33,0,0,1-.236-.162,41.8,41.8,0,0,1-2.228-4.442c-.626-1.393-1.083-2.4-1.541-2.436-1.891-.128-3.9-.485-4.428-2.093a4.6,4.6,0,0,1-.222-2.995,1.265,1.265,0,0,1,1.487-1.063c.532,0,1.218.1,1.824.162.478.047,1,.1,1.191.108.337-.215.384-.35.343-.538a.343.343,0,0,1,.141-.35.336.336,0,0,1,.377,0,6.158,6.158,0,0,1,1.716,2.147,5.869,5.869,0,0,0,1.413,1.871h0l5.613,4.927a.337.337,0,0,1-.007.511l-5.2,4.267a.35.35,0,0,1-.2.088Zm-7.457-12.538a.484.484,0,0,0-.209.034c-.2.074-.323.357-.411.592a4.038,4.038,0,0,0,.229,2.564c.411,1.238,2.261,1.521,3.836,1.635.861.061,1.346,1.1,2.107,2.827a42.168,42.168,0,0,0,2.019,4.038l4.583-3.762-5.33-4.651a6.542,6.542,0,0,1-1.582-2.066,7.517,7.517,0,0,0-1.084-1.568,1.555,1.555,0,0,1-.633.579c-.128.081-.168.088-1.535-.054-.592-.061-1.272-.128-1.77-.155Z" transform="translate(-116.463 -59.451)" fill="#231f20"/>
  <path id="路径_9178" data-name="路径 9178" d="M293.181,105.84c-4.563,5.384-11.886,13.73-11.886,13.73l-14.4-8.13-6.609,5.539s14.336,15.783,22.075,14.309a44.278,44.278,0,0,0,19.693-16.382" transform="translate(-118.005 -58.694)" fill="#ff595e"/>
  <path id="路径_9179" data-name="路径 9179" d="M281.165,131.535c-8.023,0-20.723-13.878-21.288-14.5a.343.343,0,0,1-.088-.249.337.337,0,0,1,.141-.242l6.6-5.539a.336.336,0,0,1,.384-.04l14.134,8c1.151-1.312,7.585-8.648,11.7-13.521a.339.339,0,1,1,.518.437c-4.516,5.344-11.818,13.649-11.892,13.737a.337.337,0,0,1-.417.067l-14.2-8.009-6.151,5.169c1.9,2.019,14.6,15.264,21.537,13.938a44.353,44.353,0,0,0,19.471-16.254.33.33,0,0,1,.464-.1.337.337,0,0,1,.1.464,45.039,45.039,0,0,1-19.861,16.516A6.424,6.424,0,0,1,281.165,131.535Z" transform="translate(-117.841 -58.525)" fill="#231f20"/>
  <path id="路径_9180" data-name="路径 9180" d="M294.13,83.388l2.383-.5s.552,4.038-.794,3.668S294.13,83.388,294.13,83.388Z" transform="translate(-129.07 -51.19)" fill="#fff"/>
  <path id="路径_9181" data-name="路径 9181" d="M295.728,86.753a.943.943,0,0,1-.229,0c-1.508-.384-1.784-3.123-1.81-3.432a.289.289,0,0,1,.236-.316l2.383-.5a.3.3,0,0,1,.236.047.3.3,0,0,1,.121.2c.067.511.384,3.116-.417,3.83A.747.747,0,0,1,295.728,86.753Zm-1.42-3.244c.121.848.5,2.436,1.346,2.645a.2.2,0,0,0,.2,0c.377-.337.384-1.851.262-2.988Z" transform="translate(-128.925 -51.063)" fill="#231f20"/>
  <path id="路径_9182" data-name="路径 9182" d="M256,141.5a4.126,4.126,0,0,0-3.062.9.39.39,0,0,0-.121.135.31.31,0,0,0,0,.175.9.9,0,0,0,.673.619,2.545,2.545,0,0,0,.983-.034l1.864-.3a.929.929,0,0,0,.141.835,2.02,2.02,0,0,0,.673.565,4.814,4.814,0,0,0,1.171.478" transform="translate(-115.556 -70.345)" fill="#fff"/>
  <path id="路径_9183" data-name="路径 9183" d="M258.134,145h-.087a5.149,5.149,0,0,1-1.259-.512,2.336,2.336,0,0,1-.781-.673,1.346,1.346,0,0,1-.242-.619l-1.427.236a2.9,2.9,0,0,1-1.111,0,1.231,1.231,0,0,1-.962-.888.6.6,0,0,1,0-.377.673.673,0,0,1,.222-.276,4.489,4.489,0,0,1,3.325-.969.343.343,0,1,1-.081.673,3.776,3.776,0,0,0-2.807.821.565.565,0,0,0,.431.323,2.47,2.47,0,0,0,.855-.04l1.864-.3a.336.336,0,0,1,.323.121.35.35,0,0,1,.054.343.606.606,0,0,0,.1.518,1.676,1.676,0,0,0,.559.458,4.267,4.267,0,0,0,1.09.444.357.357,0,0,1,.249.424A.343.343,0,0,1,258.134,145Z" transform="translate(-115.371 -70.157)" fill="#231f20"/>
  <path id="路径_9184" data-name="路径 9184" d="M288.433,250.337s.673,4.388.1,4.671-18.293,1.494-17.721-.814c.31-1.252,4.455-3.937,10.048-6.374C282.551,250.633,287.121,250.075,288.433,250.337Z" transform="translate(-121.442 -105.118)" fill="#231f20"/>
  <path id="路径_9185" data-name="路径 9185" d="M278.049,255.752c-4.132,0-6.623-.323-7.4-.969a.8.8,0,0,1-.316-.835c.41-1.642,5.593-4.577,10.243-6.6a.337.337,0,0,1,.424.135c1.232,2.059,4.132,2.181,6.057,2.261a9.633,9.633,0,0,1,1.346.1.343.343,0,0,1,.262.283c.72,4.637.108,4.927-.087,5.021a64.8,64.8,0,0,1-8.352.579C279.416,255.739,278.709,255.752,278.049,255.752Zm2.517-7.673c-5.7,2.51-9.348,5.028-9.6,6.057a.21.21,0,0,0,.061.128c1.568,1.461,15.9.586,17.156.31a14.478,14.478,0,0,0-.209-4.079c-.256,0-.6-.04-.976-.054C285.136,250.334,282.061,250.207,280.567,248.08Z" transform="translate(-121.281 -104.954)" fill="#231f20"/>
  <path id="路径_9186" data-name="路径 9186" d="M322.78,252.165l.464,5.054c1.817,1.245,17.3,3.7,15.91,1.656s-8.655-7.565-8.655-7.565A7.753,7.753,0,0,1,322.78,252.165Z" transform="translate(-138.438 -106.259)" fill="#231f20"/>
  <path id="路径_9187" data-name="路径 9187" d="M336.857,259.817c-4.287,0-12.74-1.642-13.965-2.483a.316.316,0,0,1-.148-.249l-.464-5.048a.33.33,0,0,1,.135-.3.323.323,0,0,1,.33-.04,7.4,7.4,0,0,0,7.4-.8.323.323,0,0,1,.417,0c.3.229,7.323,5.579,8.749,7.646a.673.673,0,0,1-.04.862A4.518,4.518,0,0,1,336.857,259.817ZM323.4,256.856c2.261,1.265,14.625,2.948,15.359,2.019-1.259-1.79-7.235-6.427-8.42-7.336a8.076,8.076,0,0,1-7.336.936Z" transform="translate(-138.273 -106.098)" fill="#231f20"/>
  <rect id="矩形_3247" data-name="矩形 3247" width="38.914" height="33.436" transform="translate(64.119 77.667)" fill="#fff"/>
  <path id="路径_9188" data-name="路径 9188" d="M182.918,184.809H143.983a.343.343,0,0,1-.343-.343V151.023a.343.343,0,0,1,.343-.343h38.935a.343.343,0,0,1,.35.343v33.443a.343.343,0,0,1-.35.343Zm-38.565-.673h38.221V151.373H144.333Z" transform="translate(-79.864 -73.356)" fill="#231f20"/>
  <path id="路径_9189" data-name="路径 9189" d="M178.779,182.773H152.363a.316.316,0,0,1-.323-.323V160.563a.316.316,0,0,1,.323-.323.323.323,0,0,1,.323.323V182.1h26.093a.323.323,0,0,1,.323.323.316.316,0,0,1-.323.35Z" transform="translate(-82.61 -76.482)" fill="#d1d3d4"/>
  <path id="路径_9190" data-name="路径 9190" d="M156.114,182.171a.336.336,0,0,1-.256-.128.323.323,0,0,1,.061-.451l22.6-17.364a.323.323,0,0,1,.451.061.33.33,0,0,1-.054.451L156.309,182.1A.323.323,0,0,1,156.114,182.171Z" transform="translate(-83.837 -77.764)" fill="#d1d3d4"/>
  <path id="路径_9191" data-name="路径 9191" d="M187.375,167.858h-.061a.323.323,0,0,1-.256-.377l.525-2.786-3.244-.168a.323.323,0,0,1-.31-.336.336.336,0,0,1,.343-.31l3.614.2a.3.3,0,0,1,.236.121.323.323,0,0,1,.061.256l-.592,3.143A.33.33,0,0,1,187.375,167.858Z" transform="translate(-93.07 -77.672)" fill="#d1d3d4"/>
</svg>
