<svg id="需求优化" xmlns="http://www.w3.org/2000/svg" width="190.612" height="166.744" viewBox="0 0 190.612 166.744">
  <path id="路径_9768" data-name="路径 9768" d="M254.155,166.114v5.162l-24.263,29.768-7.747-9.638L76.227,242.785,75.17,235.14l100.84-41.351s36.148-15.325,34.937-15.325S198.5,169,198.5,169l1.11-4.711,38.807,5.916Z" transform="translate(-63.88 -76.378)" fill="#d1d3d4"/>
  <path id="路径_9769" data-name="路径 9769" d="M76.062,242.957a.323.323,0,0,1-.175-.047.33.33,0,0,1-.155-.242l-1.063-7.652a.343.343,0,0,1,.209-.357l100.86-41.344c12.559-5.324,31.06-13.272,34.365-14.948-2.47-1.346-9.618-7.3-11.966-9.274a.336.336,0,0,1-.114-.336l1.111-4.711a.337.337,0,0,1,.377-.256l38.746,5.909,15.648-4.038a.343.343,0,0,1,.424.33v5.162a.316.316,0,0,1-.081.209l-24.263,29.768a.316.316,0,0,1-.256.128.262.262,0,0,1-.262-.128l-7.6-9.422L76.176,242.943A.335.335,0,0,1,76.062,242.957Zm-.673-7.773.962,6.986L221.88,190.945a.337.337,0,0,1,.377.108l7.484,9.308,23.926-29.351V166.4l-15.3,3.964a.3.3,0,0,1-.135,0l-38.5-5.869-1,4.213c5.29,4.449,11.28,9.173,12.081,9.254a.377.377,0,0,1,.357.276c.074.39.108.552-17.647,8.211-8.655,3.729-17.431,7.45-17.5,7.484Z" transform="translate(-63.715 -76.213)" fill="#231f20"/>
  <path id="路径_9770" data-name="路径 9770" d="M102.187,161.569l-7.74-2.349-2.867,5.31,7.222,2.6Z" transform="translate(-69.245 -74.72)" fill="#fff"/>
  <path id="路径_9771" data-name="路径 9771" d="M98.634,167.314H98.52l-7.222-2.6a.323.323,0,0,1-.2-.2.357.357,0,0,1,0-.276l2.887-5.324a.33.33,0,0,1,.39-.162l7.747,2.349a.377.377,0,0,1,.215.2.35.35,0,0,1,0,.3l-3.365,5.566a.343.343,0,0,1-.337.148Zm-6.73-3.123,6.6,2.376,3.015-4.96-7.067-2.14Z" transform="translate(-69.078 -74.562)" fill="#231f20"/>
  <path id="路径_9772" data-name="路径 9772" d="M68.55,197.881l138.112-25.9-9.2-7.686,54.529,1.844-24.673,27.4-7.4-7.928L73.005,235.14Z" transform="translate(-61.715 -76.378)" fill="#fff"/>
  <path id="路径_9773" data-name="路径 9773" d="M72.84,235.312a.357.357,0,0,1-.182-.054.35.35,0,0,1-.155-.242l-4.455-37.259a.33.33,0,0,1,.269-.37L205.73,171.61l-8.648-7.228a.337.337,0,0,1-.1-.377.316.316,0,0,1,.33-.215l54.515,1.844a.33.33,0,0,1,.3.2.343.343,0,0,1-.061.357l-24.673,27.4a.323.323,0,0,1-.249.114.33.33,0,0,1-.249-.108l-7.249-7.767-146.7,49.441A.3.3,0,0,1,72.84,235.312Zm-4.085-37.326,4.368,36.539,146.518-49.4a.35.35,0,0,1,.357.088l7.148,7.659,23.933-26.591L198.253,164.5l8.447,7.053a.337.337,0,0,1,.108.343.343.343,0,0,1-.263.249Z" transform="translate(-61.55 -76.214)" fill="#231f20"/>
  <ellipse id="椭圆_151" data-name="椭圆 151" cx="27.345" cy="5.573" rx="27.345" ry="5.573" transform="translate(31.13 128.838) rotate(-9.75)" fill="#e6e7e8"/>
  <path id="路径_9774" data-name="路径 9774" d="M171.127,197.06l-3.877,6.024,7.491,2.147,5.243-6.279Z" transform="translate(-93.987 -87.093)" fill="#fff"/>
  <path id="路径_9775" data-name="路径 9775" d="M174.58,205.393a.216.216,0,0,1-.094,0L167,203.246a.343.343,0,0,1-.2-.5l3.87-6.057a.33.33,0,0,1,.357-.148l8.864,1.891a.343.343,0,0,1,.249.222.35.35,0,0,1-.061.323l-5.25,6.279A.33.33,0,0,1,174.58,205.393Zm-6.959-2.692,6.838,1.965,4.752-5.68-8.076-1.73Z" transform="translate(-93.826 -86.918)" fill="#231f20"/>
  <path id="路径_9776" data-name="路径 9776" d="M165.576,206s-3.614,4.213-3.439,4.711,15.48,6.279,16.153,5.162-5.243-7.747-5.243-7.747Z" transform="translate(-92.314 -90.016)" fill="#231f20"/>
  <path id="路径_9777" data-name="路径 9777" d="M177.643,216.233a4.187,4.187,0,0,1-.464,0c-2.928-.337-15.258-4.711-15.52-5.5-.067-.2-.236-.673,3.507-5.061a.316.316,0,0,1,.343-.1l7.484,2.147a.41.41,0,0,1,.162.1c1.831,2.019,6.024,6.939,5.283,8.144A.981.981,0,0,1,177.643,216.233Zm-15.311-5.775c1.615,1.063,14.551,5.593,15.574,5.075.209-.5-2.147-3.823-5.189-7.228l-7.188-2.066a32.618,32.618,0,0,0-3.2,4.22ZM162.332,210.56Z" transform="translate(-92.151 -89.871)" fill="#231f20"/>
  <path id="路径_9778" data-name="路径 9778" d="M152.142,136.474s16.893,16.153,17.364,19.975-12.989,23.159-12.989,23.159l-10.1-4.314s11.334-14.356,9-18.629-14.935-11.953-14.935-11.953-8.11,17.929-13.461,20.709-27.635-7.4-27.635-7.4l4.577-9.227s14.759,5.431,17.532,3.082,7.228-23.973,7.228-23.973Z" transform="translate(-71.799 -64.479)" fill="#231f20"/>
  <path id="路径_9779" data-name="路径 9779" d="M156.35,179.792a.437.437,0,0,1-.128,0l-10.1-4.314a.343.343,0,0,1-.188-.229.323.323,0,0,1,.061-.289c3.116-3.944,10.768-14.914,8.965-18.259-2.059-3.769-12.512-10.4-14.49-11.63-1.191,2.584-8.413,17.9-13.461,20.521-5.418,2.82-27.015-7.006-27.931-7.4a.336.336,0,0,1-.175-.2.31.31,0,0,1,0-.256l4.577-9.227a.343.343,0,0,1,.417-.162c4.038,1.487,15.049,4.96,17.2,3.136s5.882-17.8,7.114-23.785a.337.337,0,0,1,.444-.249l23.368,8.6a.418.418,0,0,1,.114.074c.673.673,16.987,16.26,17.5,20.191s-12.464,22.533-13.016,23.32A.337.337,0,0,1,156.35,179.792Zm-9.53-4.785,9.422,4.038c3.83-5.512,13.151-19.693,12.788-22.695s-11.394-14.134-17.216-19.733l-22.937-8.447c-.633,3.008-4.6,21.537-7.262,23.785s-15.123-2.019-17.579-2.921l-4.294,8.648c2.726,1.218,22.21,9.786,27.029,7.3,5.176-2.692,13.218-20.373,13.3-20.554a.33.33,0,0,1,.209-.182.343.343,0,0,1,.269,0c.518.316,12.7,7.787,15.056,12.115C157.817,160.435,148.576,172.732,146.819,175.006Z" transform="translate(-71.632 -64.326)" fill="#231f20"/>
  <path id="路径_9780" data-name="路径 9780" d="M232,75.356a19.706,19.706,0,0,1,3.83-2.1c1.555-.5,3.52-.855,3.076-1.514s-4.126.3-4.126.3,2.147-3.3,3.365-3.951,2.934-.6,2.086-1.225A5.962,5.962,0,0,0,235.9,66.6c-.9.464-6.057,6.125-6.326,6.427S232,75.356,232,75.356Z" transform="translate(-114.358 -44.341)" fill="#fff"/>
  <path id="路径_9781" data-name="路径 9781" d="M231.818,75.527a.364.364,0,0,1-.2-.067c-1.676-1.259-2.551-2.12-2.618-2.5a.424.424,0,0,1,.094-.323c.047-.054,5.384-5.977,6.434-6.5a6.1,6.1,0,0,1,4.678.289.716.716,0,0,1,.357.673c-.061.363-.485.491-1.117.673a6.6,6.6,0,0,0-1.346.485,13,13,0,0,0-2.746,3.123c1.434-.323,3.224-.572,3.634.047a.619.619,0,0,1,.108.565c-.182.5-.956.747-2.309,1.137-.343.094-.673.2-1.03.31a19.193,19.193,0,0,0-3.742,2.019A.316.316,0,0,1,231.818,75.527Zm-2.08-2.571a15.725,15.725,0,0,0,2.086,1.817,18.65,18.65,0,0,1,3.715-2.019c.343-.114.673-.215,1.057-.316a5.788,5.788,0,0,0,1.858-.727,9.454,9.454,0,0,0-3.769.464.337.337,0,0,1-.37-.511c.087-.135,2.208-3.365,3.473-4.038a6.837,6.837,0,0,1,1.508-.545l.491-.141a5.714,5.714,0,0,0-3.931-.2C235.1,67.121,230.6,71.993,229.739,72.956Z" transform="translate(-114.176 -44.176)" fill="#231f20"/>
  <path id="路径_9782" data-name="路径 9782" d="M182.69,80.567S203.763,85,205.782,84.484l7.942-8.924,4.671,3.042s-2.43,7.349-5.788,11.59-25.393,5.182-25.393,5.182Z" transform="translate(-99.036 -47.366)" fill="#ff595e"/>
  <path id="路径_9783" data-name="路径 9783" d="M177.481,67.084a8.628,8.628,0,0,1-3.621-1.151,7.969,7.969,0,0,1-3.634-5.384,5.021,5.021,0,0,1-4.341-5.7,5.122,5.122,0,0,0,4.624-1.063,3.035,3.035,0,0,1-3.244-2.692.969.969,0,0,1,.074-.518c.249-.464.929-.377,1.44-.262a18.525,18.525,0,0,0,7.72-.458,22.75,22.75,0,0,1,7.713-.767c3.688.518,6.582,3.163,5.99,7.053a15.87,15.87,0,0,1-.969,3.9,3.493,3.493,0,0,1-.983,1.063c-2.059,1.716-3.506,4.24-6.057,5.384A9.6,9.6,0,0,1,177.481,67.084Z" transform="translate(-93.524 -38.674)" fill="#fff"/>
  <path id="路径_9784" data-name="路径 9784" d="M178.424,67.317a8.094,8.094,0,0,1-1.137-.054h0a9.052,9.052,0,0,1-3.762-1.2,8.319,8.319,0,0,1-3.749-5.384,5.384,5.384,0,0,1-4.381-6.057.33.33,0,0,1,.155-.222.316.316,0,0,1,.269-.04,4.839,4.839,0,0,0,3.56-.464,3.365,3.365,0,0,1-1.42-.713,3.251,3.251,0,0,1-1.191-2.248,1.266,1.266,0,0,1,.114-.673c.4-.747,1.42-.525,1.811-.437,2.423.538,4.967.087,7.578-.458l.316-.067a21.1,21.1,0,0,1,7.511-.673,7.747,7.747,0,0,1,5.2,2.847,5.963,5.963,0,0,1,1.077,4.59,15.963,15.963,0,0,1-1,4,3.554,3.554,0,0,1-1,1.11l-.067.054a22.647,22.647,0,0,0-2.019,2.019,13.088,13.088,0,0,1-4.038,3.365A9.423,9.423,0,0,1,178.424,67.317Zm-1.07-.727a9.234,9.234,0,0,0,4.556-.626,11.7,11.7,0,0,0,3.85-3.19,23.262,23.262,0,0,1,2.113-2.12l.067-.054a3.016,3.016,0,0,0,.828-.888,16.073,16.073,0,0,0,.935-3.8,5.317,5.317,0,0,0-.949-4.085A7.053,7.053,0,0,0,184,49.239a21.71,21.71,0,0,0-7.275.673l-.323.067c-2.692.565-5.3,1.03-7.861.464-.612-.135-.962-.108-1.07.094a.673.673,0,0,0,0,.33,2.692,2.692,0,0,0,2.867,2.4.35.35,0,0,1,.35.2.343.343,0,0,1-.088.39,5.431,5.431,0,0,1-4.563,1.218,4.509,4.509,0,0,0,.929,3.183,4.429,4.429,0,0,0,3.123,1.81.337.337,0,0,1,.3.276,7.646,7.646,0,0,0,3.466,5.149,8.346,8.346,0,0,0,3.48,1.1Z" transform="translate(-93.363 -38.517)" fill="#231f20"/>
  <path id="路径_9785" data-name="路径 9785" d="M200.982,67.46s1.985,3.655,1.454,4.334-2.066.061-2.066.061" transform="translate(-104.817 -44.717)" fill="#fff"/>
  <path id="路径_9786" data-name="路径 9786" d="M201.423,72.278A4.132,4.132,0,0,1,200.077,72a.336.336,0,0,1-.188-.437.33.33,0,0,1,.437-.188c.424.168,1.393.4,1.676.04s-.5-2.167-1.481-3.964a.337.337,0,0,1,.108-.471.343.343,0,0,1,.458.135c.626,1.158,2.019,3.937,1.42,4.711A1.346,1.346,0,0,1,201.423,72.278Z" transform="translate(-104.651 -44.548)" fill="#231f20"/>
  <path id="路径_9787" data-name="路径 9787" d="M195.107,59.841c1.346,1.346.713,3.789.559,5.425q-.323,3.439-.808,6.872c-.2,1.447-3.978,1.151-4.6.673l-.067,4.846s-1.111,2.584-4.038.915-3.459-3.655-3.459-3.655l.821-6.623a4.773,4.773,0,0,0,4.22-2.611c1.73-2.84,2.059-7.4,2.059-7.4S193.782,58.563,195.107,59.841Z" transform="translate(-99.036 -41.716)" fill="#fff"/>
  <path id="路径_9788" data-name="路径 9788" d="M187.808,79.28a4,4,0,0,1-2.019-.612c-3.008-1.716-3.6-3.789-3.621-3.877a.455.455,0,0,1,0-.135L183,68.04a.33.33,0,0,1,.363-.3,4.417,4.417,0,0,0,3.9-2.45c1.669-2.732,2.019-7.208,2.019-7.255a.343.343,0,0,1,.363-.31c.168,0,4.132.343,5.519,1.689h0c1.245,1.211.983,3.21.767,4.819-.04.31-.074.606-.1.882-.215,2.275-.485,4.59-.808,6.885a1.38,1.38,0,0,1-.969,1.07,6.575,6.575,0,0,1-3.641.054l-.061,4.341a.29.29,0,0,1,0,.128,3,3,0,0,1-1.683,1.548A2.645,2.645,0,0,1,187.808,79.28Zm-4.947-4.61a6.917,6.917,0,0,0,3.291,3.419,2.813,2.813,0,0,0,2.275.417,2.309,2.309,0,0,0,1.252-1.124l.067-4.765a.336.336,0,0,1,.188-.3.343.343,0,0,1,.357.04,5.579,5.579,0,0,0,3.507.094c.343-.135.525-.316.559-.538.316-2.282.592-4.59.8-6.858a7.779,7.779,0,0,1,.108-.9c.2-1.46.437-3.271-.565-4.247h0c-1.01-.976-3.809-1.346-4.778-1.467a19.165,19.165,0,0,1-2.073,7.208,5.23,5.23,0,0,1-4.213,2.773Z" transform="translate(-98.863 -41.535)" fill="#231f20"/>
  <path id="路径_9789" data-name="路径 9789" d="M199.6,75.843a1.905,1.905,0,0,1-2.692-.983" transform="translate(-103.685 -47.137)" fill="#fff"/>
  <path id="路径_9790" data-name="路径 9790" d="M198.435,76.244a2.059,2.059,0,0,1-.734-.128,2.16,2.16,0,0,1-1.225-1.292.335.335,0,1,1,.619-.256,1.521,1.521,0,0,0,.841.9,1.979,1.979,0,0,0,1.346-.108.336.336,0,0,1,.3.6,2.914,2.914,0,0,1-1.151.289Z" transform="translate(-103.535 -46.973)" fill="#231f20"/>
  <path id="路径_9791" data-name="路径 9791" d="M192.672,67.509a3.15,3.15,0,0,0-.5-1.629,4.5,4.5,0,0,0-.747-1.117,1.508,1.508,0,0,0-1.2-.485,1.413,1.413,0,0,0-.962.673,2.605,2.605,0,0,0-.384,1.111,4.94,4.94,0,0,0,1.9,4.57l-.114-.148" transform="translate(-101.042 -43.676)" fill="#fff"/>
  <path id="路径_9792" data-name="路径 9792" d="M190.61,70.773a.316.316,0,0,1-.2-.067,5.33,5.33,0,0,1-2.019-4.886,2.961,2.961,0,0,1,.444-1.252,1.7,1.7,0,0,1,1.2-.781,1.844,1.844,0,0,1,1.487.579,4.872,4.872,0,0,1,.8,1.191,3.48,3.48,0,0,1,.545,1.817.343.343,0,0,1-.357.31.337.337,0,0,1-.316-.357,2.772,2.772,0,0,0-.471-1.454,4.206,4.206,0,0,0-.673-1.03,1.178,1.178,0,0,0-.929-.39,1.057,1.057,0,0,0-.72.491,2.249,2.249,0,0,0-.337.969,4.651,4.651,0,0,0,1.508,4.038.336.336,0,0,1,.209.121l.114.155a.33.33,0,0,1,0,.437A.343.343,0,0,1,190.61,70.773Z" transform="translate(-100.885 -43.515)" fill="#231f20"/>
  <path id="路径_9793" data-name="路径 9793" d="M192.621,78.784a6.138,6.138,0,0,1-2.692-2.194s-.168,3.513,2.739,4.779Z" transform="translate(-101.402 -47.702)" fill="#231f20"/>
  <path id="路径_9794" data-name="路径 9794" d="M192.5,81.554a.323.323,0,0,1-.135,0c-3.082-1.346-2.948-4.953-2.941-5.1a.343.343,0,0,1,.263-.316.337.337,0,0,1,.37.168,5.862,5.862,0,0,0,2.531,2.019.337.337,0,0,1,.209.3l.04,2.591a.316.316,0,0,1-.148.283A.31.31,0,0,1,192.5,81.554Zm-2.322-4.038a4.469,4.469,0,0,0,1.979,3.143v-1.81a7.276,7.276,0,0,1-1.985-1.326Z" transform="translate(-101.238 -47.551)" fill="#231f20"/>
  <ellipse id="椭圆_152" data-name="椭圆 152" cx="0.821" cy="0.323" rx="0.821" ry="0.323" transform="matrix(0.251, -0.968, 0.968, 0.251, 94.487, 21.755)" fill="#231f20"/>
  <path id="路径_9795" data-name="路径 9795" d="M171.337,83.413s6.441,5.425,6.374,11.065-10.284,26.733-10.519,26.962-24.142-8.352-24.142-8.352,3.6-9.052,8.029-14.948C155.683,92.021,165.475,79.53,171.337,83.413Z" transform="translate(-86.075 -49.693)" fill="#ff595e"/>
  <path id="路径_9796" data-name="路径 9796" d="M231.6,90.53c-2.961-.417-4.826-2.019-5.041-4.994-.39-5.3-2.564-9.853-4.853-14.544-8.46-17.371,1.548-38.443,23.307-36.72C259.766,35.443,269.579,46,268.381,60.345a26.409,26.409,0,0,1-9.133,17.9c-3.621,3.21-6.8,6.6-8.783,11.085-1.279,2.887-3.607,4.079-6.824,3.365-1.938-.451-3.91-.713-5.869-1.057C235.732,91.264,233.666,90.82,231.6,90.53Z" transform="translate(-110.814 -33.833)" fill="#fff"/>
  <path id="路径_9797" data-name="路径 9797" d="M245.263,93.051a8.077,8.077,0,0,1-1.858-.229c-1.346-.3-2.692-.532-4.038-.747-.606-.1-1.2-.2-1.8-.3l-1.938-.357c-1.386-.256-2.813-.525-4.22-.72h0c-3.217-.451-5.115-2.329-5.33-5.3-.39-5.344-2.638-9.954-4.812-14.416-4.469-9.16-3.984-19.632,1.265-27.332,4.853-7.127,12.788-10.634,22.365-9.873,7.565.6,14.086,3.708,18.36,8.749a23.666,23.666,0,0,1,5.317,17.687,26.921,26.921,0,0,1-9.261,18.1c-3.13,2.773-6.609,6.252-8.7,10.97A5.619,5.619,0,0,1,245.263,93.051Zm-13.777-3.022c1.42.2,2.86.464,4.247.727l1.932.35c.6.108,1.2.2,1.8.3,1.346.222,2.739.444,4.092.761,3.042.673,5.209-.357,6.441-3.143,2.14-4.839,5.687-8.379,8.871-11.206a25.851,25.851,0,0,0,9.012-17.68,22.976,22.976,0,0,0-5.155-17.2c-4.159-4.9-10.519-7.922-17.9-8.507-9.315-.734-17.041,2.692-21.759,9.577-5.108,7.5-5.573,17.714-1.218,26.659,2.208,4.516,4.482,9.194,4.886,14.665.2,2.692,1.837,4.28,4.752,4.711Z" transform="translate(-110.654 -33.668)" fill="#231f20"/>
  <rect id="矩形_3314" data-name="矩形 3314" width="21.274" height="6.044" rx="3.022" transform="matrix(-0.985, -0.175, 0.175, -0.985, 136.418, 65.601)" fill="#fff"/>
  <path id="路径_9798" data-name="路径 9798" d="M248.882,126.384a3.364,3.364,0,0,1-.518-.04l-15.823-2.807a2.907,2.907,0,0,1-1.9-1.211,2.941,2.941,0,0,1-.485-2.194l.148-.821a2.941,2.941,0,0,1,3.406-2.383l15.823,2.8a2.941,2.941,0,0,1,2.383,3.406l-.141.828A2.955,2.955,0,0,1,248.882,126.384Zm-15.688-8.83a2.275,2.275,0,0,0-2.228,1.871l-.141.821a2.261,2.261,0,0,0,1.837,2.632h0l15.789,2.833a2.261,2.261,0,0,0,2.625-1.837l.148-.821a2.275,2.275,0,0,0-1.837-2.632l-15.823-2.786a2.019,2.019,0,0,0-.4-.054Z" transform="translate(-114.542 -60.877)" fill="#231f20"/>
  <rect id="矩形_3315" data-name="矩形 3315" width="21.274" height="6.044" rx="3.022" transform="matrix(-0.985, -0.175, 0.175, -0.985, 135.367, 71.557)" fill="#fff"/>
  <path id="路径_9799" data-name="路径 9799" d="M247.264,135.271a2.628,2.628,0,0,1-.511-.047l-15.823-2.8a2.961,2.961,0,0,1-1.9-1.211,2.908,2.908,0,0,1-.485-2.2l.141-.821a2.941,2.941,0,0,1,3.412-2.383l15.823,2.807a2.948,2.948,0,0,1,2.383,3.412l-.148.821a2.948,2.948,0,0,1-2.894,2.423Zm-15.682-8.837a2.275,2.275,0,0,0-2.228,1.871l-.148.828a2.275,2.275,0,0,0,1.837,2.625h0l15.823,2.807a2.282,2.282,0,0,0,2.632-1.837l.141-.828a2.261,2.261,0,0,0-1.837-2.625l-15.823-2.807a2.642,2.642,0,0,0-.4-.034Z" transform="translate(-114.014 -63.78)" fill="#231f20"/>
  <path id="路径_9800" data-name="路径 9800" d="M231.864,135.11c-.4,2.241,2.914,4.711,7.4,5.5s8.447-.377,8.844-2.625Z" transform="translate(-115.104 -66.837)" fill="#fff"/>
  <path id="路径_9801" data-name="路径 9801" d="M241.863,141.038a16.409,16.409,0,0,1-2.847-.262,13.642,13.642,0,0,1-5.674-2.268c-1.508-1.117-2.221-2.4-2.019-3.621a.337.337,0,0,1,.39-.269l16.254,2.874a.364.364,0,0,1,.215.141.33.33,0,0,1,.054.249C247.921,139.833,245.3,141.038,241.863,141.038Zm-9.887-5.694a3.623,3.623,0,0,0,1.763,2.625,13.063,13.063,0,0,0,5.384,2.147c3.991.707,7.666-.215,8.359-2.019Z" transform="translate(-114.927 -66.674)" fill="#231f20"/>
  <path id="路径_9802" data-name="路径 9802" d="M246.93,100.023c.592-6.407,1.124-13.023,3.823-18.952,1.171-2.571,2.975-5.923,5.223-7.713a4.688,4.688,0,0,1,6.656,1.508,5.048,5.048,0,0,1-.485,4.839,9.658,9.658,0,0,1-3.883,3.2,18.65,18.65,0,0,1-20.15-2.537,12.256,12.256,0,0,1-3.883-5.714,7.4,7.4,0,0,1,1.158-6.636c1.642-2.019,3.7-.168,4.711,1.46,2.214,3.5,1.81,8.527,1.575,12.471a63.264,63.264,0,0,1-3.365,16.395" transform="translate(-115.78 -44.611)" fill="#fff"/>
  <path id="路径_9803" data-name="路径 9803" d="M246.8,100.22h0a.343.343,0,0,1-.31-.363l.061-.606a73.747,73.747,0,0,1,2.261-14.315,19.3,19.3,0,0,1-6.979-1.81,64.1,64.1,0,0,1-3.284,15.19.337.337,0,0,1-.424.209.343.343,0,0,1-.215-.424,63.124,63.124,0,0,0,3.278-15.3,17.865,17.865,0,0,1-3.365-2.322,12.532,12.532,0,0,1-3.984-5.869,7.74,7.74,0,0,1,1.218-6.939,2.362,2.362,0,0,1,2.019-1c1.635.1,2.914,1.932,3.271,2.49,2.174,3.453,1.885,8.292,1.649,12.175V82.4a18.421,18.421,0,0,0,7.121,1.871,30.438,30.438,0,0,1,1.346-3.486c1.7-3.749,3.493-6.387,5.317-7.834a4.8,4.8,0,0,1,7,1.615,5.324,5.324,0,0,1-.5,5.176,9.854,9.854,0,0,1-4.038,3.318,18.266,18.266,0,0,1-8.81,1.9,72.156,72.156,0,0,0-2.288,14.342l-.054.606A.33.33,0,0,1,246.8,100.22ZM249.677,84.3a17.613,17.613,0,0,0,8.305-1.837,9.234,9.234,0,0,0,3.749-3.082,4.711,4.711,0,0,0,.464-4.509,4.361,4.361,0,0,0-6.151-1.393c-1.736,1.346-3.459,3.937-5.122,7.592A29.932,29.932,0,0,0,249.677,84.3ZM236.889,67.336a1.743,1.743,0,0,0-1.346.761,7.087,7.087,0,0,0-1.09,6.333,11.946,11.946,0,0,0,3.782,5.546,16.825,16.825,0,0,0,3,2.093v-.276l.034-.5c.229-3.789.511-8.507-1.555-11.771-.639-1.016-1.7-2.12-2.739-2.181Z" transform="translate(-115.646 -44.458)" fill="#d1d3d4"/>
  <path id="路径_9804" data-name="路径 9804" d="M230.86,100.861l3.574-2.988c1.131-.929,2.228-3.486,3.251-3.473s-.808,3.042-.808,3.042,3.8-2.914,4.994-3,1.837,1.911,1.541,2.531S239.9,99.1,238.7,100.3a57.064,57.064,0,0,1-5.1,3.87" transform="translate(-114.786 -53.526)" fill="#fff"/>
  <path id="路径_9805" data-name="路径 9805" d="M233.5,104.345a.336.336,0,0,1-.188-.612,57.32,57.32,0,0,0,5.048-3.83,17.406,17.406,0,0,1,2.8-1.959A9.584,9.584,0,0,0,243,96.666a2.019,2.019,0,0,0-.384-1.528.983.983,0,0,0-.835-.525c-.794.054-3.365,1.831-4.805,2.934a.343.343,0,0,1-.431,0,.33.33,0,0,1-.061-.424,6.047,6.047,0,0,0,1.057-2.571c-.4,0-1.063.976-1.6,1.73a9.04,9.04,0,0,1-1.407,1.709l-3.567,2.982-.437-.512,3.574-2.988a8.565,8.565,0,0,0,1.285-1.582c.713-1.016,1.386-1.972,2.174-1.972h0a.6.6,0,0,1,.552.31c.229.4,0,1.185-.357,1.918,1.252-.9,3.123-2.127,3.964-2.187a1.615,1.615,0,0,1,1.44.814,2.584,2.584,0,0,1,.431,2.2c-.175.377-.875.814-2.1,1.561a16.436,16.436,0,0,0-2.692,1.858,56.43,56.43,0,0,1-5.142,3.9A.35.35,0,0,1,233.5,104.345Z" transform="translate(-114.681 -53.369)" fill="#231f20"/>
  <path id="路径_9806" data-name="路径 9806" d="M184.7,90.2c.2.242,9.7,15.406,9.7,15.406l18.912-9.086,4.617,5.33s-15.937,12.02-22.129,14.039-20.521-20.157-20.332-22.6S181.971,86.822,184.7,90.2Z" transform="translate(-96.674 -51.73)" fill="#ff595e"/>
  <path id="路径_9807" data-name="路径 9807" d="M199.263,107.25a.323.323,0,0,1-.283-.155l-8.6-13.689a.337.337,0,0,1,.565-.363c.108.162,7.255,11.542,8.44,13.461l9.974-5.216a.337.337,0,1,1,.31.6l-10.25,5.384A.309.309,0,0,1,199.263,107.25Z" transform="translate(-101.535 -53.036)" fill="#231f20"/>
  <path id="路径_9808" data-name="路径 9808" d="M198.76,124c-3.984,0-8.285-3.365-12.788-10.048a.337.337,0,0,1,.087-.464.343.343,0,0,1,.471.087c4.913,7.249,9.49,10.486,13.575,9.611s12.377-7.363,12.458-7.4a.338.338,0,1,1,.417.532c-.343.269-8.426,6.643-12.734,7.558a7.125,7.125,0,0,1-1.487.128Z" transform="translate(-100.09 -59.749)" fill="#231f20"/>
  <path id="路径_9809" data-name="路径 9809" d="M182.724,86l-.451,1.346,1.111,1.447s-2.174,11.24-19,2.275L159,93.006l3.2,4.361s20.191,7.767,21.746-8.447l.283-1.81Z" transform="translate(-91.29 -50.779)" fill="#231f20"/>
  <path id="路径_9810" data-name="路径 9810" d="M171.981,99.4a31.337,31.337,0,0,1-10.042-1.891.35.35,0,0,1-.148-.114l-3.2-4.361a.356.356,0,0,1-.054-.3.377.377,0,0,1,.209-.222l5.384-1.938a.343.343,0,0,1,.269,0c6.32,3.365,11.253,4.274,14.665,2.692a7.289,7.289,0,0,0,3.789-4.577l-1.01-1.346a.337.337,0,0,1-.054-.31l.451-1.346a.343.343,0,0,1,.215-.215.35.35,0,0,1,.3.054l1.521,1.131a.337.337,0,0,1,.128.323l-.283,1.81c-.4,4.1-2.019,7.067-4.826,8.8A13.878,13.878,0,0,1,171.981,99.4Zm-9.712-2.483c1.043.377,10.768,3.769,16.691.114,2.517-1.555,4.038-4.206,4.462-7.881a7.794,7.794,0,0,1-4.038,4.711c-3.594,1.7-8.689.835-15.143-2.6L159.409,93Zm20.191-9.826,1,1.306v.04l.209-1.346-.983-.734Z" transform="translate(-91.134 -50.603)" fill="#231f20"/>
  <path id="路径_9811" data-name="路径 9811" d="M89.6,158.153s-6.2-2.409-6.542-2.181-7.484,11.011-6.138,11.186,9.806-3.695,9.806-3.695Z" transform="translate(-64.396 -73.653)" fill="#231f20"/>
  <path id="路径_9812" data-name="路径 9812" d="M76.827,167.355h-.114a.511.511,0,0,1-.451-.411c-.4-1.7,6.367-11.334,6.441-11.381s.5-.33,6.851,2.14a.35.35,0,0,1,.188.2.33.33,0,0,1,0,.276l-2.894,5.3a.363.363,0,0,1-.155.148C85.852,164.017,78.516,167.355,76.827,167.355Zm6.212-11.2c-.31.384-1.851,2.645-3.365,5.075-2.443,3.991-2.759,5.155-2.786,5.458,1.191-.054,6.286-2.194,9.422-3.621l2.632-4.879a53.131,53.131,0,0,0-5.9-2.033Z" transform="translate(-64.231 -73.514)" fill="#231f20"/>
  <path id="路径_9813" data-name="路径 9813" d="M142.84,54.647S131.062,53.025,127.9,46.12L119.87,56.613s5.849,10.836,16.153,9.422Z" transform="translate(-78.495 -37.74)" fill="#fff"/>
  <path id="路径_9814" data-name="路径 9814" d="M134.042,66.335c-9.268,0-14.584-9.624-14.638-9.732a.336.336,0,0,1,0-.363l8.056-10.493a.342.342,0,0,1,.579.067c3.042,6.656,14.558,8.319,14.672,8.339a.316.316,0,0,1,.256.182.343.343,0,0,1,0,.323l-6.825,11.408a.337.337,0,0,1-.242.162,14.806,14.806,0,0,1-1.858.108ZM120.1,56.468c.828,1.413,6.427,10.223,15.547,9.1l6.468-10.829c-2.255-.39-11.327-2.282-14.45-8.15Z" transform="translate(-78.326 -37.575)" fill="#d1d3d4"/>
  <path id="路径_9815" data-name="路径 9815" d="M80.8,117.635s-11.179-6.145-21.914.989L63.244,133.3s9.887-7.4,17.559-5.445Z" transform="translate(-58.557 -60.319)" fill="#fff"/>
  <path id="路径_9816" data-name="路径 9816" d="M63.083,133.49a.3.3,0,0,1-.108,0,.337.337,0,0,1-.215-.222L58.412,118.6a.323.323,0,0,1,.135-.377c10.768-7.161,22.143-1.063,22.257-1a.323.323,0,0,1,.175.289V127.7a.336.336,0,0,1-.135.262.323.323,0,0,1-.289.061c-7.4-1.9-17.176,5.317-17.27,5.384a.384.384,0,0,1-.2.081Zm-3.957-14.867L63.271,132.6c1.9-1.346,10.149-6.784,17.034-5.317V117.7c-1.447-.72-11.529-5.33-21.18.922Z" transform="translate(-58.395 -60.176)" fill="#d1d3d4"/>
  <path id="路径_9817" data-name="路径 9817" d="M88.247,70.064s-.067-1.2,3.365-1.454A8.224,8.224,0,0,1,97.3,70.374l-9.052,11.69S86.289,72.648,88.247,70.064Z" transform="translate(-67.871 -45.087)" fill="#fff"/>
  <path id="路径_9818" data-name="路径 9818" d="M88.084,82.242H88.01a.33.33,0,0,1-.256-.256c-.081-.39-1.932-9.422,0-12.2.067-.4.545-1.434,3.648-1.662a8.46,8.46,0,0,1,5.929,1.851.337.337,0,0,1,.047.458l-9.032,11.67A.316.316,0,0,1,88.084,82.242Zm3.93-13.461a5.264,5.264,0,0,0-.559,0c-2.436.175-3.015.868-3.035,1.117a.316.316,0,0,1-.067.2c-1.541,2.019-.485,8.749-.081,11l8.372-10.829a8.076,8.076,0,0,0-4.63-1.508Z" transform="translate(-67.708 -44.928)" fill="#d1d3d4"/>
  <path id="路径_9819" data-name="路径 9819" d="M86,70.78,80.5,82.02a16.967,16.967,0,0,0,6.65,6.266l5.384-10.1S86.752,75.686,86,70.78Z" transform="translate(-65.623 -45.803)" fill="#fff"/>
  <path id="路径_9820" data-name="路径 9820" d="M86.988,88.457a.357.357,0,0,1-.162-.04,17.169,17.169,0,0,1-6.784-6.4.357.357,0,0,1,0-.31l5.5-11.24a.336.336,0,0,1,.35-.188.33.33,0,0,1,.283.283c.72,4.664,6.279,7.141,6.34,7.168a.343.343,0,0,1,.182.2.37.37,0,0,1,0,.269l-5.384,10.1A.336.336,0,0,1,86.988,88.457Zm-6.266-6.616a16.967,16.967,0,0,0,6.125,5.822l5.061-9.5c-1.178-.579-5.075-2.759-6.192-6.562Z" transform="translate(-65.462 -45.638)" fill="#d1d3d4"/>
  <path id="路径_9821" data-name="路径 9821" d="M227.675,149.7a8.617,8.617,0,0,1-3.769,3.7c-2.955,1.683-7.356,0-7.356,0l1.1,9.6s3.85,1.763,9.241-.673,5.606-4.947,5.606-4.947Z" transform="translate(-110.107 -71.607)" fill="#fff"/>
  <path id="路径_9822" data-name="路径 9822" d="M221.05,163.787a9.584,9.584,0,0,1-3.7-.673.343.343,0,0,1-.2-.269l-1.1-9.611a.35.35,0,0,1,.128-.3.343.343,0,0,1,.33-.047c.04,0,4.287,1.615,7.067,0a8.7,8.7,0,0,0,3.621-3.533.343.343,0,0,1,.283-.2.323.323,0,0,1,.316.155l4.826,7.7a.356.356,0,0,1,.047.2c0,.114-.3,2.759-5.808,5.229A14.133,14.133,0,0,1,221.05,163.787Zm-3.251-1.2a11.816,11.816,0,0,0,8.749-.727c4.509-2.039,5.277-4.105,5.384-4.577l-4.442-7.094a9.948,9.948,0,0,1-3.621,3.318c-2.49,1.42-5.855.6-7.127.2Z" transform="translate(-109.943 -71.426)" fill="#d1d3d4"/>
  <path id="路径_9823" data-name="路径 9823" d="M287.167,109.58a13.279,13.279,0,0,0-4.927,7.4l14.268.141S289.213,109.614,287.167,109.58Z" transform="translate(-131.586 -58.489)" fill="#fff"/>
  <path id="路径_9824" data-name="路径 9824" d="M296.346,117.284h0l-14.268-.141a.323.323,0,0,1-.263-.128.31.31,0,0,1-.061-.283,13.4,13.4,0,0,1,5.061-7.592.39.39,0,0,1,.188-.061c2.127.04,8.83,6.858,9.584,7.632a.337.337,0,0,1-.242.572Zm-13.831-.808,13.023.128c-2.854-2.867-7.02-6.636-8.44-6.845A13.1,13.1,0,0,0,282.515,116.477Z" transform="translate(-131.423 -58.326)" fill="#d1d3d4"/>
  <path id="路径_9825" data-name="路径 9825" d="M306.985,117.931s3.332-6.313-5.505-11.441l-11.919,2.08s11.172,3.264,4.449,13.891Z" transform="translate(-133.979 -57.479)" fill="#fff"/>
  <path id="路径_9826" data-name="路径 9826" d="M293.817,122.622a.323.323,0,0,1-.262-.518c2.019-3.177,2.585-5.983,1.7-8.332-1.386-3.675-5.916-5.041-5.956-5.054a.337.337,0,0,1,.034-.673l11.926-2.086a.35.35,0,0,1,.229.04c4.711,2.692,5.97,5.795,6.226,7.9a7.182,7.182,0,0,1-.6,3.991.31.31,0,0,1-.182.162l-12.976,4.529A.344.344,0,0,1,293.817,122.622Zm-3.19-14.134a9.587,9.587,0,0,1,5.229,5.014c.888,2.356.464,5.088-1.265,8.13l11.96-4.173c.4-.882,2.443-6.252-5.324-10.822Zm16.153,9.241Z" transform="translate(-133.788 -57.303)" fill="#d1d3d4"/>
  <path id="路径_9827" data-name="路径 9827" d="M129.063,107.833A10.52,10.52,0,0,0,122.434,106c-3.789.316-4.994-1.7-4.994-1.7l-1.79,7.107s2.019,2.5,3.816,2.557,3.217-1.077,6.125,0Z" transform="translate(-77.116 -56.763)" fill="#fff"/>
  <path id="路径_9828" data-name="路径 9828" d="M119.455,114.132H119.3c-1.9-.067-3.971-2.571-4.038-2.692a.337.337,0,0,1-.067-.3l1.79-7.107a.323.323,0,0,1,.276-.249.316.316,0,0,1,.336.155c.047.074,1.171,1.837,4.671,1.548a10.768,10.768,0,0,1,6.865,1.891.343.343,0,0,1,.094.437l-3.48,6.131a.337.337,0,0,1-.4.148,6.764,6.764,0,0,0-4.206-.2,8.163,8.163,0,0,1-1.683.236Zm-3.587-2.982c.431.491,2.073,2.261,3.453,2.308a7.161,7.161,0,0,0,1.662-.209,7.457,7.457,0,0,1,4.3.135l3.183-5.613a10.3,10.3,0,0,0-6.158-1.6c-2.692.229-4.186-.673-4.852-1.346Z" transform="translate(-76.964 -56.593)" fill="#d1d3d4"/>
</svg>
